<svg xmlns="http://www.w3.org/2000/svg" xmlns:xlink="http://www.w3.org/1999/xlink" viewBox="0 0 274 249">
  <defs>
    <style>
      .cls-1 {
        fill: url(#linear-gradient);
      }

      .cls-2 {
        fill: url(#linear-gradient-2);
      }

      .cls-3 {
        fill: none;
        stroke: #9f9f9f;
        stroke-miterlimit: 10;
        stroke-width: 2px;
      }

      .cls-4 {
        filter: url(#Path_10);
      }

      .cls-5 {
        filter: url(#Rectangle_31);
      }

      .cls-6 {
        filter: url(#Path_9);
      }

      .cls-7 {
        filter: url(#Path_5);
      }
    </style>
    <linearGradient id="linear-gradient" x1="0.5" x2="0.5" y2="1" gradientUnits="objectBoundingBox">
      <stop offset="0" stop-color="#242931"/>
      <stop offset="1" stop-color="#1c1f27"/>
    </linearGradient>
    <filter id="Path_5" x="0" y="0" width="170" height="249" filterUnits="userSpaceOnUse">
      <feOffset dy="20" input="SourceAlpha"/>
      <feGaussianBlur stdDeviation="15" result="blur"/>
      <feFlood flood-opacity="0.161"/>
      <feComposite operator="in" in2="blur"/>
      <feComposite in="SourceGraphic"/>
    </filter>
    <linearGradient id="linear-gradient-2" x1="0.5" x2="0.5" y2="1" gradientUnits="objectBoundingBox">
      <stop offset="0" stop-color="#1d2029"/>
      <stop offset="1" stop-color="#070b14"/>
    </linearGradient>
    <filter id="Path_9" x="0" y="0" width="170" height="237.224" filterUnits="userSpaceOnUse">
      <feOffset dy="20" input="SourceAlpha"/>
      <feGaussianBlur stdDeviation="15" result="blur-2"/>
      <feFlood flood-opacity="0.161"/>
      <feComposite operator="in" in2="blur-2"/>
      <feComposite in="SourceGraphic"/>
    </filter>
    <filter id="Rectangle_31" x="107" y="0" width="167" height="249" filterUnits="userSpaceOnUse">
      <feOffset dy="20" input="SourceAlpha"/>
      <feGaussianBlur stdDeviation="15" result="blur-3"/>
      <feFlood flood-opacity="0.161"/>
      <feComposite operator="in" in2="blur-3"/>
      <feComposite in="SourceGraphic"/>
    </filter>
    <filter id="Path_10" x="107" y="0" width="167" height="249" filterUnits="userSpaceOnUse">
      <feOffset dy="20" input="SourceAlpha"/>
      <feGaussianBlur stdDeviation="15" result="blur-4"/>
      <feFlood flood-opacity="0.161"/>
      <feComposite operator="in" in2="blur-4"/>
      <feComposite in="SourceGraphic"/>
    </filter>
  </defs>
  <g id="cross-platform" transform="translate(45 25)">
    <g class="cls-7" transform="matrix(1, 0, 0, 1, -45, -25)">
      <path id="Path_5-2" data-name="Path 5" class="cls-1" d="M68,159H12A12.035,12.035,0,0,1,0,147V12A12.035,12.035,0,0,1,12,0H68A12.035,12.035,0,0,1,80,12V147A12.035,12.035,0,0,1,68,159Z" transform="translate(45 25)"/>
    </g>
    <g class="cls-6" transform="matrix(1, 0, 0, 1, -45, -25)">
      <path id="Path_9-2" data-name="Path 9" class="cls-2" d="M0,147V12A12.035,12.035,0,0,1,12,0H68A12.035,12.035,0,0,1,80,12S0,153.6,0,147Z" transform="translate(45 25)"/>
    </g>
    <g class="cls-5" transform="matrix(1, 0, 0, 1, -45, -25)">
      <rect id="Rectangle_31-2" data-name="Rectangle 31" class="cls-1" width="77" height="159" transform="translate(152 25)"/>
    </g>
    <g class="cls-4" transform="matrix(1, 0, 0, 1, -45, -25)">
      <path id="Path_10-2" data-name="Path 10" class="cls-2" d="M0,0H77L0,159Z" transform="translate(152 25)"/>
    </g>
    <path id="Path_6" data-name="Path 6" class="cls-3" d="M36,101H53v38h74V28h22"/>
    <circle id="Ellipse_130" data-name="Ellipse 130" class="cls-3" cx="3" cy="3" r="3" transform="translate(30 98)"/>
    <circle id="Ellipse_131" data-name="Ellipse 131" class="cls-3" cx="3" cy="3" r="3" transform="translate(148 25)"/>
  </g>
</svg>
