<svg xmlns="http://www.w3.org/2000/svg" viewBox="0 0 558.05 173.708">
    <defs>
        <style>
            .cls-1{fill:#309de8}.cls-2{fill:#ffefef}.cls-2,.cls-3,.cls-5,.cls-7,.cls-8,.cls-9{stroke:#5a6977;stroke-miterlimit:10;stroke-width:3px}.cls-2,.cls-3,.cls-5,.cls-7,.cls-8{stroke-linecap:round;stroke-linejoin:round}.cls-10,.cls-3,.cls-9{fill:#e8e8e8}.cls-4{fill:#5a6977}.cls-5{fill:#fff}.cls-6{fill:#21cf93}.cls-7{fill:none}.cls-8{fill:#bfe5ef}
        </style>
    </defs>
    <g id="actions" transform="translate(0 .089)">
        <path id="Path_476" d="M158.227 128.42a4.707 4.707 0 0 0 1.47 6.518l20.535 13.037a4.707 4.707 0 0 0 6.518-1.47 4.707 4.707 0 0 0-1.47-6.518l-20.535-13.037a4.75 4.75 0 0 0-6.518 1.47z" class="cls-2" data-name="Path 476" transform="translate(-79.536 -63.633)"/>
        <path id="Path_477" d="M95.287 199.534h13.87a5.881 5.881 0 1 0 0-11.762H79.162v-49.99a5.881 5.881 0 1 0-11.762 0v55.871a5.857 5.857 0 0 0 5.881 5.881h14.36" class="cls-3" data-name="Path 477" transform="translate(-33.602 -66.525)"/>
        <path id="Path_478" d="M116.317 291.611H104.31V269.9h-7.646v21.711h-7.841a3.823 3.823 0 1 0 0 7.646h27.446a3.773 3.773 0 0 0 2.7-1.127 3.861 3.861 0 0 0 1.127-2.7 3.755 3.755 0 0 0-3.779-3.819z" class="cls-3" data-name="Path 478" transform="translate(-42.577 -136.891)"/>
        <circle id="Ellipse_288" cx="5.734" cy="5.734" r="5.734" class="cls-4" data-name="Ellipse 288" transform="translate(45.56 160.651)"/>
        <circle id="Ellipse_289" cx="5.734" cy="5.734" r="5.734" class="cls-4" data-name="Ellipse 289" transform="translate(64.135 160.651)"/>
        <path id="Path_479" d="M113.975 179.212a11.736 11.736 0 0 1-7.744-14.752l10.978-35.385a11.736 11.736 0 0 1 14.752-7.744 11.736 11.736 0 0 1 7.744 14.752l-10.978 35.385a11.815 11.815 0 0 1-14.752 7.744z" class="cls-5" data-name="Path 479" transform="translate(-53.124 -60.857)"/>
        <path id="Path_480" d="M151.6 117.147a3.638 3.638 0 0 1-1.323-5l4.264-7.352a3.638 3.638 0 0 1 5-1.323 3.638 3.638 0 0 1 1.323 5l-4.264 7.352a3.7 3.7 0 0 1-5 1.323z" class="cls-2" data-name="Path 480" transform="translate(-75.601 -51.772)"/>
        <path id="Path_481" d="M136.76 40.821c4.7-13.282 7.6-7.744 19.555-3.48s19.8 6.714 15.1 20-17.4 23.28-28.279 16.81c-9.116-5.391-11.272-16.271-8.381-27.936" class="cls-2" data-name="Path 481" transform="translate(-67.332 -15.83)"/>
        <path id="Path_482" d="M170.782 16.774a9.753 9.753 0 1 0-18.967-4.558 11.447 11.447 0 0 0-.2 1.274l-20.188-4.754a12.315 12.315 0 0 0-14.8 9.116 9.309 9.309 0 0 0-4.362-2.4 9.415 9.415 0 1 0 6.616 12.645 12.167 12.167 0 0 0 6.959 4.503l26.465 6.273a12.315 12.315 0 0 0 14.8-9.116 12.052 12.052 0 0 0-.441-7.106 9.8 9.8 0 0 0 4.118-5.877z" class="cls-6" data-name="Path 482" transform="translate(-50.58 -1.683)"/>
        <path id="Path_483" d="M181.082 13.474a9.753 9.753 0 0 0-18.967-4.558 11.443 11.443 0 0 0-.2 1.274l-20.188-4.754a12.315 12.315 0 0 0-14.8 9.116 9.309 9.309 0 0 0-4.362-2.4 9.415 9.415 0 1 0 6.616 12.645 12.167 12.167 0 0 0 6.959 4.503l26.465 6.273a12.315 12.315 0 0 0 14.8-9.116 12.052 12.052 0 0 0-.441-7.106 9.6 9.6 0 0 0 4.118-5.877z" class="cls-7" data-name="Path 483" transform="translate(-55.832)"/>
        <path id="Path_484" d="M136.557 142.711h-22.986l8.822-12.988a4.73 4.73 0 0 0-7.842-5.293l-13.674 20.143a4.365 4.365 0 0 0-.784 2.745v.1a4.706 4.706 0 0 0 4.7 4.7h31.758a4.7 4.7 0 0 0 0-9.41z" class="cls-2" data-name="Path 484" transform="translate(-50.27 -61.652)"/>
        <path id="Path_485" d="M190.419 230.689a.294.294 0 0 1 .049-.2.367.367 0 0 1 .049-.245v-.98a.3.3 0 0 0-.049-.2 2.123 2.123 0 0 0-.049-.245c0-.049-.049-.1-.049-.147-.049-.1-.049-.2-.1-.294a.171.171 0 0 0-.049-.1l-.147-.294c0-.049-.049-.049-.049-.1l-.147-.294c0-.049-.049-.049-.049-.1a1.026 1.026 0 0 0-.2-.294c-.049-.049-.049-.1-.1-.1-.049-.1-.147-.147-.2-.245-.049-.049-.1-.1-.1-.147l-.2-.2-.147-.147c-.049-.049-.147-.1-.2-.2-.049-.049-.1-.1-.147-.1a1.072 1.072 0 0 0-.245-.147c-.049-.049-.1-.049-.147-.1a1.071 1.071 0 0 1-.245-.147c-.049 0-.1-.049-.147-.049l-.294-.147a.171.171 0 0 1-.1-.049.908.908 0 0 0-.343-.1h-.1a.727.727 0 0 0-.343-.049.18.18 0 0 1-.147-.049.622.622 0 0 1-.294-.049H161.4a4.7 4.7 0 1 0 0 9.41h18.232l-10.042 37.963a4.72 4.72 0 0 0 9.116 2.451l11.615-43.864v-.1a.709.709 0 0 0 .098-.342z" class="cls-8" data-name="Path 485" transform="translate(-79.136 -114.098)"/>
        <path id="Path_486" d="M190.419 230.689a.294.294 0 0 1 .049-.2.367.367 0 0 1 .049-.245v-.98a.3.3 0 0 0-.049-.2 2.123 2.123 0 0 0-.049-.245c0-.049-.049-.1-.049-.147-.049-.1-.049-.2-.1-.294a.171.171 0 0 0-.049-.1l-.147-.294c0-.049-.049-.049-.049-.1l-.147-.294c0-.049-.049-.049-.049-.1a1.026 1.026 0 0 0-.2-.294c-.049-.049-.049-.1-.1-.1-.049-.1-.147-.147-.2-.245-.049-.049-.1-.1-.1-.147l-.2-.2-.147-.147c-.049-.049-.147-.1-.2-.2-.049-.049-.1-.1-.147-.1a1.072 1.072 0 0 0-.245-.147c-.049-.049-.1-.049-.147-.1a1.071 1.071 0 0 1-.245-.147c-.049 0-.1-.049-.147-.049l-.294-.147a.171.171 0 0 1-.1-.049.908.908 0 0 0-.343-.1h-.1a.727.727 0 0 0-.343-.049.18.18 0 0 1-.147-.049.622.622 0 0 1-.294-.049H161.4a4.7 4.7 0 1 0 0 9.41h18.232l-10.042 37.963a4.72 4.72 0 0 0 9.116 2.451l11.615-43.864v-.1a.709.709 0 0 0 .098-.342z" class="cls-7" data-name="Path 486" transform="translate(-79.136 -114.098)"/>
        <path id="Path_487" d="M161.915 269.7l-17.5-40.531a4.7 4.7 0 0 0-4.656-3.97H115.4a4.7 4.7 0 1 0 0 9.41h21.123l16.761 38.816a4.7 4.7 0 0 0 8.626-3.725z" class="cls-8" data-name="Path 487" transform="translate(-55.681 -114.099)"/>
        <path id="Path_488" d="M110.3 157.775h64.6v-5.881l19.7-29.749a.165.165 0 0 0-.147-.245h-36.76a1.192 1.192 0 0 0-.98.539l-17.644 29.455H110.3" class="cls-3" data-name="Path 488" transform="translate(-55.477 -61.426)"/>
        <path id="Path_489" d="M160.774 122.439l-17.644 29.455H110v5.881h69.006v-5.881l19.7-29.749a.165.165 0 0 0-.147-.245h-36.804a1.25 1.25 0 0 0-.981.539z" class="cls-5" data-name="Path 489" transform="translate(-55.324 -61.426)"/>
        <path id="Path_490" d="M200.1 314.376a3.113 3.113 0 0 1 .49-4.362L211.908 301a3.113 3.113 0 0 1 4.362.49 3.113 3.113 0 0 1-.49 4.362l-11.321 9.018a3.07 3.07 0 0 1-4.359-.494z" class="cls-5" data-name="Path 490" transform="translate(-100.919 -152.402)"/>
        <path id="Path_491" d="M180.3 325.388a3.075 3.075 0 0 1 3.088-3.088h14.507a3.075 3.075 0 0 1 3.088 3.088 3.075 3.075 0 0 1-3.088 3.088h-14.507a3.075 3.075 0 0 1-3.088-3.088z" class="cls-5" data-name="Path 491" transform="translate(-91.17 -163.61)"/>
        <path id="Path_492" d="M131.769 195.1H5.421a3.932 3.932 0 0 0-3.921 3.921v67.928a3.921 3.921 0 1 0 7.842 0v-64.007h118.506v64.007a3.921 3.921 0 1 0 7.842 0v-67.928a3.932 3.932 0 0 0-3.921-3.921z" class="cls-3" data-name="Path 492" transform="translate(0 -98.751)"/>
        <ellipse id="Ellipse_290" cx="4.215" cy="3.284" class="cls-6" data-name="Ellipse 290" rx="4.215" ry="3.284" transform="rotate(-30 201.334 -169.38)"/>
        <ellipse id="Ellipse_291" cx="4.215" cy="3.284" class="cls-7" data-name="Ellipse 291" rx="4.215" ry="3.284" transform="rotate(-30 198.266 -167.785)"/>
        <path id="Path_493" d="M392.237 228.226s-9.361-16.222-8.724-22.741c9.263-2.843 12.645-15.536 9.655-26.857-3.284-12.547-10.537-10.341-21.809-7.4-11.321 2.941-16.369.245-13.086 12.792 3.088 11.811 10.1 21.466 20.143 22.055.441 4.411 1.176 14.556-1.519 23.476a8.665 8.665 0 0 0-.392 2.549 8.283 8.283 0 1 0 16.565 0 8.673 8.673 0 0 0-.931-3.872z" class="cls-5" data-name="Path 493" transform="translate(-181.415 -85.415)"/>
        <path id="Path_494" d="M515.582 200.407a6.138 6.138 0 0 0-8.724 0l-18.575 18.477-16.565-14.654a6.194 6.194 0 0 0-8.724.539 6.194 6.194 0 0 0 .539 8.724l20.731 18.379a6.37 6.37 0 0 0 3.48 1.519 6.168 6.168 0 0 0 5.293-1.715l22.594-22.5a6.288 6.288 0 0 0-.049-8.769z" class="cls-2" data-name="Path 494" transform="translate(-234.529 -100.529)"/>
        <path id="Path_495" d="M549.9 248.982v-49.3a20.9 20.9 0 0 1 20.878-20.882 20.9 20.9 0 0 1 20.878 20.878v49.794" class="cls-5" data-name="Path 495" transform="translate(-279.629 -90.439)"/>
        <path id="Path_496" d="M575.719 173.872l-1.47.98a3.069 3.069 0 0 1-4.264-.833l-6.126-9.116a3.069 3.069 0 0 1 .833-4.264l1.47-.98a3.069 3.069 0 0 1 4.264.833l6.126 9.116a3.069 3.069 0 0 1-.833 4.264z" class="cls-2" data-name="Path 496" transform="translate(-286.481 -80.414)"/>
        <path id="Path_497" d="M497.2 111.215c5.293 14.85 19.457 26.024 31.611 18.82 11.615-6.91 12.4-22.4 7.155-37.248-5.293-14.85-8.479-8.675-21.858-3.921s-22.154 7.499-16.908 22.349z" class="cls-2" data-name="Path 497" transform="translate(-251.971 -41.821)"/>
        <path id="Path_498" d="M543.136 118.551a13.719 13.719 0 0 0 14.948-20.241l-14.556-25.24a33.46 33.46 0 0 0-.882-1.372A11.11 11.11 0 0 0 529.854 54.1a10.777 10.777 0 0 0-4.558 3.774 14.542 14.542 0 0 0-19.212-7.3l-22.348 10.047a7.083 7.083 0 0 0-.536-1.421 11.515 11.515 0 1 0-14.8 15.438 14.491 14.491 0 0 0 1.078 8.332 14.543 14.543 0 0 0 19.212 7.3l29.308-13.135.294-.147a13.889 13.889 0 0 0 1.47 9.9l14.556 25.24a13.9 13.9 0 0 0 8.822 6.42" class="cls-6" data-name="Path 498" transform="translate(-234.392 -24.407)"/>
        <path id="Path_499" d="M531.853 118.745a13.512 13.512 0 0 0 8.283-1.764 13.766 13.766 0 0 0 5.048-18.771l-14.556-25.24a33.46 33.46 0 0 0-.882-1.372A11.11 11.11 0 0 0 516.954 54a10.776 10.776 0 0 0-4.558 3.774 14.543 14.543 0 0 0-19.212-7.3l-22.348 10.047a7.077 7.077 0 0 0-.536-1.421 11.515 11.515 0 1 0-14.8 15.438 14.491 14.491 0 0 0 1.078 8.332 14.542 14.542 0 0 0 19.212 7.3l29.308-13.135.294-.147a13.888 13.888 0 0 0 1.47 9.9l4.264 8.528" class="cls-7" data-name="Path 499" transform="translate(-227.815 -24.356)"/>
        <path id="Path_500" d="M607.115 196.146l14.115 27a4.824 4.824 0 0 1-2.009 6.469l-2.5 1.274a4.824 4.824 0 0 1-6.469-2.009l-14.115-27a4.824 4.824 0 0 1 2.009-6.469l2.5-1.274a4.824 4.824 0 0 1 6.469 2.009z" class="cls-2" data-name="Path 500" transform="translate(-302.929 -97.983)"/>
        <path id="Line_36" d="M9.802 0L0 14.115" class="cls-7" data-name="Line 36" transform="translate(231.455 95.467)"/>
        <path id="Path_501" d="M575.87 234.276l-17.742 21.711-12.155-13.187a5.641 5.641 0 0 1-.245-7.3l9.165-11.223a5.533 5.533 0 0 1 7.793-.784z" class="cls-9" data-name="Path 501" transform="translate(-276.879 -112.589)"/>
        <path id="Path_502" d="M377.151 159.128l-31.219 18.036c-2.549 1.47-5.489.833-6.224-1.274l-5.244-14.654c-1.813-5.1 1.274-11.517 7.352-15l12.988-7.5c6.665-3.872 14.556-2.794 16.957 3.284l7.155 12.4c1.568.885.538 3.38-1.765 4.708z" class="cls-6" data-name="Path 502" transform="translate(-169.515 -68.856)"/>
        <path id="Path_503" d="M383.751 152.628l-31.219 18.036c-2.548 1.47-5.489.833-6.224-1.274l-5.244-14.654c-1.813-5.1 1.274-11.517 7.352-15l12.988-7.5c6.665-3.872 14.556-2.794 16.957 3.284l7.155 12.4c1.567.885.538 3.38-1.765 4.708z" class="cls-7" data-name="Path 503" transform="translate(-172.88 -65.542)"/>
        <path id="Path_504" d="M333.43 186.072l2.744 4.754a1.048 1.048 0 0 0 1.421.392l55.822-32.3a1.048 1.048 0 0 0 .392-1.421l-2.745-4.754a4.732 4.732 0 0 0-6.469-1.715l-49.45 28.572a4.732 4.732 0 0 0-1.715 6.472z" class="cls-3" data-name="Path 504" transform="translate(-168.922 -75.95)"/>
        <path id="Path_505" d="M503.063 318.438H329.519a4.037 4.037 0 0 1-4.019-4.019 4.037 4.037 0 0 1 4.019-4.019h173.544a4.037 4.037 0 0 1 4.019 4.019 4.037 4.037 0 0 1-4.019 4.019z" class="cls-3" data-name="Path 505" transform="translate(-165.208 -157.542)"/>
        <g id="Group_164" data-name="Group 164" transform="translate(143.482 91.98)">
            <path id="Path_506" d="M325.115 186.78a11.738 11.738 0 0 0-6.861 1.372 10.508 10.508 0 0 0-2.745 2.107 11.722 11.722 0 0 0-1.96 2.843 17.112 17.112 0 0 0-1.715 6.91c-.147 2.451 0 4.852-.049 7.352a33.815 33.815 0 0 1-.833 7.352 7.573 7.573 0 0 1-1.568 3.676 3.9 3.9 0 0 1-.833.735 8.519 8.519 0 0 1-.931.49 15.569 15.569 0 0 1-1.862.539 85.537 85.537 0 0 1-14.507 2.5l-.049-.147c4.7-1.323 9.459-2.548 14.115-3.872a13.465 13.465 0 0 0 1.666-.49 3.509 3.509 0 0 0 1.225-.784 7.126 7.126 0 0 0 1.372-2.941 58.641 58.641 0 0 0 1.372-7.106 72.144 72.144 0 0 0 .343-7.3c.049-1.225.049-2.451.2-3.725a13.867 13.867 0 0 1 .882-3.676 10.11 10.11 0 0 1 2.156-3.235 10.921 10.921 0 0 1 3.186-2.205 9.97 9.97 0 0 1 7.4-.49z" class="cls-10" data-name="Path 506" transform="translate(-291.2 -186.184)"/>
        </g>
        <g id="Group_165" data-name="Group 165" transform="translate(164.939 92.184)">
            <path id="Path_507" d="M346.948 186.6a3.548 3.548 0 0 1 1.323.588 3.447 3.447 0 0 1 .98 1.078 5.175 5.175 0 0 1 .784 2.843 7.48 7.48 0 0 1-.147 1.47 5.722 5.722 0 0 1-.539 1.372 7.436 7.436 0 0 1-1.862 2.205 26.29 26.29 0 0 1-4.8 2.745 13.7 13.7 0 0 0-4.264 3.186 8.549 8.549 0 0 0-1.911 4.607 11.648 11.648 0 0 0 .637 5 12.517 12.517 0 0 0 .98 2.352c.392.784.882 1.519 1.323 2.352a8.458 8.458 0 0 1 .98 2.7 3.6 3.6 0 0 1-.588 2.745l-.147-.049a4.119 4.119 0 0 0-.049-2.549 7.835 7.835 0 0 0-1.225-2.254c-.49-.735-1.078-1.421-1.568-2.254a11.5 11.5 0 0 1-1.225-2.6 11.768 11.768 0 0 1-.49-5.685 7.923 7.923 0 0 1 .931-2.745l.392-.637.441-.588a6.547 6.547 0 0 1 .98-1.029 27.706 27.706 0 0 1 4.607-3.039 21.36 21.36 0 0 0 4.215-3.235 11.964 11.964 0 0 0 1.568-1.96 4.289 4.289 0 0 0 .49-1.078 5.033 5.033 0 0 0 .245-1.176 5.614 5.614 0 0 0-.343-2.4 4.8 4.8 0 0 0-.637-1.078 4.265 4.265 0 0 0-1.029-.833z" class="cls-10" data-name="Path 507" transform="translate(-334.98 -186.6)"/>
        </g>
        <circle id="Ellipse_292" cx="3.039" cy="3.039" r="3.039" class="cls-4" data-name="Ellipse 292" transform="translate(173.868 89.243)"/>
        <path id="Path_508" d="M561.2 266.021l4.607 3.774 25.485-31.17-4.607-3.774a3.718 3.718 0 0 0-5.195.539l-20.78 25.485a3.614 3.614 0 0 0 .49 5.146z" class="cls-9" data-name="Path 508" transform="translate(-284.704 -118.603)"/>
        <path id="Path_509" d="M572.075 245.2h27.691a6.15 6.15 0 0 1 6.175 6.175 6.15 6.15 0 0 1-6.175 6.175h-27.691a6.15 6.15 0 0 1-6.175-6.175 6.15 6.15 0 0 1 6.175-6.175z" class="cls-2" data-name="Path 509" transform="translate(-287.788 -124.297)"/>
        <path id="Path_510" d="M989.443 306.3a5.924 5.924 0 0 0 8.283-1.127l7.989-10.537a5.924 5.924 0 0 0-1.127-8.283 5.924 5.924 0 0 0-8.283 1.127l-7.989 10.537a5.837 5.837 0 0 0 1.127 8.283z" class="cls-5" data-name="Path 510" transform="translate(-502.548 -144.669)"/>
        <path id="Path_511" d="M1018 182.894l-16.906 16.906a5.384 5.384 0 0 0 0 7.548 5.384 5.384 0 0 0 7.548 0l16.908-16.908a5.384 5.384 0 0 0 0-7.548 5.384 5.384 0 0 0-7.55.002z" class="cls-2" data-name="Path 511" transform="translate(-508.906 -91.739)"/>
        <path id="Path_512" d="M959.295 204.25l21.417 10.537a5.384 5.384 0 0 0 7.155-2.451 5.384 5.384 0 0 0-2.451-7.155L964 194.644a5.384 5.384 0 0 0-7.155 2.451 5.384 5.384 0 0 0 2.45 7.155z" class="cls-2" data-name="Path 512" transform="translate(-486.857 -98.245)"/>
        <path id="Path_513" d="M982.654 263.319l27.985 1.225c5.391.245 9.557-4.362 8.43-9.263l-1.666-7.2a7.966 7.966 0 0 0-6.322-5.881l-30.435-6.077c-6.175-1.225-11.468 4.215-9.557 9.8l4.117 12.007a8.127 8.127 0 0 0 7.448 5.389z" class="cls-8" data-name="Path 513" transform="translate(-494.19 -119.577)"/>
        <path id="Path_514" d="M1071.88 244.153a17.809 17.809 0 0 0 11.713-22.251l-12.056-38.816a17.81 17.81 0 0 0-22.251-11.713 17.809 17.809 0 0 0-11.713 22.251l12.057 38.816a17.731 17.731 0 0 0 22.25 11.713z" class="cls-5" data-name="Path 514" transform="translate(-527.888 -86.247)"/>
        <path id="Path_515" d="M952.412 277.879l75.868 19.021a7.467 7.467 0 0 0 9.067-5.44 7.467 7.467 0 0 0-5.44-9.067l-75.868-19.016a7.467 7.467 0 0 0-9.067 5.44 7.513 7.513 0 0 0 5.44 9.062z" class="cls-8" data-name="Path 515" transform="translate(-481.985 -133.451)"/>
        <path id="Path_516" d="M1057.212 168.877a3.879 3.879 0 0 0 2.646-4.8l-1.666-5.685a3.879 3.879 0 0 0-4.8-2.647 3.879 3.879 0 0 0-2.647 4.8l1.666 5.685a3.879 3.879 0 0 0 4.801 2.647z" class="cls-2" data-name="Path 516" transform="translate(-534.932 -78.605)"/>
        <path id="Path_518" d="M1049.288 91.257c-2.647-13.772-6.273-8.773-18.722-6.42s-20.535 3.578-17.889 17.4 13.576 25.534 25.289 20.829c9.655-3.872 13.036-14.556 12.105-26.269" class="cls-2" data-name="Path 518" transform="translate(-515.344 -41.075)"/>
        <path id="Path_519" d="M989.865 54.4a9.711 9.711 0 0 1 19.359-1.568 5.535 5.535 0 0 1 0 1.274l20.584-1.666a12.247 12.247 0 0 1 13.184 11.223 9.58 9.58 0 0 1 4.656-1.715 9.39 9.39 0 1 1-8.381 11.517 11.962 11.962 0 0 1-7.548 3.382l-26.956 2.156a12.247 12.247 0 0 1-13.184-11.223 12.453 12.453 0 0 1 1.519-6.959 9.386 9.386 0 0 1-3.233-6.421z" class="cls-6" data-name="Path 519" transform="translate(-503.95 -21.67)"/>
        <path id="Path_520" d="M944.039 238.109a7.635 7.635 0 0 0 9.8-4.607l5.881-16.173a7.635 7.635 0 0 0-4.607-9.8 7.635 7.635 0 0 0-9.8 4.607l-5.881 16.173a7.694 7.694 0 0 0 4.607 9.8z" class="cls-6" data-name="Path 520" transform="translate(-478.022 -104.855)"/>
        <path id="Path_521" d="M950.939 235.509a7.635 7.635 0 0 0 9.8-4.607l5.881-16.173a7.635 7.635 0 0 0-4.607-9.8 7.635 7.635 0 0 0-9.8 4.607l-5.881 16.173a7.694 7.694 0 0 0 4.607 9.8z" class="cls-7" data-name="Path 521" transform="translate(-481.541 -103.529)"/>
        <path id="Path_522" d="M979.365 49.553a9.713 9.713 0 1 1 19.359-1.617 5.542 5.542 0 0 1 0 1.274l20.584-1.666a12.247 12.247 0 0 1 13.184 11.223 9.579 9.579 0 0 1 4.656-1.715 9.39 9.39 0 1 1-8.381 11.517 11.962 11.962 0 0 1-7.548 3.382l-26.955 2.156a12.247 12.247 0 0 1-13.184-11.223 12.452 12.452 0 0 1 1.519-6.959 9.369 9.369 0 0 1-3.234-6.372z" class="cls-7" data-name="Path 522" transform="translate(-498.597 -19.171)"/>
        <path id="Path_523" d="M1033.984 213.056l-20.29 20.29a5.384 5.384 0 0 0 0 7.548 5.384 5.384 0 0 0 7.548 0l20.29-20.29a5.384 5.384 0 0 0 0-7.548 5.3 5.3 0 0 0-7.548 0z" class="cls-2" data-name="Path 523" transform="translate(-515.331 -107.1)"/>
        <path id="Path_524" d="M952.137 243.555l29.8 10.831a5.307 5.307 0 0 0 6.812-3.186 5.307 5.307 0 0 0-3.186-6.812l-29.8-10.831a5.307 5.307 0 0 0-6.812 3.186 5.267 5.267 0 0 0 3.186 6.812z" class="cls-2" data-name="Path 524" transform="translate(-482.935 -118.192)"/>
        <circle id="Ellipse_293" cx="2.941" cy="2.941" r="2.941" class="cls-4" data-name="Ellipse 293" transform="translate(474.986 105.71)"/>
        <path id="Rectangle_370" d="M0 0h33.817v8.92H0z" class="cls-3" data-name="Rectangle 370" transform="rotate(180 201.379 72.552)"/>
        <path id="Path_525" d="M730.241 299.385h49.843a2.845 2.845 0 0 0 2.843-2.843 2.845 2.845 0 0 0-2.843-2.843h-49.843a2.845 2.845 0 0 0-2.843 2.843 2.784 2.784 0 0 0 2.843 2.843z" class="cls-3" data-name="Path 525" transform="translate(-370.135 -149.027)"/>
        <path id="Path_526" d="M856.088 281H870.3a3.075 3.075 0 0 0 3.088-3.088v-13.824A3.075 3.075 0 0 0 870.3 261h-14.212a3.075 3.075 0 0 0-3.088 3.088v13.821a3.075 3.075 0 0 0 3.088 3.091z" class="cls-3" data-name="Path 526" transform="translate(-434.18 -132.353)"/>
        <path id="Path_527" d="M877.362 284.361h25.191a1.862 1.862 0 0 0 1.862-1.862v-13.037a1.862 1.862 0 0 0-1.862-1.862h-25.191a1.862 1.862 0 0 0-1.862 1.862V282.5a1.862 1.862 0 0 0 1.862 1.861z" class="cls-3" data-name="Path 527" transform="translate(-445.653 -135.718)"/>
        <path id="Path_528" d="M712.983 230.366h67.977a5.794 5.794 0 0 0 5.783-5.783v-39.6a5.794 5.794 0 0 0-5.783-5.783h-67.977a5.794 5.794 0 0 0-5.783 5.783v39.551a5.8 5.8 0 0 0 5.783 5.832z" class="cls-3" data-name="Path 528" transform="translate(-359.836 -90.643)"/>
        <path id="Path_529" d="M705.883 230.366h67.977a5.794 5.794 0 0 0 5.783-5.783v-39.6a5.794 5.794 0 0 0-5.783-5.783h-67.977a5.794 5.794 0 0 0-5.783 5.783v39.551a5.8 5.8 0 0 0 5.783 5.832z" class="cls-3" data-name="Path 529" transform="translate(-356.216 -90.643)"/>
    </g>
</svg>
