<svg xmlns="http://www.w3.org/2000/svg" xmlns:xlink="http://www.w3.org/1999/xlink" viewBox="0 0 184 184.119">
  <defs>
    <style>
      .cls-1 {
        fill: url(#linear-gradient);
      }

      .cls-2 {
        fill: url(#linear-gradient-2);
      }

      .cls-3 {
        fill: #101219;
        stroke: #9f9f9f;
        stroke-miterlimit: 10;
      }

      .cls-4 {
        fill: #9f9f9f;
      }

      .cls-5 {
        filter: url(#Path_7);
      }
    </style>
    <linearGradient id="linear-gradient" x1="0.5" x2="0.5" y2="1" gradientUnits="objectBoundingBox">
      <stop offset="0" stop-color="#242931"/>
      <stop offset="1" stop-color="#1c1f27"/>
    </linearGradient>
    <filter id="Path_7" x="0" y="0" width="184" height="184.119" filterUnits="userSpaceOnUse">
      <feOffset dy="3" input="SourceAlpha"/>
      <feGaussianBlur stdDeviation="3" result="blur"/>
      <feFlood flood-opacity="0.161"/>
      <feComposite operator="in" in2="blur"/>
      <feComposite in="SourceGraphic"/>
    </filter>
    <linearGradient id="linear-gradient-2" x1="0.5" x2="0.5" y2="1" gradientUnits="objectBoundingBox">
      <stop offset="0" stop-color="#1d2029"/>
      <stop offset="1" stop-color="#070b14"/>
    </linearGradient>
  </defs>
  <g id="api" transform="translate(9 6)">
    <g class="cls-5" transform="matrix(1, 0, 0, 1, -9, -6)">
      <path id="Path_7-2" data-name="Path 7" class="cls-1" d="M166,97.821V68.179H144.183a59.18,59.18,0,0,0-7.233-17.9L152.364,34.86,131.377,13.873,116.319,28.931l-.119.119-.119-.119a61.994,61.994,0,0,0-18.26-7.589V0H68.179V21.343a61.994,61.994,0,0,0-18.26,7.589L34.741,13.873,13.873,34.741l15.3,15.3a64.084,64.084,0,0,0-7.351,18.141H0V97.821H22.054a62.9,62.9,0,0,0,7.47,17.667l-15.77,15.77,20.987,20.987L50.63,136.357a63.68,63.68,0,0,0,17.549,7.233v22.529H97.821V143.59a61.616,61.616,0,0,0,17.549-7.233l15.889,15.889,20.987-20.987-15.77-15.77a62.9,62.9,0,0,0,7.47-17.667H166Zm-52.646-5.336a27.047,27.047,0,0,1-2.371,5.336A32.419,32.419,0,0,1,97.7,110.746a30.278,30.278,0,0,1-5.691,2.371,32.607,32.607,0,0,1-18.26,0,30.278,30.278,0,0,1-5.691-2.371A33.169,33.169,0,0,1,54.78,97.821a30.52,30.52,0,0,1-2.371-5.336,31.513,31.513,0,0,1-1.66-10.079,32.668,32.668,0,0,1,1.3-9.13,26.832,26.832,0,0,1,2.016-5.1,31.321,31.321,0,0,1,13.873-14.11,23.755,23.755,0,0,1,4.743-2.016,31.426,31.426,0,0,1,20.157,0,28.513,28.513,0,0,1,4.743,2.016,31.321,31.321,0,0,1,13.873,14.11,37.984,37.984,0,0,1,2.016,5.1,32.668,32.668,0,0,1,1.3,9.13A26,26,0,0,1,113.354,92.486Z" transform="translate(9 6)"/>
    </g>
    <path id="Path_8" data-name="Path 8" class="cls-2" d="M131.5,13.873,116.319,28.931l-.119.119-.119-.119a61.994,61.994,0,0,0-18.26-7.589V0H68.179V21.343a61.994,61.994,0,0,0-18.26,7.589L34.741,13.873,13.873,34.741l15.3,15.3a64.084,64.084,0,0,0-7.351,18.141H0V97.821H22.054a62.9,62.9,0,0,0,7.47,17.667l-15.77,15.77,12.094,12.094,37.35-35.69a30.887,30.887,0,0,1-8.181-9.723A30.52,30.52,0,0,1,52.646,92.6a31.513,31.513,0,0,1-1.66-10.079,32.668,32.668,0,0,1,1.3-9.13,26.832,26.832,0,0,1,2.016-5.1,31.321,31.321,0,0,1,13.873-14.11,23.755,23.755,0,0,1,4.743-2.016,31.426,31.426,0,0,1,20.157,0,28.513,28.513,0,0,1,4.743,2.016,32.3,32.3,0,0,1,11.146,9.6l36.994-35.334Z"/>
    <circle id="Ellipse_132" data-name="Ellipse 132" class="cls-3" cx="3.557" cy="3.557" r="3.557" transform="translate(80.036 78.257)"/>
    <rect id="Rectangle_32" data-name="Rectangle 32" class="cls-4" width="36.757" height="1.186" transform="translate(85.454 78.01) rotate(-45)"/>
    <circle id="Ellipse_133" data-name="Ellipse 133" class="cls-3" cx="2.964" cy="2.964" r="2.964" transform="translate(108.967 49.444)"/>
    <rect id="Rectangle_33" data-name="Rectangle 33" class="cls-4" width="36.757" height="1.186" transform="translate(80.055 85.065) rotate(135)"/>
    <circle id="Ellipse_134" data-name="Ellipse 134" class="cls-3" cx="2.964" cy="2.964" r="2.964" transform="translate(49.444 108.967)"/>
    <rect id="Rectangle_34" data-name="Rectangle 34" class="cls-4" width="36.757" height="1.186" transform="translate(80.071 80.091) rotate(-135)"/>
    <circle id="Ellipse_135" data-name="Ellipse 135" class="cls-3" cx="2.964" cy="2.964" r="2.964" transform="translate(51.934 50.274)"/>
    <rect id="Rectangle_35" data-name="Rectangle 35" class="cls-4" width="36.757" height="1.186" transform="translate(86.276 84.653) rotate(45)"/>
    <circle id="Ellipse_136" data-name="Ellipse 136" class="cls-3" cx="2.964" cy="2.964" r="2.964" transform="translate(108.493 109.086)"/>
  </g>
</svg>
