<svg xmlns="http://www.w3.org/2000/svg" viewBox="0 0 397.947 344.472">
    <defs>
        <style>
            .cls-1,.cls-2{fill:#ff5010}.cls-1{opacity:.3}.cls-3{fill:#000f44}.cls-4{fill:#184c9e}.cls-5{fill:#3e6caf}.cls-6,.cls-7{fill:none;stroke-miterlimit:10}.cls-6{stroke:#008dd1}.cls-7{stroke:#ff5010}.cls-8,.cls-9{opacity:.2}.cls-9{fill:#fff}
        </style>
    </defs>
    <g id="contact" transform="translate(-.014 -.317)">
        <path id="Path_585" d="M397.3 233.4a150.721 150.721 0 0 1-6.9 28c-1.4 4.1-3 8.2-6 11.2-4.1 4.3-10.1 6-15.8 7.3a156.761 156.761 0 0 1-27.3 3.4c-7.3.2-14.7 0-21.6 2.3-14 4.8-22 18.8-32.1 29.7a10.948 10.948 0 0 0-1 1.1 80.31 80.31 0 0 1-22.6 16.1 105.254 105.254 0 0 1-17.2 6.6c-3.5 1-7 1.9-10.5 2.6-18.7 3.7-38 3.3-57 2.3a270.154 270.154 0 0 1-34.8-3.7 122.772 122.772 0 0 1-27.1-8.2C103 325.4 84.7 312.2 80 296c-2.1-7.4.7-13.8 0-21.3-.9-10.4-6.5-20.3-12.5-28.5-9.4-12.9-21.1-26.3-20.3-42.2a33.91 33.91 0 0 1 5.6-16.5 40.882 40.882 0 0 1 9.7-10.2 46.849 46.849 0 0 1 4-2.7c7.6-4.6 16.5-7.1 25.4-8.4 6.9-1 14.1-1.3 20.5-4.1 14.1-6.2 20.7-22.2 31.6-33.1 12.9-12.9 32.2-18.2 50.4-16.5 13.5 1.3 26.4 6.2 38.1 13.1a104.21 104.21 0 0 1 11.7 7.9c.1.1.2.1.2.2 7.5 5.7 15.8 12.4 25 10.7 4.2-.8 7.9-3.2 11.7-5.2 19-10 46.5-5.7 56.5 13.3 8.2 15.5 4.5 38 18.9 48.1 12.2 8.5 33 4.1 39.7 17.4 2.4 4.6 1.9 10.2 1.1 15.4z" class="cls-1" data-name="Path 585"/>
        <path id="Path_586" d="M68.7 216.2s-18-25.7-7.5-32.2c0 0 16-9.5 20.5-4.3 0 0 5.8 19.1 2 22 0 0-1.7 1 3 5.7" class="cls-2" data-name="Path 586"/>
        <path id="Path_587" d="M202.7 131.3l-29.2 16a27.581 27.581 0 0 0 .1-10.7c-1.5-8.8-6.5-15.3-9.5-18.6a14.319 14.319 0 0 0-2.3-2.2S194 74.6 203.3 85c0 0-6.3 35.3-.6 46.3z" class="cls-2" data-name="Path 587"/>
        <path id="Path_588" d="M126.5 63.7c7.4 34.8 28.2 91.3 78.9 21a25 25 0 0 0 2.3-3.9c5.5-11.8 25.1-63.9-63.3-44.8a23.362 23.362 0 0 0-17.9 27.7z" class="cls-2" data-name="Path 588"/>
        <path id="Path_589" d="M191.4 69.9s-7.2-19.2-2.7-30.7a42.408 42.408 0 0 0-35.8 16.7s-3.6-12.4-1.5-17.1c0 0-23.4 37-20.7 15.6 0 0 1.9-15.8 15.1-23.2 0 0-26.9 33.6-29.5 34.4 0 0-32.2 16.9-10.6-32.2 0 0 37.723-48.41 91.423-28.11 0 0 15.977 1.981 19.412 16.023 0 0 10.065 47.387-16.335 78.187 0-.1 14.4-54.3-8.8-29.6z" class="cls-3" data-name="Path 589"/>
        <path id="Path_590" d="M172.9 133.2s-29.7 11.6 2.5 20.7c0 0 49.3-15.9 47.1-23 0 0-6.4-18.4-49.6 2.3" class="cls-2" data-name="Path 590"/>
        <path id="Path_591" d="M288.2 286.2c-.1 1.8-.3 3.7-.5 5.5 0 0-.1 10.7 0 23.5-.3.4-.7.7-1 1.1a82.7 82.7 0 0 1-22.6 16.2c-2.7-23.4-6.4-57.8-6.4-67.7 0 0-24.1-55.9-25-60 0 0 3.8 107.3 14.2 134.4-3.5 1-7 1.9-10.5 2.6-18.7 3.7-38 3.3-57 2.3a270.154 270.154 0 0 1-34.8-3.7c.5-5.5 1.4-13.5 2.5-21.8 1.6-11.9 3.7-24.5 6.2-31.5 0 0-9.7-29.8-13-51.1a76 76 0 0 1-1-10.9q-.15 1.95-.6 4.5c0 .2-.1.5-.1.7-2.5 16-11.1 47.4-35 44 0 0-10.8-8.2-34.3-47.9 0 0-2-3.6-4.8-9.2l23-14.2c8.1 11.2 15.8 22.3 19 28.6 0 0 10.4-41.1 16.7-59.8 0 0 12.2-26.7 42.1-34.3 0 0 8.6 35.8 45.9-13.4a3.224 3.224 0 0 1 .6-.2c2.2-.7 10.3-2.7 20.7 2.1a43.7 43.7 0 0 1 12 8.1c8.4 7.7 17.3 20.5 25.2 41.5 0-.4 23 52.7 18.5 110.6z" class="cls-3" data-name="Path 591"/>
        <path id="Path_592" d="M93.8 193.1l-17 11.2a5.314 5.314 0 0 1-7.1-1.2l-34.2-43.5a5.311 5.311 0 0 1 1.2-7.7l20.6-14a5.247 5.247 0 0 1 7.4 1.5l30.6 46.3a5.4 5.4 0 0 1-1.5 7.4z" class="cls-4" data-name="Path 592"/>
        <path id="Path_593" d="M88.1 182.4l-19.4 12.8L40 159.1l22.7-15.4z" class="cls-5" data-name="Path 593"/>
        <circle id="Ellipse_310" cx="2.3" cy="2.3" r="2.3" class="cls-5" data-name="Ellipse 310" transform="translate(80.5 190.6)"/>
        <path id="Path_594" d="M62.8 197.1s1.6-7.5 7.9-10c0 0 11.7-1.2-5.4 12.2" class="cls-2" data-name="Path 594"/>
        <path id="Path_595" d="M26.5 142.7a18.533 18.533 0 0 0-3.8 4.1 9.084 9.084 0 0 0-1.5 5.3" class="cls-6" data-name="Path 595"/>
        <path id="Path_596" d="M23.1 134.3a24.6 24.6 0 0 0-11 18.3" class="cls-6" data-name="Path 596"/>
        <path id="Path_597" d="M21.4 123.7c-4.2 2.6-7.6 6.2-10.8 9.9a50.523 50.523 0 0 0-7.4 11 25.172 25.172 0 0 0-2.6 12.9" class="cls-6" data-name="Path 597"/>
        <path id="Path_598" d="M6.3 191.8c.6.4.8 1.5 1.5 1.6s1.2-.9 1.9-1.1a1.142 1.142 0 0 1 1.3.5c.3.6.1 1.5.8 1.8.4.2.8-.1 1.1-.4s.6-.7 1-.7a1.05 1.05 0 0 1 .9.5 1.376 1.376 0 0 1 .1 1.1" class="cls-6" data-name="Path 598"/>
        <path id="Path_599" d="M25.5 162.1c-.5.6-1.6.6-1.8 1.4-.2.7.8 1.2 1 2a1.02 1.02 0 0 1-.6 1.2c-.6.3-1.5 0-1.8.6-.2.4.1.8.3 1.1a1.738 1.738 0 0 1 .6 1.1 1.149 1.149 0 0 1-.6.9 1.4 1.4 0 0 1-1.1 0" class="cls-7" data-name="Path 599"/>
        <path id="Path_600" d="M76.2 132c.7.4.9 1.5 1.7 1.5.7 0 1.1-.9 1.8-1.2a1.134 1.134 0 0 1 1.3.4c.4.6.2 1.5.9 1.7a1.274 1.274 0 0 0 1.1-.5c.3-.3.6-.7 1-.8a.874.874 0 0 1 .9.5 1.978 1.978 0 0 1 .2 1.1" class="cls-7" data-name="Path 600"/>
        <path id="Path_601" d="M42.4 117.7c-.1.8-1.1 1.3-.9 2.1.2.7 1.3.7 1.8 1.3a1.049 1.049 0 0 1 0 1.3c-.4.5-1.3.7-1.3 1.4 0 .4.4.7.8.9s.8.3 1 .7a.9.9 0 0 1-.1 1 1.6 1.6 0 0 1-1 .5" class="cls-7" data-name="Path 601"/>
        <path id="Path_602" d="M181.1 110.3s-4.9 26.8-4.9 30.9c0 1-1-1.2-2.5-4.5-1.5-8.8-6.5-15.3-9.5-18.6a61.343 61.343 0 0 0 16.9-7.8z" class="cls-8" data-name="Path 602"/>
        <path id="Path_603" d="M288.2 286.2c-8.6-111.2-70-158-76.5-162.6 2.2-.7 10.3-2.7 20.7 2.1a43.7 43.7 0 0 1 12 8.1c8.4 7.7 17.3 20.5 25.2 41.5.1-.1 23.1 53 18.6 110.9z" class="cls-8" data-name="Path 603"/>
        <path id="Path_604" d="M138.3 227.4c.1.6.2 1.2.3 2 0 .2-.1.5-.1.7-.1-1.1-.1-2.1-.2-2.7z" class="cls-9" data-name="Path 604"/>
        <path id="Path_605" d="M157.2 286.2c-2.1.7-7.3 20.4-10.2 32.2 1.6-11.9 3.7-24.5 6.2-31.5 0 0-9.7-29.8-13-51.1 4.9 17.3 17 50.4 17 50.4z" class="cls-8" data-name="Path 605"/>
    </g>
</svg>
