<svg xmlns="http://www.w3.org/2000/svg" id="cross-platform" viewBox="0 0 129.583 80.574">
    <defs>
        <style>
            .cls-1{fill:#d5f7e8}.cls-2,.cls-3{fill:none;stroke:#5a6977;stroke-linecap:round;stroke-miterlimit:10;stroke-width:3px}.cls-3{fill:#fff}.cls-4{fill:#21cf93}.cls-5{fill:#5a6977}
        </style>
    </defs>
    <path id="Rectangle_366" d="M0 0h49.009v46.869H0z" class="cls-1" data-name="Rectangle 366" transform="translate(11.907 11.907)"/>
    <path id="Path_325" d="M140.857 41.5v36.167a4.631 4.631 0 0 1-4.65 4.65H76.2" class="cls-2" data-name="Path 325" transform="translate(-19.564 -10.476)"/>
    <path id="Path_326" d="M47.2 1.5h81.338a4.631 4.631 0 0 1 4.65 4.65v19.929" class="cls-2" data-name="Path 326" transform="translate(-11.969)"/>
    <path id="Line_25" d="M0 0h2.657" class="cls-2" data-name="Line 25" transform="translate(29.548 1.5)"/>
    <path id="Path_327" d="M51.026 71.84H6.15a4.631 4.631 0 0 1-4.65-4.65V6.15A4.631 4.631 0 0 1 6.15 1.5h17.271" class="cls-2" data-name="Path 327"/>
    <path id="Path_328" d="M109 40.1h32.033a5.922 5.922 0 0 1 5.9 5.9v35.5a5.922 5.922 0 0 1-5.9 5.9H79.4a5.922 5.922 0 0 1-5.9-5.9V46a5.922 5.922 0 0 1 5.9-5.9h20.667" class="cls-3" data-name="Path 328" transform="translate(-18.857 -10.11)"/>
    <circle id="Ellipse_282" cx="2.362" cy="2.362" r="2.362" class="cls-4" data-name="Ellipse 282" transform="translate(58.85 51.395)"/>
    <path id="Rectangle_367" d="M0 0h28.786v46.352H0z" class="cls-4" data-name="Rectangle 367" transform="translate(88.816 23.2)"/>
    <path id="Path_329" d="M140.15 84.657h-23.693A2.646 2.646 0 0 1 113.8 82h29.081a2.759 2.759 0 0 1-2.731 2.657z" class="cls-5" data-name="Path 329" transform="translate(-29.412 -21.083)"/>
    <path id="Path_330" d="M138.04 70.252h-18.969a4.867 4.867 0 0 1-4.871-4.871v-36.61a4.867 4.867 0 0 1 4.871-4.871h18.969a4.867 4.867 0 0 1 4.871 4.871v36.61a4.867 4.867 0 0 1-4.871 4.871z" class="cls-2" data-name="Path 330" transform="translate(-29.517 -5.867)"/>
    <path id="Path_331" d="M137.024 25.824h-10.112a.819.819 0 0 1-.812-.812.819.819 0 0 1 .812-.812h10.112a.819.819 0 0 1 .812.812.872.872 0 0 1-.812.812z" class="cls-5" data-name="Path 331" transform="translate(-32.634 -5.945)"/>
    <path id="Line_26" d="M0 0h34.69" class="cls-2" data-name="Line 26" transform="translate(13.457 79.074)"/>
</svg>
