<svg xmlns="http://www.w3.org/2000/svg" viewBox="0 0 829 1086.373">
    <defs>
        <style>
            .cls-1{fill:#fff9af;opacity:.803}.cls-2{fill:#d77373}.cls-12,.cls-3,.cls-8{fill:#fff}.cls-4{fill:#e2c66d}.cls-5{fill:#d8cbcb}.cls-12,.cls-6{opacity:.2}.cls-7{fill:#2c424c}.cls-8{font-size:69px;font-family:ArialRoundedMTBold,Arial Rounded MT Bold}.cls-9{fill:#acd8ef}.cls-10{fill:#5dd87d}.cls-11{fill:#ffff97}.cls-13,.cls-14{fill:none}.cls-13,.cls-14,.cls-15{stroke:#d77373;stroke-width:10px;stroke-miterlimit:10}.cls-14,.cls-15{stroke:#d1d2d3;stroke-width:3px}.cls-15{fill:#ccc;stroke:#fff}
        </style>
    </defs>
    <g id="illustration-4" transform="translate(25.668 259.245)">
        <rect id="Rectangle_411" width="829" height="1086.373" class="cls-1" data-name="Rectangle 411" rx="10" transform="translate(-25.668 -259.245)"/>
        <path id="Path_730" d="M131.676 170.465H22.561A11.269 11.269 0 0 1 11.3 159.2V26.661A11.269 11.269 0 0 1 22.561 15.4h109.115a11.269 11.269 0 0 1 11.261 11.261v132.414a11.38 11.38 0 0 1-11.261 11.39z" class="cls-2" data-name="Path 730" transform="translate(59.8 34.798)"/>
        <path id="Path_731" d="M113.729 149.312H32.961A11.269 11.269 0 0 1 21.7 138.051v-98.89A11.269 11.269 0 0 1 32.961 27.9H113.6a11.269 11.269 0 0 1 11.261 11.261v98.89a11.078 11.078 0 0 1-11.132 11.261z" class="cls-3" data-name="Path 731" transform="translate(62.862 38.308)"/>
        <path id="Path_732" d="M92.311 34.615h-47.5a7.513 7.513 0 0 1-7.511-7.508 7.513 7.513 0 0 1 7.507-7.507h47.5a7.513 7.513 0 0 1 7.507 7.507 7.513 7.513 0 0 1-7.503 7.508z" class="cls-4" data-name="Path 732" transform="translate(67.454 36.967)"/>
        <path id="Path_733" d="M86.985 27.829H44.4V8.025A8.065 8.065 0 0 1 52.425 0H78.96a8.065 8.065 0 0 1 8.025 8.025z" class="cls-4" data-name="Path 733" transform="translate(69.544 31.759)"/>
        <path id="Path_734" d="M103.7 64.19H37.3a3.48 3.48 0 0 1-3.5-3.495 3.48 3.48 0 0 1 3.495-3.495h66.4a3.592 3.592 0 0 1 3.624 3.495 3.68 3.68 0 0 1-3.619 3.495z" class="cls-5" data-name="Path 734" transform="translate(66.423 46.872)"/>
        <path id="Path_735" d="M103.025 79.219h-66.4A3.618 3.618 0 0 1 33 75.595a3.511 3.511 0 0 1 3.624-3.495h66.4a3.48 3.48 0 0 1 3.495 3.495 3.592 3.592 0 0 1-3.494 3.624z" class="cls-5" data-name="Path 735" transform="translate(66.188 50.775)"/>
        <path id="Path_736" d="M103.7 94.119H37.3a3.511 3.511 0 0 1-3.5-3.624A3.48 3.48 0 0 1 37.295 87h66.4a3.592 3.592 0 0 1 3.624 3.495 3.7 3.7 0 0 1-3.619 3.624z" class="cls-5" data-name="Path 736" transform="translate(66.423 54.679)"/>
        <path id="Path_737" d="M335.527 72.833V157.1a14.473 14.473 0 0 1-14.5 14.5H209.2a14.3 14.3 0 0 1-13.332-8.931 15.826 15.826 0 0 1-1.168-5.569V72.833a8.823 8.823 0 0 1 2.848-6.472l60.059-55.4a10.8 10.8 0 0 1 14.756 0l60.059 55.4a8.027 8.027 0 0 1 3.105 6.472z" class="cls-2" data-name="Path 737" transform="translate(113.787 32.842)"/>
        <path id="Path_738" d="M309.02 141.857h-93.453A12.153 12.153 0 0 1 203.4 129.69V42.967A12.153 12.153 0 0 1 215.567 30.8h93.453a12.153 12.153 0 0 1 12.167 12.167v86.723a12.153 12.153 0 0 1-12.167 12.167z" class="cls-3" data-name="Path 738" transform="translate(116.348 39.146)"/>
        <path id="Path_739" d="M295.5 79.554h-74.423a3.011 3.011 0 0 1-2.977-2.977 3.011 3.011 0 0 1 2.977-2.977H295.5a3.011 3.011 0 0 1 2.977 2.977 3.1 3.1 0 0 1-2.977 2.977z" class="cls-5" data-name="Path 739" transform="translate(120.675 51.178)"/>
        <path id="Path_740" d="M194.8 58.1v84.263a14.473 14.473 0 0 0 14.5 14.5h111.83a14.294 14.294 0 0 0 13.332-8.931z" class="cls-2" data-name="Path 740" transform="translate(113.816 46.31)"/>
        <path id="Path_741" d="M194.8 58.1v84.263a14.473 14.473 0 0 0 14.5 14.5h111.83a14.294 14.294 0 0 0 13.332-8.931z" class="cls-6" data-name="Path 741" transform="translate(113.816 46.31)"/>
        <path id="Path_742" d="M335.262 58.1v84.263a14.473 14.473 0 0 1-14.5 14.5h-111.83a14.3 14.3 0 0 1-13.332-8.931z" class="cls-2" data-name="Path 742" transform="translate(114.052 46.31)"/>
        <path id="Path_743" d="M295.4 58.254h-74.423A3.011 3.011 0 0 1 218 55.277a3.011 3.011 0 0 1 2.977-2.977H295.4a3.011 3.011 0 0 1 2.977 2.977 3.1 3.1 0 0 1-2.977 2.977z" class="cls-5" data-name="Path 743" transform="translate(120.646 45.596)"/>
        <path id="Path_744" d="M295.5 68.954h-74.423a3.011 3.011 0 0 1-2.977-2.977A3.011 3.011 0 0 1 221.077 63H295.5a3.011 3.011 0 0 1 2.977 2.977 3.1 3.1 0 0 1-2.977 2.977z" class="cls-5" data-name="Path 744" transform="translate(120.675 48.4)"/>
        <path id="Path_745" d="M526.586 163.042h-124.13a16.931 16.931 0 0 1-16.956-16.956v-92.03A16.931 16.931 0 0 1 402.456 37.1h124.13a16.931 16.931 0 0 1 16.956 16.956v92.029a17.1 17.1 0 0 1-16.956 16.957z" class="cls-2" data-name="Path 745" transform="translate(169.952 40.635)"/>
        <path id="Path_746" d="M467.331 50.769a6.685 6.685 0 0 1-6.731-6.731v-7.507a6.685 6.685 0 0 1 6.731-6.731 6.685 6.685 0 0 1 6.731 6.731v7.507a6.685 6.685 0 0 1-6.731 6.731z" class="cls-7" data-name="Path 746" transform="translate(192.059 39.595)"/>
        <path id="Path_747" d="M428.731 51A6.685 6.685 0 0 1 422 44.274v-8.543A6.685 6.685 0 0 1 428.731 29a6.685 6.685 0 0 1 6.731 6.731v8.543A6.853 6.853 0 0 1 428.731 51z" class="cls-7" data-name="Path 747" transform="translate(180.696 39.378)"/>
        <path id="Rectangle_403" d="M0 0h157.913v31.453H0z" class="cls-3" data-name="Rectangle 403" transform="translate(555.452 92.651)"/>
        <g id="Group_214" data-name="Group 214" transform="translate(593.168 117.814)">
            <text id="_20" class="cls-8" data-name="20" transform="translate(0 65)">
                <tspan x="0" y="0">20</tspan>
            </text>
        </g>
        <path id="Path_748" d="M166.2 324.405l-128.789 34.56a14.8 14.8 0 0 1-18.251-10.484L.522 279.232a14.8 14.8 0 0 1 10.484-18.251L139.8 226.422a14.8 14.8 0 0 1 18.251 10.484l18.639 69.119a14.99 14.99 0 0 1-10.49 18.38z" class="cls-2" data-name="Path 748" transform="translate(56.47 89.085)"/>
        <path id="Path_749" d="M158.24 296.518a13.4 13.4 0 0 1-2.2 11.52 14.327 14.327 0 0 1-7.378 5.048l-46.6 12.555L63.622 336l-21.745 5.825a13.231 13.231 0 0 1-6.731.129 13.627 13.627 0 0 1-9.837-9.578l-13.2-49.963a13.493 13.493 0 0 1 9.578-16.568l106.783-28.738a13.493 13.493 0 0 1 16.568 9.578z" class="cls-9" data-name="Path 749" transform="translate(59.9 92.352)"/>
        <path id="Path_750" d="M96.819 310.8l-38.443 10.35-21.745 5.825a13.231 13.231 0 0 1-6.731.129l27.57-37.666a5.632 5.632 0 0 1 7.9-1.294l7.378 5.307z" class="cls-10" data-name="Path 750" transform="translate(65.275 106.561)"/>
        <path id="Path_751" d="M96.819 310.8l-38.443 10.35-21.745 5.825a13.231 13.231 0 0 1-6.731.129l27.57-37.666a5.632 5.632 0 0 1 7.9-1.294l7.378 5.307z" class="cls-6" data-name="Path 751" transform="translate(65.275 106.561)"/>
        <path id="Path_752" d="M144.318 299.784a14.327 14.327 0 0 1-7.378 5.048l-46.6 12.555-38.44 10.356 14.367-27.829 16.438-31.841a6.245 6.245 0 0 1 9.061-2.33z" class="cls-10" data-name="Path 752" transform="translate(71.751 100.347)"/>
        <ellipse id="Ellipse_342" cx="7.637" cy="7.637" class="cls-11" data-name="Ellipse 342" rx="7.637" ry="7.637" transform="translate(93.104 369.729)"/>
        <path id="Path_753" d="M63.474 274.81a6 6 0 0 0-7.248-4.271 5.715 5.715 0 0 0-3.624 2.848 4.658 4.658 0 0 0-2.977-.129 5.866 5.866 0 0 0-2.459 1.424 7.064 7.064 0 0 0-7.766-3.236 6.993 6.993 0 0 0-5.048 8.543 2.85 2.85 0 0 0-1.035.129 4.118 4.118 0 0 0-2.977 5.177 4.375 4.375 0 0 0 .777 1.553 5.323 5.323 0 0 0 6.342 3.754l21.228-5.566a5.155 5.155 0 0 0 3.883-5.307 6.565 6.565 0 0 0 .904-4.919zm-24.722 10.1h-.129v-.129z" class="cls-3" data-name="Path 753" transform="translate(65.355 102.523)"/>
        <path id="Path_754" d="M101.856 252.007a3.7 3.7 0 0 0-4.4-2.589 4.074 4.074 0 0 0-2.2 1.683 2.844 2.844 0 0 0-1.812-.129 3.351 3.351 0 0 0-1.424.906 4.181 4.181 0 0 0-7.637 3.236 1.167 1.167 0 0 0-.647.129 2.457 2.457 0 0 0-1.812 3.106 6.312 6.312 0 0 0 .388.906 3.1 3.1 0 0 0 3.754 2.2l12.814-3.365a3.094 3.094 0 0 0 2.33-3.236 3.2 3.2 0 0 0 .646-2.847zM87.1 258.091c-.129 0-.129-.129 0 0-.129-.13-.129 0 0 0z" class="cls-3" data-name="Path 754" transform="translate(80.56 97.142)"/>
        <path id="Path_755" d="M165.353 368.449l-133.32 1.035a14.806 14.806 0 0 1-15.015-14.756l-.518-71.577a14.806 14.806 0 0 1 14.756-15.015l133.32-1.035a14.806 14.806 0 0 1 15.015 14.756l.518 71.578a14.886 14.886 0 0 1-14.756 15.014z" class="cls-2" data-name="Path 755" transform="translate(61.33 100.28)"/>
        <path id="Path_756" d="M164.409 340.907a13.508 13.508 0 0 1-13.462 13.593l-48.28.388-39.866.259-22.522.129a12.859 12.859 0 0 1-6.6-1.683 13.561 13.561 0 0 1-6.99-11.779L26.3 290.3a13.453 13.453 0 0 1 13.332-13.591l110.539-.906a13.453 13.453 0 0 1 13.591 13.332z" class="cls-9" data-name="Path 756" transform="translate(64.216 102.95)"/>
        <path id="Path_757" d="M101.09 344.2l-39.866.259-22.522.129a12.859 12.859 0 0 1-6.6-1.683l36.242-29.512a5.733 5.733 0 0 1 8.025.777l5.825 6.99z" class="cls-10" data-name="Path 757" transform="translate(65.923 113.232)"/>
        <path id="Path_758" d="M101.09 344.2l-39.866.259-22.522.129a12.859 12.859 0 0 1-6.6-1.683l36.242-29.512a5.733 5.733 0 0 1 8.025.777l5.825 6.99z" class="cls-6" data-name="Path 758" transform="translate(65.923 113.232)"/>
        <path id="Path_759" d="M151.06 345.284a13.576 13.576 0 0 1-8.413 2.977l-48.28.388-39.866.259 20.969-23.169 23.946-26.664a6.245 6.245 0 0 1 9.319 0z" class="cls-10" data-name="Path 759" transform="translate(72.517 108.947)"/>
        <ellipse id="Ellipse_343" cx="7.637" cy="7.637" class="cls-11" data-name="Ellipse 343" rx="7.637" ry="7.637" transform="translate(110.319 395.848)"/>
        <path id="Path_760" d="M76.418 302.019a5.938 5.938 0 0 0-5.954-5.954 5.869 5.869 0 0 0-4.271 1.812 5.31 5.31 0 0 0-2.848-.906 4.785 4.785 0 0 0-2.718.777 7 7 0 0 0-13.72 1.942 2.85 2.85 0 0 0-1.035-.129 4.309 4.309 0 0 0-4.271 4.271 3.583 3.583 0 0 0 .388 1.683 5.193 5.193 0 0 0 5.177 5.177h22a5.146 5.146 0 0 0 5.048-4.142 6.114 6.114 0 0 0 2.204-4.531zm-26.535 3.495h-.129v-.129a.127.127 0 0 1 .13.129z" class="cls-3" data-name="Path 760" transform="translate(68.719 108.403)"/>
        <path id="Path_761" d="M118.969 289.866a3.48 3.48 0 0 0-3.495-3.495 3.614 3.614 0 0 0-2.589 1.035 2.993 2.993 0 0 0-3.365 0 4.157 4.157 0 0 0-4.013-3.106 4.309 4.309 0 0 0-4.271 4.271c-.259 0-.388-.129-.647-.129A2.6 2.6 0 0 0 98 291.031a3.047 3.047 0 0 0 .259 1.035 3.15 3.15 0 0 0 3.106 3.106h13.2a3.19 3.19 0 0 0 3.106-2.459 3.921 3.921 0 0 0 1.298-2.847zm-15.921 2.2z" class="cls-3" data-name="Path 761" transform="translate(85.322 106.318)"/>
        <path id="Path_762" d="M344.958 386.789H244.386A17.069 17.069 0 0 1 227.3 369.7V245.186a17.069 17.069 0 0 1 17.086-17.086h100.572a17.069 17.069 0 0 1 17.086 17.086V369.7a17.069 17.069 0 0 1-17.086 17.089z" class="cls-6" data-name="Path 762" transform="translate(123.383 89.183)"/>
        <path id="Path_763" d="M344.958 381.789H244.386A17.069 17.069 0 0 1 227.3 364.7V240.186a17.069 17.069 0 0 1 17.086-17.086h100.572a17.069 17.069 0 0 1 17.086 17.086V364.7a17.069 17.069 0 0 1-17.086 17.089z" class="cls-3" data-name="Path 763" transform="translate(123.383 87.904)"/>
        <path id="Path_764" d="M333.665 258.948h-87.24a3.618 3.618 0 0 1-3.624-3.624 3.618 3.618 0 0 1 3.624-3.624h87.24a3.618 3.618 0 0 1 3.624 3.624 3.539 3.539 0 0 1-3.624 3.624z" class="cls-5" data-name="Path 764" transform="translate(127.946 97.833)"/>
        <path id="Path_765" d="M332.765 278.448h-87.24a3.618 3.618 0 0 1-3.624-3.624 3.618 3.618 0 0 1 3.624-3.624h87.24a3.618 3.618 0 0 1 3.624 3.624 3.7 3.7 0 0 1-3.624 3.624z" class="cls-5" data-name="Path 765" transform="translate(127.681 102.942)"/>
        <path id="Path_766" d="M332.765 297.848h-87.24a3.618 3.618 0 0 1-3.624-3.624 3.618 3.618 0 0 1 3.624-3.624h87.24a3.618 3.618 0 0 1 3.624 3.624 3.618 3.618 0 0 1-3.624 3.624z" class="cls-5" data-name="Path 766" transform="translate(127.681 108.025)"/>
        <path id="Path_767" d="M332.765 316.348h-87.24a3.618 3.618 0 0 1-3.624-3.624 3.618 3.618 0 0 1 3.624-3.624h87.24a3.618 3.618 0 0 1 3.624 3.624 3.7 3.7 0 0 1-3.624 3.624z" class="cls-5" data-name="Path 767" transform="translate(127.681 112.873)"/>
        <circle id="Ellipse_344" cx="38.831" cy="38.831" r="38.831" class="cls-12" data-name="Ellipse 344" transform="translate(372.04 370.848)"/>
        <circle id="Ellipse_345" cx="38.831" cy="38.831" r="38.831" class="cls-13" data-name="Ellipse 345" transform="translate(372.04 370.848)"/>
        <path id="Path_768" d="M222.4 366.468a8.629 8.629 0 0 1-1.036-12.167L252.3 317.8a8.629 8.629 0 0 1 12.167-1.035 8.629 8.629 0 0 1 1.035 12.167l-30.935 36.5a8.629 8.629 0 0 1-12.167 1.036z" class="cls-2" data-name="Path 768" transform="translate(121.035 113.532)"/>
        <path id="Path_769" d="M418.162 251.373H402.5v-8.155a4.916 4.916 0 0 1 4.919-4.919h5.825a4.916 4.916 0 0 1 4.919 4.919v8.155z" class="cls-2" data-name="Path 769" transform="translate(174.956 94.239)"/>
        <path id="Path_770" d="M521.438 358.61H411.417a28.2 28.2 0 0 1-28.217-28.217v-56.176A28.2 28.2 0 0 1 411.417 246h110.021a28.2 28.2 0 0 1 28.217 28.217v56.175a28.367 28.367 0 0 1-28.217 28.218z" class="cls-2" data-name="Path 770" transform="translate(169.275 94.645)"/>
        <path id="Rectangle_404" d="M0 0h166.456v42.196H0z" class="cls-9" data-name="Rectangle 404" transform="translate(552.475 377.501)"/>
        <path id="Rectangle_405" d="M0 0h166.456v30.806H0z" class="cls-3" data-name="Rectangle 405" transform="translate(552.475 383.361)"/>
        <circle id="Ellipse_346" cx="31.583" cy="31.583" r="31.583" class="cls-7" data-name="Ellipse 346" transform="translate(604.12 365.556)"/>
        <circle id="Ellipse_347" cx="31.583" cy="31.583" r="31.583" class="cls-14" data-name="Ellipse 347" transform="translate(604.12 365.556)"/>
        <path id="Path_771" d="M495.981 273.479h-16.439a6.353 6.353 0 0 1-6.342-6.342v-1.294a6.353 6.353 0 0 1 6.342-6.342h16.438a6.353 6.353 0 0 1 6.342 6.342v1.294a6.353 6.353 0 0 1-6.341 6.342z" class="cls-4" data-name="Path 771" transform="translate(195.768 99.776)"/>
        <path id="Path_772" d="M481.681 249.974H429v-8.931a8.619 8.619 0 0 1 8.543-8.543h35.6a8.619 8.619 0 0 1 8.543 8.543z" class="cls-2" data-name="Path 772" transform="translate(182.757 92.659)"/>
        <path id="Rectangle_406" d="M0 0h52.681v3.495H0z" class="cls-6" data-name="Rectangle 406" transform="translate(611.757 339.111)"/>
        <path id="Rectangle_407" d="M0 0h15.662v3.495H0z" class="cls-6" data-name="Rectangle 407" transform="translate(577.586 339.111)"/>
        <circle id="Ellipse_348" cx="12.167" cy="12.167" r="12.167" class="cls-15" data-name="Ellipse 348" transform="translate(623.536 385.105)"/>
        <path id="Rectangle_408" d="M0 0h157.913v9.578H0z" class="cls-6" data-name="Rectangle 408" transform="translate(555.452 114.147)"/>
        <circle id="Ellipse_349" cx="8.413" cy="8.413" r="8.413" class="cls-12" data-name="Ellipse 349" transform="translate(424.333 178.938)"/>
        <circle id="Ellipse_350" cx="3.624" cy="3.624" r="3.624" class="cls-12" data-name="Ellipse 350" transform="translate(415.402 172.471)"/>
        <circle id="Ellipse_351" cx="5.566" cy="5.566" r="5.566" class="cls-6" data-name="Ellipse 351" transform="translate(91.163 75.016)"/>
        <ellipse id="Ellipse_352" cx="2.977" cy="2.977" class="cls-6" data-name="Ellipse 352" rx="2.977" ry="2.977" transform="translate(99.317 87.168)"/>
        <circle id="Ellipse_353" cx="3.624" cy="3.624" r="3.624" class="cls-12" data-name="Ellipse 353" transform="translate(346.93 471.318)"/>
        <circle id="Ellipse_354" cx="1.812" cy="1.812" r="1.812" class="cls-12" data-name="Ellipse 354" transform="translate(354.696 468.226)"/>
        <circle id="Ellipse_355" cx="8.025" cy="8.025" r="8.025" class="cls-12" data-name="Ellipse 355" transform="translate(566.454 351.423)"/>
        <circle id="Ellipse_356" cx="3.624" cy="3.624" r="3.624" class="cls-12" data-name="Ellipse 356" transform="translate(577.974 367.832)"/>
        <circle id="Ellipse_357" cx="8.284" cy="8.284" r="8.284" class="cls-12" data-name="Ellipse 357" transform="translate(565.936 179.067)"/>
        <ellipse id="Ellipse_358" cx="3.495" cy="3.495" class="cls-12" data-name="Ellipse 358" rx="3.495" ry="3.495" transform="translate(574.22 168.688)"/>
        <path id="Path_773" d="M139.914 340.65c-2.071 2.848-7.766 3.624-9.578 2.33-1.942-1.294 1.294-3.754 3.495-6.731 2.071-2.848 4.66-4.66 6.6-3.236 1.813 1.165 1.554 4.66-.517 7.637z" class="cls-12" data-name="Path 773" transform="translate(94.665 118.942)"/>
        <ellipse id="Ellipse_359" cx="1.942" cy="2.2" class="cls-12" data-name="Ellipse 359" rx="1.942" ry="2.2" transform="translate(234.19 445.495)"/>
    </g>
</svg>
