<svg xmlns="http://www.w3.org/2000/svg" id="illustration" viewBox="0 0 438 183.566">
    <defs>
        <style>
            .cls-1{fill:#309de8}.cls-2{fill:#ffefef}.cls-2,.cls-3,.cls-4,.cls-6,.cls-7{stroke:#5a6977;stroke-linecap:round;stroke-linejoin:round;stroke-miterlimit:10;stroke-width:3px}.cls-3{fill:#e8e8e8}.cls-4{fill:#fff}.cls-5{fill:#7ae3b7}.cls-6{fill:none}.cls-7{fill:#bfe5ef}.cls-8{fill:#5a6977}
        </style>
    </defs>
    <path id="Path_57" d="M158.189 156.907a4.466 4.466 0 0 0 1.4 6.185l19.484 12.369a4.466 4.466 0 0 0 6.185-1.4 4.466 4.466 0 0 0-1.4-6.185l-19.484-12.369a4.507 4.507 0 0 0-6.185 1.4z" class="cls-2" data-name="Path 57" transform="translate(-83.449 -82.028)"/>
    <path id="Path_58" d="M93.859 224.772h13.16a5.58 5.58 0 1 0 0-11.16H78.56V166.18a5.58 5.58 0 1 0-11.16 0v53.012a5.557 5.557 0 0 0 5.58 5.58h13.625" class="cls-3" data-name="Path 58" transform="translate(-35.255 -85.116)"/>
    <path id="Path_59" d="M114.715 319.1h-11.393v-20.6h-7.255v20.6h-7.44a3.627 3.627 0 1 0 0 7.254h26.041a3.58 3.58 0 0 0 2.558-1.07 3.663 3.663 0 0 0 1.07-2.558 3.563 3.563 0 0 0-3.581-3.626z" class="cls-3" data-name="Path 59" transform="translate(-44.671 -158.89)"/>
    <circle id="Ellipse_255" cx="5.441" cy="5.441" r="5.441" class="cls-3" data-name="Ellipse 255" transform="translate(43.305 165.883)"/>
    <circle id="Ellipse_256" cx="5.441" cy="5.441" r="5.441" class="cls-3" data-name="Ellipse 256" transform="translate(60.929 165.883)"/>
    <path id="Path_60" d="M113.55 204.822a11.135 11.135 0 0 1-7.347-14l10.417-33.572a11.135 11.135 0 0 1 14-7.347 11.135 11.135 0 0 1 7.347 14l-10.416 33.574a11.135 11.135 0 0 1-14.001 7.345z" class="cls-4" data-name="Path 60" transform="translate(-55.737 -79.116)"/>
    <path id="Path_61" d="M151.5 145.021a3.452 3.452 0 0 1-1.256-4.743l4.046-6.975a3.452 3.452 0 0 1 4.743-1.256 3.452 3.452 0 0 1 1.256 4.743l-4.046 6.975a3.431 3.431 0 0 1-4.743 1.256z" class="cls-2" data-name="Path 61" transform="translate(-79.32 -69.583)"/>
    <path id="Path_62" d="M170.006 84.766c-4.464 12.6-16.508 22.088-26.831 15.95-9.858-5.859-10.556-19.019-6.045-31.621 4.464-12.6 7.208-7.347 18.554-3.3s18.786 6.322 14.322 18.971z" class="cls-2" data-name="Path 62" transform="translate(-71.131 -31.928)"/>
    <path id="Path_63" d="M180.2 47.857a9.254 9.254 0 1 0-18-4.325 10.863 10.863 0 0 0-.186 1.209l-19.159-4.511a11.685 11.685 0 0 0-14.044 8.649 8.832 8.832 0 0 0-4.139-2.279 8.933 8.933 0 1 0 6.278 12 11.545 11.545 0 0 0 6.6 4.278l25.111 5.952a11.685 11.685 0 0 0 14.043-8.649 11.435 11.435 0 0 0-.419-6.743 9.435 9.435 0 0 0 3.915-5.581z" class="cls-5" data-name="Path 63" transform="translate(-60.023 -18.689)"/>
    <path id="Path_64" d="M177.5 41.557a9.254 9.254 0 0 0-18-4.325 10.863 10.863 0 0 0-.186 1.209l-19.159-4.511a11.685 11.685 0 0 0-14.044 8.649 8.832 8.832 0 0 0-4.139-2.279 8.933 8.933 0 1 0 6.278 12 11.545 11.545 0 0 0 6.6 4.278l25.111 5.952a11.685 11.685 0 0 0 14.044-8.649 11.435 11.435 0 0 0-.419-6.743 9.243 9.243 0 0 0 3.914-5.581z" class="cls-6" data-name="Path 64" transform="translate(-58.578 -15.318)"/>
    <path id="Path_65" d="M134.691 170.368h-21.81l8.37-12.323a4.488 4.488 0 0 0-7.44-5.022l-12.974 19.112a4.141 4.141 0 0 0-.744 2.6v.093a4.465 4.465 0 0 0 4.464 4.464h30.133a4.464 4.464 0 0 0 0-8.928z" class="cls-2" data-name="Path 65" transform="translate(-52.743 -80.004)"/>
    <path id="Path_66" d="M188.693 259.108a.28.28 0 0 1 .046-.186.348.348 0 0 1 .047-.232v-.93a.28.28 0 0 0-.047-.186 2.012 2.012 0 0 0-.046-.232c0-.047-.047-.093-.047-.14-.047-.093-.047-.186-.093-.279a.162.162 0 0 0-.046-.093l-.14-.279c0-.047-.046-.047-.046-.093l-.14-.279c0-.047-.047-.047-.047-.093a.972.972 0 0 0-.186-.279c-.047-.047-.047-.093-.093-.093-.047-.093-.14-.14-.186-.233-.047-.047-.093-.093-.093-.139l-.186-.186-.139-.139c-.047-.047-.14-.093-.186-.186-.047-.047-.093-.093-.139-.093a1.017 1.017 0 0 0-.233-.139c-.047-.047-.093-.047-.14-.093a1.017 1.017 0 0 1-.233-.139c-.046 0-.093-.047-.14-.047l-.279-.139a.162.162 0 0 1-.093-.047.862.862 0 0 0-.326-.093h-.093a.689.689 0 0 0-.326-.047.171.171 0 0 1-.14-.046.59.59 0 0 1-.279-.047h-23.48a4.464 4.464 0 1 0 0 8.928h17.3l-9.533 35.992a4.478 4.478 0 0 0 8.649 2.325l11.02-41.619v-.093a1.183 1.183 0 0 0 .093-.326z" class="cls-7" data-name="Path 66" transform="translate(-83.029 -135.03)"/>
    <path id="Path_67" d="M188.693 259.108a.28.28 0 0 1 .046-.186.348.348 0 0 1 .047-.232v-.93a.28.28 0 0 0-.047-.186 2.012 2.012 0 0 0-.046-.232c0-.047-.047-.093-.047-.14-.047-.093-.047-.186-.093-.279a.162.162 0 0 0-.046-.093l-.14-.279c0-.047-.046-.047-.046-.093l-.14-.279c0-.047-.047-.047-.047-.093a.972.972 0 0 0-.186-.279c-.047-.047-.047-.093-.093-.093-.047-.093-.14-.14-.186-.233-.047-.047-.093-.093-.093-.139l-.186-.186-.139-.139c-.047-.047-.14-.093-.186-.186-.047-.047-.093-.093-.139-.093a1.017 1.017 0 0 0-.233-.139c-.047-.047-.093-.047-.14-.093a1.017 1.017 0 0 1-.233-.139c-.046 0-.093-.047-.14-.047l-.279-.139a.162.162 0 0 1-.093-.047.862.862 0 0 0-.326-.093h-.093a.689.689 0 0 0-.326-.047.171.171 0 0 1-.14-.046.59.59 0 0 1-.279-.047h-23.48a4.464 4.464 0 1 0 0 8.928h17.3l-9.533 35.992a4.478 4.478 0 0 0 8.649 2.325l11.02-41.619v-.093a1.183 1.183 0 0 0 .093-.326z" class="cls-6" data-name="Path 67" transform="translate(-83.029 -135.03)"/>
    <path id="Path_68" d="M159.294 296.024l-16.6-38.457a4.459 4.459 0 0 0-4.418-3.767h-23.112a4.464 4.464 0 1 0 0 8.928h20.042l15.9 36.829a4.457 4.457 0 0 0 8.184-3.534z" class="cls-7" data-name="Path 68" transform="translate(-58.42 -134.976)"/>
    <path id="Path_69" d="M110.3 184.639h61.289v-5.58l18.694-28.227a.157.157 0 0 0-.139-.233h-34.877a1.131 1.131 0 0 0-.93.512L137.6 179.059h-27.3" class="cls-3" data-name="Path 69" transform="translate(-58.206 -79.766)"/>
    <path id="Path_70" d="M158.176 151.112l-16.741 27.948H110v5.58h65.474v-5.58l18.694-28.227a.157.157 0 0 0-.139-.232h-34.923a1.072 1.072 0 0 0-.93.511z" class="cls-4" data-name="Path 70" transform="translate(-58.046 -79.766)"/>
    <path id="Path_71" d="M200.062 342.357a2.954 2.954 0 0 1 .465-4.139l10.742-8.556a2.954 2.954 0 0 1 4.139.465 2.954 2.954 0 0 1-.465 4.139l-10.743 8.556a2.954 2.954 0 0 1-4.138-.465z" class="cls-4" data-name="Path 71" transform="translate(-105.884 -175.218)"/>
    <path id="Path_72" d="M180.3 353.83a2.917 2.917 0 0 1 2.93-2.93h13.764a2.917 2.917 0 0 1 2.93 2.93 2.917 2.917 0 0 1-2.93 2.93H183.23a2.888 2.888 0 0 1-2.93-2.93z" class="cls-4" data-name="Path 72" transform="translate(-95.655 -186.923)"/>
    <path id="Path_73" d="M125.1 223.8H5.22a3.731 3.731 0 0 0-3.72 3.72v64.451a3.72 3.72 0 1 0 7.44 0V231.24h112.441v60.731a3.72 3.72 0 1 0 7.44 0V227.52a3.731 3.731 0 0 0-3.721-3.72z" class="cls-3" data-name="Path 73" transform="translate(0 -118.927)"/>
    <ellipse id="Ellipse_257" cx="3.999" cy="3.116" class="cls-5" data-name="Ellipse 257" rx="3.999" ry="3.116" transform="rotate(-30 216.174 -154.143)"/>
    <ellipse id="Ellipse_258" cx="3.999" cy="3.116" class="cls-6" data-name="Ellipse 258" rx="3.999" ry="3.116" transform="rotate(-30 213.176 -152.605)"/>
    <path id="Path_74" d="M513.6 223.43l-12.974-20.74a4.456 4.456 0 0 1 1.442-6.138l6.932-4.324a4.456 4.456 0 0 1 6.138 1.442l12.974 20.74a4.456 4.456 0 0 1-1.442 6.138l-6.929 4.325a4.507 4.507 0 0 1-6.141-1.443z" class="cls-4" data-name="Path 74" transform="translate(-266.666 -101.677)"/>
    <path id="Path_75" d="M398.5 280.3v-38.313a5.5 5.5 0 0 1 5.487-5.487 5.5 5.5 0 0 1 5.487 5.487V280.3a5.5 5.5 0 0 1-5.487 5.487 5.468 5.468 0 0 1-5.487-5.487z" class="cls-2" data-name="Path 75" transform="translate(-212.388 -125.721)"/>
    <path id="Path_76" d="M471.311 183.512A4.515 4.515 0 0 1 466.8 179v-10.089a4.515 4.515 0 0 1 4.511-4.511 4.515 4.515 0 0 1 4.511 4.511V179a4.515 4.515 0 0 1-4.511 4.512z" class="cls-2" data-name="Path 76" transform="translate(-248.928 -87.149)"/>
    <path id="Path_77" d="M427.988 195.32l-5.58-5.3a1.584 1.584 0 0 0-1.116-.419h-14.183a1.766 1.766 0 0 0-1.349.7L387.206 212.8c-.884 5.162 1.86 3.488 4.65 3.255l10.788-.558a1.608 1.608 0 0 0 1.581-1.628v-7.812l.186 51.8a1.608 1.608 0 0 0 1.581 1.628h21.3" class="cls-4" data-name="Path 77" transform="translate(-206.256 -100.63)"/>
    <path id="Path_78" d="M453.832 203.218l17.95-13.02a3.705 3.705 0 0 1 2.186-.7h10.509a3.812 3.812 0 0 1 3.767 3.906l-.7 62.219a3.821 3.821 0 0 1-3.767 3.813h-27.713a3.8 3.8 0 0 1-3.767-3.86v-49.2a3.815 3.815 0 0 1 1.535-3.158z" class="cls-4" data-name="Path 78" transform="translate(-241.167 -100.577)"/>
    <path id="Path_79" d="M475.541 120.637c-.744 12.6-9.161 24.413-20.182 21.577-10.509-2.7-14.6-14.509-13.858-27.11s4.6-8.556 16-7.905 18.784.836 18.04 13.438z" class="cls-2" data-name="Path 79" transform="translate(-235.348 -55.941)"/>
    <path id="Path_80" d="M476.4 58.351a13.863 13.863 0 0 0-21.112-11.811 16.394 16.394 0 0 0-31.156 5.3 12.714 12.714 0 0 0-2.325-.233 13.206 13.206 0 0 0 0 26.413 12.483 12.483 0 0 0 3.534-.512v4.046h37.9v-9.392A13.842 13.842 0 0 0 476.4 58.351z" class="cls-5" data-name="Path 80" transform="translate(-217.792 -19.045)"/>
    <path id="Path_81" d="M440.548 56.011a15.487 15.487 0 1 1 27.622-9.626 15.307 15.307 0 0 1-2.93 9.068" class="cls-6" data-name="Path 81" transform="translate(-233.092 -15.729)"/>
    <path id="Path_82" d="M413.939 88.341a13.072 13.072 0 0 1 1.628-26.041 13.928 13.928 0 0 1 3.116.372" class="cls-6" data-name="Path 82" transform="translate(-214.528 -32.527)"/>
    <path id="Path_83" d="M503 48.893a13.766 13.766 0 1 1 2.093 24.413" class="cls-6" data-name="Path 83" transform="translate(-268.294 -24.235)"/>
    <path id="Path_85" d="M472.545 106v9.533H434.6V106" class="cls-6" data-name="Path 85" transform="translate(-231.701 -55.906)"/>
    <circle id="Ellipse_259" cx="1.442" cy="1.442" r="1.442" class="cls-8" data-name="Ellipse 259" transform="translate(219.5 106.78)"/>
    <circle id="Ellipse_260" cx="1.442" cy="1.442" r="1.442" class="cls-8" data-name="Ellipse 260" transform="translate(219.035 121.521)"/>
    <circle id="Ellipse_261" cx="1.442" cy="1.442" r="1.442" class="cls-8" data-name="Ellipse 261" transform="translate(219.035 134.774)"/>
    <circle id="Ellipse_262" cx="1.442" cy="1.442" r="1.442" class="cls-8" data-name="Ellipse 262" transform="translate(219.035 146.26)"/>
    <path id="Path_86" d="M517.587 252.346h-24.414a5.666 5.666 0 0 1-5.673-5.673 5.666 5.666 0 0 1 5.673-5.673h24.413a5.666 5.666 0 0 1 5.673 5.673 5.608 5.608 0 0 1-5.672 5.673z" class="cls-2" data-name="Path 86" transform="translate(-260.002 -128.128)"/>
    <path id="Path_87" d="M456.841 343.642h-110.07a4.366 4.366 0 0 1-4.371-4.371 4.366 4.366 0 0 1 4.371-4.371h110.07a4.366 4.366 0 0 1 4.371 4.371 4.366 4.366 0 0 1-4.371 4.371z" class="cls-3" data-name="Path 87" transform="translate(-182.376 -178.363)"/>
    <path id="Path_88" d="M515.451 348.453h-11.3A11.947 11.947 0 0 1 492.2 336.5v-10.6h35.248v10.6a11.987 11.987 0 0 1-11.997 11.953z" class="cls-5" data-name="Path 88" transform="translate(-262.516 -173.549)"/>
    <path id="Path_89" d="M509.451 344.453h-11.3A11.947 11.947 0 0 1 486.2 332.5v-10.6h35.248v10.6a11.987 11.987 0 0 1-11.997 11.953z" class="cls-6" data-name="Path 89" transform="translate(-259.306 -171.409)"/>
    <path id="Path_90" d="M519.029 374.12H480.06a1.866 1.866 0 0 1-1.86-1.86 1.866 1.866 0 0 1 1.86-1.86h38.968a1.866 1.866 0 0 1 1.86 1.86 1.836 1.836 0 0 1-1.859 1.86z" class="cls-3" data-name="Path 90" transform="translate(-255.026 -197.355)"/>
    <path id="Path_91" d="M628 325.855v-10.7a3.85 3.85 0 0 1 3.86-3.86h5.3a3.85 3.85 0 0 1 3.86 3.86v12.23" class="cls-6" data-name="Path 91" transform="translate(-335.167 -165.738)"/>
    <path id="Path_92" d="M656.673 353.52H609.66a1.866 1.866 0 0 1-1.86-1.86 1.866 1.866 0 0 1 1.86-1.86h47.06a1.866 1.866 0 0 1 1.86 1.86 1.906 1.906 0 0 1-1.907 1.86z" class="cls-3" data-name="Path 92" transform="translate(-324.36 -186.335)"/>
    <circle id="Ellipse_263" cx="1.535" cy="1.535" r="1.535" class="cls-8" data-name="Ellipse 263" transform="translate(297.809 152.351)"/>
    <path id="Path_93" d="M666 323.25l5.162-17.95h1.721l5.162 18.508" class="cls-6" data-name="Path 93" transform="translate(-355.496 -162.528)"/>
    <circle id="Ellipse_264" cx="5.627" cy="5.627" r="5.627" class="cls-4" data-name="Ellipse 264" transform="translate(310.411 136.169)"/>
    <circle id="Ellipse_265" cx="12.23" cy="12.23" r="12.23" class="cls-5" data-name="Ellipse 265" transform="translate(366.724 158.908)"/>
    <path id="Rectangle_365" d="M0 0h6.557v9.347H0z" class="cls-3" data-name="Rectangle 365" transform="rotate(-.176 14421.322 -119555.632)"/>
    <path id="Rectangle_366" d="M0 0h11.253v12.09H0z" class="cls-3" data-name="Rectangle 366" transform="rotate(58.553 138.078 350.166)"/>
    <circle id="Ellipse_266" cx="12.23" cy="12.23" r="12.23" class="cls-6" data-name="Ellipse 266" transform="translate(364.399 156.583)"/>
    <path id="Path_94" d="M887.022 134.549l16.178 13.857a4.561 4.561 0 0 1 .512 6.417 4.561 4.561 0 0 1-6.417.512l-17.95-15.346c-1.906-1.628-3.3-4.139-1.674-6.045l1.209-.372c1.585-1.953 6.235-.651 8.142.977z" class="cls-2" data-name="Path 94" transform="translate(-468.355 -70.132)"/>
    <path id="Path_95" d="M890.708 136.25s-4.883 5.627-4.278 9.626c0 0-9.161-6.231-9.719-9.626-.093-.6-6.929-6.882-3.069-7.952 0-.046 10.045 1.21 17.066 7.952z" class="cls-4" data-name="Path 95" transform="translate(-465.95 -67.834)"/>
    <path id="Path_96" d="M828.852 144.936l-16.415 8.277a4.544 4.544 0 0 1-6.092-2 4.544 4.544 0 0 1 2-6.092l16.415-8.277a4.544 4.544 0 0 1 6.092 2 4.544 4.544 0 0 1-2 6.092z" class="cls-2" data-name="Path 96" transform="translate(-430.32 -72.149)"/>
    <path id="Path_97" d="M779.369 118.852l15.531 17.484a4.555 4.555 0 0 1-.372 6.417 4.555 4.555 0 0 1-6.417-.372L772.58 124.9a4.555 4.555 0 0 1 .372-6.417 4.553 4.553 0 0 1 6.417.369z" class="cls-2" data-name="Path 97" transform="translate(-411.901 -61.968)"/>
    <path id="Path_98" d="M828.906 148.275s11.625-6.51 13.672-8.789c0 0 5.162-6.65-.093-9.486 0 0-9.765 2.837-15.485 7.58 0 0 7.022 3.813 2.046 10.137" class="cls-4" data-name="Path 98" transform="translate(-441.629 -68.745)"/>
    <path id="Path_99" d="M864.313 181.96a9.37 9.37 0 0 1-10.044-8.6l-2.7-35.341a9.37 9.37 0 0 1 8.6-10.044 9.37 9.37 0 0 1 10.044 8.6l2.7 35.341a9.307 9.307 0 0 1-8.6 10.044z" class="cls-4" data-name="Path 99" transform="translate(-454.761 -67.647)"/>
    <path id="Line_23" d="M0 0l3.302 2.93" class="cls-6" data-name="Line 23" transform="translate(409.692 93.852)"/>
    <path id="Path_100" d="M863.406 120.865a2.943 2.943 0 0 1-3.395-2.372l-1.163-6.65a2.943 2.943 0 0 1 2.372-3.395 2.943 2.943 0 0 1 3.395 2.372l1.162 6.65a2.943 2.943 0 0 1-2.371 3.395z" class="cls-2" data-name="Path 100" transform="translate(-458.644 -57.192)"/>
    <path id="Path_101" d="M825.735 62.041c1.256 12.137 9.9 23.158 20.368 19.949 10.044-3.069 13.486-14.6 12.23-26.785-1.255-12.137-4.79-8.091-15.764-6.929-10.975 1.117-18.089 1.582-16.834 13.765z" class="cls-2" data-name="Path 101" transform="translate(-440.875 -24.177)"/>
    <path id="Path_102" d="M796.2 14.917a8.44 8.44 0 0 1 16.88.047 9.029 9.029 0 0 1-.093 1.116l17.95.093a10.657 10.657 0 0 1 10.6 10.742 7.533 7.533 0 0 1 4.185-1.116 8.184 8.184 0 1 1-8.138 9.347 10.582 10.582 0 0 1-6.789 2.372l-23.576-.14a10.657 10.657 0 0 1-10.6-10.742 10.677 10.677 0 0 1 1.814-5.906 8.661 8.661 0 0 1-2.233-5.813z" class="cls-5" data-name="Path 102" transform="translate(-425.151 -2.675)"/>
    <path id="Path_103" d="M799.9 9.917a8.44 8.44 0 1 1 16.88.047 9.017 9.017 0 0 1-.093 1.116l17.95.093a10.657 10.657 0 0 1 10.6 10.742 7.534 7.534 0 0 1 4.185-1.116 8.184 8.184 0 1 1-8.138 9.347 10.582 10.582 0 0 1-6.789 2.372l-23.576-.14a10.657 10.657 0 0 1-10.6-10.742 10.678 10.678 0 0 1 1.814-5.906 8.661 8.661 0 0 1-2.233-5.813z" class="cls-6" data-name="Path 103" transform="translate(-427.131)"/>
    <path id="Path_104" d="M883.155 182.283l16.555-16.508a4.547 4.547 0 0 1 6.417 0 4.547 4.547 0 0 1 0 6.417L889.572 188.7a4.547 4.547 0 0 1-6.417 0 4.5 4.5 0 0 1 0-6.417z" class="cls-2" data-name="Path 104" transform="translate(-470.952 -87.176)"/>
    <path id="Path_105" d="M901.751 297.155l-2.651-34.923a5.485 5.485 0 0 0-.186-.93v-28.645a4.557 4.557 0 1 0-9.114 0v30.087a3.917 3.917 0 0 0 .326 1.628l2.558 33.481a4.539 4.539 0 0 0 4.883 4.185 4.539 4.539 0 0 0 4.184-4.883z" class="cls-2" data-name="Path 105" transform="translate(-475.226 -121.227)"/>
    <path id="Path_106" d="M828.043 228.1h-26.924a1.907 1.907 0 0 0-.511.046 2.529 2.529 0 0 0-.837 0 4.539 4.539 0 0 0-4.185 4.883l3.069 40.27a4.539 4.539 0 0 0 4.883 4.185 4.539 4.539 0 0 0 4.185-4.883l-2.7-35.388h23.018a4.565 4.565 0 0 0 4.557-4.557 4.565 4.565 0 0 0-4.555-4.556z" class="cls-2" data-name="Path 106" transform="translate(-424.815 -121.227)"/>
    <path id="Line_24" d="M0 0l1.209 30.738" class="cls-6" data-name="Line 24" transform="translate(405.321 66.695)"/>
    <path id="Line_25" d="M3.116 0L0 2.883" class="cls-6" data-name="Line 25" transform="translate(400.531 94.085)"/>
    <ellipse id="Ellipse_267" cx="5.58" cy="11.393" class="cls-3" data-name="Ellipse 267" rx="5.58" ry="11.393" transform="rotate(-13.77 336.463 -1368.749)"/>
    <path id="Path_107" d="M762.022 96.483l.186-10.044S747.095 87.927 734.4 82.3c0 0 11.253 6.836 5.255 22.274 0 0 13.485-9.347 22.321-7.626" class="cls-4" data-name="Path 107" transform="translate(-392.089 -43.227)"/>
    <path id="Path_108" d="M839.388 226.3h-22.832a1.25 1.25 0 0 0-1.256 1.256v8.644a1.25 1.25 0 0 0 1.256 1.256h19.438a1.056 1.056 0 0 1 .744.279l5.022 3.86.047.047 6.185 4.278h.326v13.253a1.25 1.25 0 0 0 1.256 1.256h8.835a1.25 1.25 0 0 0 1.256-1.256v-25.25a8.578 8.578 0 0 0-4.325-7.44 3 3 0 0 0-.93-.14z" class="cls-7" data-name="Path 108" transform="translate(-435.369 -120.264)"/>
    <path id="Path_109" d="M793.3 344.1s9.021 6.231 4.464 18.136" class="cls-6" data-name="Path 109" transform="translate(-423.6 -183.285)"/>
    <path id="Path_110" d="M816.885 344.1s-9.021 6.231-4.464 18.136" class="cls-6" data-name="Path 110" transform="translate(-433.141 -183.285)"/>
    <path id="Line_26" d="M0 .744L23.948 0" class="cls-6" data-name="Line 26" transform="translate(364.539 169.883)"/>
    <path id="Path_111" d="M742.486 103.656a2.6 2.6 0 0 1-2.186 1.023 2.864 2.864 0 0 1-2.325-3.3 2.905 2.905 0 0 1 2.93-2.79 2.823 2.823 0 0 1 .837.233" class="cls-4" data-name="Path 111" transform="translate(-393.991 -51.935)"/>
    <path id="Path_112" d="M879.2 380.13a2.917 2.917 0 0 1 2.93-2.93h13.765a2.917 2.917 0 0 1 2.93 2.93 2.917 2.917 0 0 1-2.93 2.93H882.13a2.917 2.917 0 0 1-2.93-2.93z" class="cls-4" data-name="Path 112" transform="translate(-469.555 -200.993)"/>
    <path id="Path_113" d="M784.3 324.83a2.917 2.917 0 0 1 2.93-2.93h13.764a2.917 2.917 0 0 1 2.93 2.93 2.917 2.917 0 0 1-2.93 2.93H787.23a2.888 2.888 0 0 1-2.93-2.93z" class="cls-4" data-name="Path 113" transform="translate(-418.785 -171.409)"/>
    <path id="Line_27" d="M0 0l.465 7.44" class="cls-6" data-name="Line 27" transform="translate(412.575 118.638)"/>
    <path id="Line_28" d="M0 0l3.255 1.86" class="cls-6" data-name="Line 28" transform="translate(328.872 35.4)"/>
    <path id="Line_29" d="M0 0h4.185" class="cls-6" data-name="Line 29" transform="translate(326.082 52.605)"/>
    <path id="Line_30" d="M0 3.255L3.72 0" class="cls-6" data-name="Line 30" transform="translate(334.452 64.231)"/>
</svg>
