<svg xmlns="http://www.w3.org/2000/svg" viewBox="0 0 717 984">
    <defs>
        <style>
            .cls-1,.cls-4{fill:#295763}.cls-1,.cls-15,.cls-16{opacity:.3}.cls-2{fill:#194049}.cls-3,.cls-8{opacity:.2}.cls-16,.cls-5{fill:#fff}.cls-6{fill:#b3b6b7}.cls-7{fill:#a9e1f7}.cls-8{fill:#050505}.cls-9{fill:#e2e2e2}.cls-10{fill:#00beff}.cls-11{fill:#ffc4bf}.cls-12{fill:#f7aca9}.cls-13,.cls-15{fill:#001145}.cls-14,.cls-17{fill:none;stroke-miterlimit:10}.cls-14{stroke:#00beff}.cls-17{stroke:#001145;stroke-width:.5px}
        </style>
    </defs>
    <g id="illustration-1" transform="translate(-450.346 -1194.262)">
        <rect id="Rectangle_409" width="717" height="984" class="cls-1" data-name="Rectangle 409" rx="10" transform="translate(450.346 1194.262)"/>
        <g id="book" transform="translate(633.843 1801.6)">
            <path id="Path_776" d="M340.978 456.675l-131.373 79.077L0 414.29l140.334-83.61a10.947 10.947 0 0 1 11.071-.105l189.362 107.017a11.031 11.031 0 0 1 .211 19.083z" class="cls-2" data-name="Path 776" transform="translate(0 -316.156)"/>
            <path id="Path_777" d="M345.678 477.57l-131.373 79.076L4.7 435.29l140.334-83.61a10.947 10.947 0 0 1 11.071-.105l189.362 106.911a11.032 11.032 0 0 1 .211 19.084z" class="cls-3" data-name="Path 777" transform="translate(.255 -315.014)"/>
            <path id="Path_779" d="M209.605 532.025L0 412.672V397.7l209.605 121.251z" data-name="Path 779" transform="translate(0 -312.428)"/>
            <path id="Path_780" d="M340.978 444.375l-131.373 79.077L0 401.99l140.334-83.61a10.947 10.947 0 0 1 11.071-.105l189.362 106.911a11.124 11.124 0 0 1 .211 19.189z" class="cls-4" data-name="Path 780" transform="translate(0 -316.824)"/>
            <path id="Path_781" d="M327.733 449.3L201 526.265v-8.435l126.944-76.23z" class="cls-5" data-name="Path 781" transform="translate(10.925 -310.042)"/>
        </g>
        <g id="phone" transform="rotate(-11 8036.728 -1592.738)">
            <path id="Path_782" d="M635.329 0l-.105 29.416s.738 10.86-33.423 26.043L220.863 273.5s-32.79 12.02-51.663-3.374L5.669 174.5s-9.384-2.109-4.007-41.12" class="cls-6" data-name="Path 782" transform="translate(0 111.59)"/>
            <path id="Path_775" d="M617.406 94.3s37.851 18.662-.211 35.321L218.65 359.785s-32.685 10.965-53.245-6.01c-11.6-9.489-160.894-94.048-160.894-94.048s-16.764-19.084 14.339-29.944L405.271 8.474s32.263-21.509 71.7 4.007z" class="cls-3" data-name="Path 775" transform="translate(11.807 62.629)"/>
            <path id="Path_783" d="M617.406 94.4s37.851 18.662-.211 35.321L218.65 359.785s-32.685 10.965-53.245-6.01c-11.6-9.489-160.894-94.048-160.894-94.048s-16.764-19.084 14.339-29.944L405.376 8.474s32.263-21.509 71.7 4.007z" class="cls-5" data-name="Path 783" transform="translate(1.263)"/>
            <path id="Path_784" d="M535.084 107.017L489.009 133.8 185.566 310.507l-130-75.386L0 202.963 350.572 0z" class="cls-7" data-name="Path 784" transform="translate(56.595 20.705)"/>
            <path id="Path_785" d="M535.084 107.017L489.009 133.8 185.566 310.507l-130-75.386L0 202.963 350.572 0z" class="cls-8" data-name="Path 785" transform="translate(57.016 21.338)"/>
            <path id="Path_786" d="M433.444 74.859L130 251.569 0 176.182 304.392 0z" class="cls-7" data-name="Path 786" transform="translate(112.159 79.643)"/>
            <path id="Path_787" d="M40.171 10.41c0 6.432-10.227 12.863-20.876 12.863S0 18.107 0 11.675 8.857.815 19.295.077C29.944-.661 40.171 3.978 40.171 10.41z" class="cls-9" data-name="Path 787" transform="translate(93.075 280.315)"/>
            <path id="Path_788" d="M40.171 10.41c0 6.432-10.227 12.863-20.876 12.863S0 18.107 0 11.675 8.857.815 19.295.077C29.944-.661 40.171 3.978 40.171 10.41z" class="cls-5" data-name="Path 788" transform="translate(93.075 278.101)"/>
            <path id="Path_789" d="M54.616 28.866c-.316-.211-.527-.422-.843-.633-.527-.316-1.054-.633-1.476-.949l-4.745-2.847c-2.109-1.265-4.217-2.53-6.432-3.8-2.425-1.476-4.955-2.952-7.38-4.428-2.53-1.476-5.061-3.058-7.591-4.534-2.32-1.371-4.745-2.847-7.064-4.217-1.9-1.16-3.9-2.32-5.8-3.479C11.176 2.718 9.068 1.137 6.748.4 4.534-.339 0-.339 0 2.929a2.519 2.519 0 0 0 .527 1.476c1.054 1.687 3.058 2.53 4.745 3.479 1.582.949 3.058 1.792 4.639 2.741a214.204 214.204 0 0 1 6.537 3.9l7.591 4.428c2.53 1.476 5.166 3.058 7.7 4.534a565.53 565.53 0 0 0 6.853 4.007c1.687 1.054 3.479 2 5.166 3.058.527.316 1.054.633 1.476.843a21.109 21.109 0 0 0 5.061 2 11.8 11.8 0 0 0 3.8.527 2.863 2.863 0 0 0 1.792-.633c.527-.527.316-1.265.211-2a4.8 4.8 0 0 0-.843-2c-.323-.106-.429-.317-.639-.423z" class="cls-6" data-name="Path 789" transform="translate(476.438 38.335)"/>
            <path id="Path_790" d="M54.616 28.866c-.316-.211-.527-.422-.843-.633-.527-.316-1.054-.633-1.476-.949l-4.745-2.847c-2.109-1.265-4.217-2.53-6.432-3.8-2.425-1.476-4.955-2.952-7.38-4.428-2.53-1.476-5.061-3.058-7.591-4.534-2.32-1.371-4.745-2.847-7.064-4.217-1.9-1.16-3.9-2.32-5.8-3.479C11.176 2.718 9.068 1.137 6.748.4 4.534-.339 0-.339 0 2.929a2.519 2.519 0 0 0 .527 1.476c1.054 1.687 3.058 2.53 4.745 3.479 1.582.949 3.058 1.792 4.639 2.741a214.204 214.204 0 0 1 6.537 3.9l7.591 4.428c2.53 1.476 5.166 3.058 7.7 4.534a565.53 565.53 0 0 0 6.853 4.007c1.687 1.054 3.479 2 5.166 3.058.527.316 1.054.633 1.476.843a21.109 21.109 0 0 0 5.061 2 11.8 11.8 0 0 0 3.8.527 2.863 2.863 0 0 0 1.792-.633c.527-.527.316-1.265.211-2a4.8 4.8 0 0 0-.843-2c-.323-.106-.429-.317-.639-.423z" class="cls-5" data-name="Path 790" transform="translate(476.438 36.227)"/>
            <ellipse id="Ellipse_365" cx="3.796" cy="2.741" class="cls-6" data-name="Ellipse 365" rx="3.796" ry="2.741" transform="translate(537.801 75.32)"/>
            <ellipse id="Ellipse_366" cx="3.796" cy="2.741" class="cls-5" data-name="Ellipse 366" rx="3.796" ry="2.741" transform="translate(537.801 74.266)"/>
            <path id="Path_791" d="M146.977 57.153a42.7 42.7 0 0 1-8.013 22.563 49.32 49.32 0 0 1-5.272 6.326c-13.812 14.339-36.586 23.618-60.2 25.937a75.585 75.585 0 0 1-27.413-2.32 71.243 71.243 0 0 1-12.23-4.639C13.5 95.215 0 76.553 0 57.258a40.98 40.98 0 0 1 2-12.441 6.713 6.713 0 0 0 .211-.738 44.354 44.354 0 0 1 4.745-9.489l.633-.949C20.033 15.506 46.075 2.959 75.175.534c12.02-.949 22.247-.633 31 .949a65.089 65.089 0 0 1 11.281 2.952c22.562 8.118 30.786 27.097 29.521 52.718z" class="cls-4" data-name="Path 791" transform="translate(283.07 101.989)"/>
            <path id="Path_792" d="M40.065 2.952C34.583 4.217 13.812 10.86 8.435 36.9L0 37.957S7.486 6.748 28.784 0z" class="cls-10" data-name="Path 792" transform="translate(360.565 103.472)"/>
            <path id="Path_793" d="M39.222 10.218l-8.013 2.847S17.5-1.8 0 13.171a44.358 44.358 0 0 1 4.745-9.49l.633-.949c5.798-3.479 17.501-5.904 33.844 7.486z" class="cls-10" data-name="Path 793" transform="translate(285.389 133.002)"/>
            <path id="Path_794" d="M12.233 43.756A71.244 71.244 0 0 1 0 39.116C-.314 17.186 27.943.949 27.943.949L36.272 0C8.332 18.873 10.23 37.008 12.233 43.756z" class="cls-10" data-name="Path 794" transform="translate(316.912 167.787)"/>
            <path id="Path_795" d="M48.5 22.043a49.327 49.327 0 0 1-5.272 6.326C26.57.745 0 6.755 0 6.755L11.176.112C34.9-1.575 45.653 16.244 48.5 22.043z" class="cls-10" data-name="Path 795" transform="translate(373.533 159.662)"/>
            <path id="Path_796" d="M2.319 1.658S2.425 8.827 0 9.671c0 0 4.955 7.38 5.588 7.7 0 0 .843-10.965 6.01-13.6.002.101-4.007-6.858-9.279-2.113z" class="cls-11" data-name="Path 796" transform="translate(413.598 116.048)"/>
            <path id="Path_797" d="M76.269 18.557S49.7 32.369 46.325 37.219c-.316.211-5.061 2.847-11.071 5.8l-21.72 8.119a11.261 11.261 0 0 1-2.636.105 3.368 3.368 0 0 1-1.476-.316s-19.716-18.451-2.109-31.42h.317a368.17 368.17 0 0 0 5.9-.843c7.7-.949 19.822-3.9 19.822-3.9 1.16-.738 2.636-1.582 4.323-2.53 5.061-1.792 11.176-4.007 13.074-5.166a22.843 22.843 0 0 1 2-1.476A40.325 40.325 0 0 1 67.728 0a9.653 9.653 0 0 1 1.582 1.476 26.207 26.207 0 0 1 6.115 12.231 22.1 22.1 0 0 1 .844 4.85z" class="cls-11" data-name="Path 797" transform="translate(344.816 122.028)"/>
            <path id="Path_798" d="M3.613 33.587S9.2 32.638 20.377 26.1c0 0 45.759-21.509 70.747-24.566 0 0 15.288-3.9 30.26.738 0 0-3.585 13.285-9.067 13.6 0 0-46.6-.633-49.765.844 0 0-34.372 15.183-40.8 13.6 0 0-5.166 6.959-8.646 5.377a12 12 0 0 0-5.8.843s-3.269 1.054-4.428.633c0 0-4.534-1.582-2.214-2.741-.003.107 1.894-.628 2.949-.841z" class="cls-12" data-name="Path 798" transform="translate(235.807 140.527)"/>
            <path id="Path_799" d="M43.889 7.275c-9.173 3.479-18.978 6.748-22.141 6.01 0 0-5.166 6.959-8.646 5.377a12 12 0 0 0-5.8.843s-3.268 1.054-4.428.633c0 0-4.534-1.582-2.214-2.741a24.568 24.568 0 0 1 2.952-.949S9.2 15.5 20.377 8.962c0 0 8.646-4.112 20.56-8.962" class="cls-8" data-name="Path 799" transform="translate(244.241 172.321)"/>
            <path id="Path_800" d="M26.129 22.426C32.455 13.042 39.413 3.131 41.206 1.55c0 0 9.7-5.693 53.35 4.745 0 0 14.866-1.792 5.377 8.119 0 0-30.471 6.115-50.82-3.269 0 0-21.192 25.937-29.733 30.155 0 0-2.952 8.646-7.486 8.329 0 0-2.53.527-7.7 4.007 0 0-2.847 1.687-4.112.422 0 0-2.109-2 14.55-14.55 0 .105 5.483-8.224 11.493-17.081" class="cls-8" data-name="Path 800" transform="translate(260.526 157.803)"/>
            <path id="Path_801" d="M14.636 38.253S37.621 3.143 41.206.086c0 0 9.278-1.582 52.929 8.857 0 0 16.764 7.7 7.275 17.713 0 0-36.691-1.792-57.04-11.176 0 0-16.448 20.138-24.988 24.356 0 0-2.952 8.646-7.486 8.329 0 0-2.53.527-7.7 4.007 0 0-2.847 1.687-4.112.422.002.206-2.107-1.794 14.552-14.341z" class="cls-11" data-name="Path 801" transform="translate(253.989 147.458)"/>
            <path id="Path_802" d="M46.506 9.477s-6.959 23.3-7.486 27.413c0 0-22.879-.633-25.3 0 0 0-8.329-3.585-13.707 1.687 0 0-.316 3.8 2.741 1.792 0 0 6.01-2.109 10.333 0 0 0 23.828 7.8 32.369 7.275 0 0 16.237-33.423 12.02-44.072-4.327-10.649-10.97 5.905-10.97 5.905z" class="cls-11" data-name="Path 802" transform="translate(363.613 135.537)"/>
            <path id="Path_803" d="M0 6.642a7.121 7.121 0 0 1 3.268-.211S24.777 1.054 34.688 0c0 0 17.608 3.374 38.906 16.132 0 0-1.687 8.857-14.128 4.955 0 0-18.873-9.384-22.458-12.969 0 0-26.359-.738-30.26.949a42.833 42.833 0 0 0-5.9.633" class="cls-11" data-name="Path 803" transform="translate(338.95 107.478)"/>
            <path id="Path_804" d="M4.024 3.986S-9.894 23.808 14.04 21.91c0 0 7.8-12.547 5.272-15.921 0 0-9.068-12.02-15.288-2.003z" class="cls-11" data-name="Path 804" transform="translate(411.156 98.01)"/>
            <path id="Path_805" d="M13.561 28.862s4.639-1.371 8.646-7.275c0 0 9.7-16.026-5.061-21.087 0 0-13.285-3.163-16.87 6.432 0 0-2.214 8.119 5.9 5.061A11.659 11.659 0 0 1 17.251 16s7.17-.633.527 3.585a38.9 38.9 0 0 1-4.217 9.277z" class="cls-13" data-name="Path 805" transform="translate(409.316 92.745)"/>
            <path id="Path_806" d="M14.972 7.591a7.767 7.767 0 0 1-7.908 7.591C2.741 15.183 0 13.6 0 9.384S2.741 0 7.064 0a7.766 7.766 0 0 1 7.908 7.591z" class="cls-13" data-name="Path 806" transform="translate(427.621 88.394)"/>
            <path id="Path_807" d="M0 28.362L1.16 0l5.693 2.32" class="cls-14" data-name="Path 807" transform="translate(342.113 90.398)"/>
            <path id="Path_808" d="M0 .738L14.234 0l-1.371 19.084-6.432.738z" class="cls-15" data-name="Path 808" transform="translate(333.468 99.465)"/>
            <path id="Path_809" d="M10.438 0L9.7 10.227l-6.432.738L0 1.371" class="cls-16" data-name="Path 809" transform="translate(336.631 108.322)"/>
            <g id="Group_216" data-name="Group 216" transform="translate(427.158 93.877)">
                <path id="Path_810" d="M1.2 0a1.712 1.712 0 0 1 .527.949c0 .316 0 .633.105.738 0 .105.105 0 .105.211a6.735 6.735 0 0 1 .211.738 2.092 2.092 0 0 0 .633 1.371 5.559 5.559 0 0 0 1.582.527 1.8 1.8 0 0 1 .949.843c.211.422.211.633.316.843.211.527.316 1.054.422 1.371a2.076 2.076 0 0 0 .422.843l1.16 1.16-.105.211a3.872 3.872 0 0 1-1.9.105 2.568 2.568 0 0 1-1.685-1.475 3.614 3.614 0 0 1-.316-1.687v-1.16a3.761 3.761 0 0 0-1.16-1.054C2.045 4.217 1.412 3.9.885 3.585c-.211-.211-.527-.422-.633-.633a1.811 1.811 0 0 1-.211-1.37C.358.633.674.738.99.105z" class="cls-10" data-name="Path 810"/>
            </g>
            <path id="Path_812" d="M72.961 18.67C49.133 17.4 43.017 37.332 43.017 37.332a39.83 39.83 0 0 1-6.01 3.479c-1.582.738-3.269 1.476-5.061 2.32L10.227 51.25c-1.9.633-2.952.949-2.952.949a6.245 6.245 0 0 1 .422-.843C12.019 40.812 0 34.485 0 34.485 5.694 32.9 7.275 20.779 4.217 19.619c-.211-.105.211-.211.211-.211a12.749 12.749 0 0 0 2.847-.316c.843-.105 1.792-.316 2.847-.422 7.7-.949 19.822-3.9 19.822-3.9 1.16-.738 2.636-1.582 4.323-2.53 4.217-2.11 9.805-4.54 15.077-6.54C57.04 2.644 61.89.535 62.312.324a6.139 6.139 0 0 1 1.476-.316C64.843-.1 65.37.852 65.9 1.59c.422.527.633.633.633.738C51.136 4.331 34.688 21.1 34.688 21.1c-5.694 7.8 2.636 3.479 2.636 3.479 9.595-4.745 30.471-9.805 34.688-10.754a3.3 3.3 0 0 0 .738-.211c2.109 3.58.211 5.056.211 5.056z" class="cls-13" data-name="Path 812" transform="translate(348.123 121.915)"/>
            <path id="Path_813" d="M37.008 21.72c-1.582.738-3.268 1.476-5.061 2.32l-21.72 8.119c-1.9.633-2.952.949-2.952.949a6.25 6.25 0 0 1 .422-.843C12.02 21.72 0 15.394 0 15.394 5.694 13.812 7.275 1.687 4.217.527c-.211-.105.211-.211.211-.211A12.748 12.748 0 0 0 7.275 0C7.7 3.163 8.54 11.492 5.166 15.6c0 0 6.115 6.537 7.064 10.333 0 0 22.458-5.588 24.883-11.7 0 .106-1.054 4.956-.105 7.487z" class="cls-3" data-name="Path 813" transform="translate(348.123 141.007)"/>
            <path id="Path_814" d="M1.393.012S11.2-.41 2.763 3.807c0-.107-5.163 2.215-1.37-3.795z" class="cls-11" data-name="Path 814" transform="translate(337.241 114.32)"/>
            <ellipse id="Ellipse_367" cx="2.109" cy="1.476" class="cls-13" data-name="Ellipse 367" rx="2.109" ry="1.476" transform="rotate(-66.953 291.89 -258.036)"/>
            <ellipse id="Ellipse_368" cx="2.109" cy="1.476" class="cls-13" data-name="Ellipse 368" rx="2.109" ry="1.476" transform="rotate(-66.953 288.193 -255.39)"/>
            <path id="Path_815" d="M4.639 1.846S2.53-.368 0 .053" class="cls-17" data-name="Path 815" transform="translate(412.544 108.374)"/>
        </g>
        <g id="coffee" transform="translate(633.776 1427.091)">
            <path id="Path_774" d="M218.8 160.186c1.16-5.588 2.32-11.176 3.163-16.87 1.476-7.8 2.952-15.5 4.534-23.3.105-.527 1.16-6.853 1.371-6.853 4.007-4.534 6.326-9.805 6.326-15.5 0-8.435-5.272-16.132-13.812-21.931-2.634-11.281-18.027-20.032-36.689-20.032S149.637 64.346 147 75.733c-8.54 5.694-13.812 13.39-13.812 21.931a22.135 22.135 0 0 0 4.85 13.6c.422 2.741.738 5.588 1.16 8.329.843 6.537 1.792 13.179 2.741 19.716.844 6.748 1.792 13.5 2.741 20.244-12.758 6.221-20.982 15.6-20.982 26.043 0 18.662 25.621 33.739 57.357 33.739s57.357-15.077 57.357-33.739c.002-10.227-7.59-19.296-19.612-25.41z" class="cls-3" data-name="Path 774" transform="translate(-123.7 -35.351)"/>
            <ellipse id="Ellipse_360" cx="57.357" cy="33.739" class="cls-2" data-name="Ellipse 360" rx="57.357" ry="33.739" transform="translate(13.496 96.052)"/>
            <ellipse id="Ellipse_361" cx="57.357" cy="33.739" class="cls-4" data-name="Ellipse 361" rx="57.357" ry="33.739" transform="translate(13.496 93.627)"/>
            <path id="Path_778" d="M150.1 89c.422 2.741.738 5.588 1.16 8.329.843 6.537 1.792 13.179 2.741 19.716.949 7.17 1.9 14.234 2.952 21.4.422 3.374 1.16 6.642 1.476 9.911.422 3.479.633 6.959 1.16 10.438l.316 1.9a22.008 22.008 0 0 0 1.9 5.8c1.16 2.214 2.847 3.374 4.745 4.85a54.378 54.378 0 0 0 6.432 4.534 44.176 44.176 0 0 0 14.655 5.9c9.278 1.687 18.557-.738 26.464-5.9 3.8-2.53 8.329-5.588 10.649-9.489 2.109-3.69 2.214-8.54 2.952-12.652 1.9-10.86 4.639-21.614 6.326-32.58 1.476-7.8 2.952-15.5 4.534-23.3.105-.527 1.16-6.853 1.371-6.853C239.931 90.9 150.1 89 150.1 89z" class="cls-5" data-name="Path 778" transform="translate(-122.265 -33.541)"/>
            <ellipse id="Ellipse_362" cx="50.503" cy="31.841" class="cls-4" data-name="Ellipse 362" rx="50.503" ry="31.841" transform="translate(22.985 10.122)"/>
            <ellipse id="Ellipse_363" cx="37.008" cy="23.407" class="cls-2" data-name="Ellipse 363" rx="37.008" ry="23.407" transform="translate(36.481 10.016)"/>
            <ellipse id="Ellipse_364" cx="37.008" cy="23.407" class="cls-4" data-name="Ellipse 364" rx="37.008" ry="23.407" transform="translate(36.481)"/>
        </g>
    </g>
</svg>
