<svg xmlns="http://www.w3.org/2000/svg" viewBox="0 0 677 930">
    <defs>
        <style>
            .cls-1{fill:#0cafb5}.cls-1,.cls-2,.cls-4,.cls-6{opacity:.2}.cls-13,.cls-2{fill:#02011b}.cls-3{fill:#fddf87}.cls-5{fill:#80adf7}.cls-6,.cls-8{fill:#05053f}.cls-7{fill:#08228d}.cls-9{fill:#002b6d}.cls-10{fill:#ffc4bf}.cls-11{fill:#0020dd}.cls-12{fill:#f5f5fc}.cls-14{fill:#ff7da5}.cls-15{fill:#fff}.cls-16{fill:#4285f4}.cls-17{fill:#ffb74d}
        </style>
    </defs>
    <g id="illustration-3" transform="translate(-124.959 126.407)">
        <rect id="Rectangle_410" width="677" height="930" class="cls-1" data-name="Rectangle 410" rx="10" transform="translate(124.959 -126.407)"/>
        <path id="Path_699" d="M630.911 240.075c0 18.892 5.038 29.724-142.826 29.724-138.04 0-283.385-6.046-283.385-24.938S316.543 210.6 454.583 210.6c84.889-.249 176.328 10.582 176.328 29.475z" class="cls-2" data-name="Path 699" transform="translate(168.998 319.894)"/>
        <path id="Rectangle_399" d="M0 0h100.759v96.729H0z" class="cls-3" data-name="Rectangle 399" transform="translate(437.61)"/>
        <path id="Path_700" d="M258.814 41.268v36.777h-55.166L184 58.4l10.832-10.832 19.648-19.65 6.046-6.3 6.8-6.549 2.519-2.771 2.771 2.771z" class="cls-4" data-name="Path 700" transform="translate(279.555 18.683)"/>
        <path id="Rectangle_400" d="M0 0h100.759v96.729H0z" class="cls-5" data-name="Rectangle 400" transform="translate(141.126 26.701)"/>
        <path id="Path_701" d="M143.7 43.882v49.624H88.53L64.852 69.828H64.6l37.281-37.281L114.728 19.7h4.786z" class="cls-4" data-name="Path 701" transform="translate(98.189 29.924)"/>
        <path id="Path_702" d="M674.125 372.195c-4.308-26.449-13.823-49.876-32.493-63.982-8.976-6.8-19.029-9.824-27.825-17.129-18.49-15.114-24.594-43.075-28.184-70.783-4.667-35.266-4.667-71.287-10.412-106.3-4.129-25.19-11.848-50.883-26.928-65.745-21.542-21.159-54.574-18.389-76.475 0-25.492 21.411-44.341 55.166-59.959 89.676-11.13 24.182-21.542 50.631-37.878 68.768-16.516 18.137-40.212 18.137-54.215-5.794-9.514-16.121-13.464-36.777-18.311-56.425-5.206-20.908-12.566-44.838-28.184-53.906-23.7-13.854-64.088-14.61-80.783 17.633-6.463 12.595-9.155 28.213-11.669 43.326-4.129 24.686-8.437 49.372-13.1 73.806-3.949 20.656-6.642 42.319-13.464 61.463-6.283 17.381-16.157 32.747-29.262 39.044-13.464 6.549-28.364 2.519-42.187-3.023-17.054-7.053-36.442-17.885-54.394-10.328C8.291 321.059.751 350.531.033 377.484c-.18 4.786 0 9.572.18 14.61.18 4.786.359 9.824.539 14.61s.359 9.824.539 14.61a42.655 42.655 0 0 0 .18 4.786v10.58c0 .252.18.252.18.252.18 0 .18.252.359.252 0 0 0 .252.18.252 0 .5.18.756.18 1.259v100h671.4c-2.154 0 1.975-99 2.513-107.309 1.253-19.14.894-39.795-2.158-59.191z" class="cls-6" data-name="Path 702" transform="translate(125 50.742)"/>
        <path id="Path_703" d="M215.686 212.62c-8.061 35.769-29.724 105.041-29.724 105.041-11.839 14.106-28.968 0-28.968 0-8.313-37.533-7.053-116.881-7.053-116.881 0-16.625.756-33 7.809-48.616 1.008-2.015 2.015-4.282 4.03-5.794 2.519-2.267 6.3-2.771 9.824-2.771a304.528 304.528 0 0 1 34.006 3.023 449.307 449.307 0 0 1 45.342 8.313c23.427 5.794 46.853 12.847 68.768 22.671 0 0 145.6 70.028 29.22 92.446 0 0-99-16.373-134.514-51.135" class="cls-7" data-name="Path 703" transform="translate(227.717 218.125)"/>
        <path id="Path_704" d="M139.764 252.8a69.747 69.747 0 0 1-15.114-10.328 35.554 35.554 0 0 1-9.068-12.091c-4.282-8.816-8.313-17.885-12.091-26.953-1.511-3.779-6.549-10.58-11.587-9.572-6.549 1.008-3.778 16.121-3.275 19.9 0 0 11.084 50.128 14.106 56.425 0 0-13.351-2.015-17.381 1.259 0 0-3.778 19.648 2.771 22.923 0 0 38.288 3.527 51.891-4.534-.252 0 33.251-38.54-.252-37.029" class="cls-8" data-name="Path 704" transform="translate(128.067 294.317)"/>
        <path id="Path_705" d="M249.256 109.641c-2.771-4.03-8.816-4.03-13.1-1.763-4.03 2.267-6.8 6.549-9.572 10.58s-5.794 7.809-10.328 9.572c-5.29 2.015-11.839.252-16.121-3.527s-7.305-9.068-9.572-14.358c-4.03-9.572-6.3-20.4-3.527-30.228a24.083 24.083 0 0 1 9.32-13.854 27.449 27.449 0 0 1 10.832-3.527c10.328-1.259 20.4 1.259 30.48 1.763 11.335.5 18.892-3.023 29.22-7.305 4.282-1.763 9.32-2.771 13.6-.5 4.03 2.015 6.549 6.3 9.824 9.572 13.1 12.847 31.487 5.542 47.1 6.8 4.282.5 8.564 1.763 11.335 4.786 2.519 3.023 3.275 7.053 5.29 10.58 10.832 21.159 41.563 12.091 59.7 19.648 3.023 1.259 6.046 3.023 7.557 5.794 2.267 3.527 2.267 7.809 1.763 11.839-.5 7.557-2.015 15.114-1.26 22.923 1.008 8.564 4.03 15.618 8.061 23.175 4.282 7.809 8.816 15.87 9.824 24.686.756 7.557-2.015 17.885-9.824 21.159-8.816 3.778-20.152 1.259-29.22-.252-29.472-5.542-58.944-10.58-88.668-12.091-9.572-.5-19.648-.5-28.716 2.771-7.053 2.771-13.1 7.305-19.9 10.328-9.824 4.534-20.908 5.794-31.487 4.786-10.076-.756-21.663-3.023-30.228-8.564a9.37 9.37 0 0 1-4.282-4.534c-1.008-2.267-.252-4.786.5-7.305 3.023-10.076 5.542-20.656 9.068-30.48 2.771-7.809 7.305-15.87 14.862-19.9" class="cls-9" data-name="Path 705" transform="translate(282.312 83.817)"/>
        <path id="Path_706" d="M213.738 122.069s24.434 26.7 24.686 45.845c0 0 27.961-10.58 30.48-28.464 0 0-19.648-47.1-33.251-59.448-.253-.252-32.243 17.129-21.915 42.067z" class="cls-10" data-name="Path 706" transform="translate(321.608 121.517)"/>
        <path id="Path_707" d="M419.761 200.67s-2.015 51.639-59.2 64.99-151.643 20.152-166.756 22.167-78.088 11.335-87.409 8.061c0 0 2.519 30.732 0 36.525 0 0 261.974 13.854 325.452 0 9.572-2.015 19.4-3.023 28.968-5.29 18.892-4.534 37.533-11.084 54.41-20.908 15.87-9.068 29.22-18.892 37.029-36.273 6.549-14.358 8.061-30.732 7.809-46.6-.252-12.343-1.511-24.686-2.267-37.029-.252-5.542.5-22.419-9.32-19.9-3.275.756-6.549 1.511-9.572 2.267a272.11 272.11 0 0 1-31.991 4.786c-28.968 2.519-58.692.5-86.653-8.564.004-.002.759 15.616-.5 35.768z" class="cls-11" data-name="Path 707" transform="translate(161.682 250.48)"/>
        <path id="Path_708" d="M255.109 129.525S281.81 150.937 278.787 93c0 0 132.75 3.778 136.025 189.175 0 0-92.7 26.449-161.718-15.114 0 0-11.335-45.342-10.076-62.219 0 0-2.519 18.892-5.038 21.159 0 0-38.288-4.282-41.059-15.114 0 0-3.023-55.418 47.861-97.736" class="cls-12" data-name="Path 708" transform="translate(299.129 141.265)"/>
        <path id="Path_709" d="M194.544 91.974c-3.275 4.534 3.275 10.832 5.29 15.87 3.779 9.824 8.313 19.648 15.114 27.457 6.046 7.053 14.61 12.091 23.93 8.313 5.794-2.519 11.335-7.557 14.862-12.595a111.209 111.209 0 0 0 8.56-15.119c2.015-4.786 4.534-10.832 4.534-16.121 0 0 18.137-9.32 7.053-18.64 0 0-12.091-12.595-21.663 4.03.256.255-25.437-37.026-57.68 6.805z" class="cls-10" data-name="Path 709" transform="translate(294.201 107.278)"/>
        <g id="Group_211" data-name="Group 211" transform="translate(414.435 410.09)">
            <path id="Path_710" d="M196.239 162.8q-2.645 15.492-6.046 30.983c-2.267 10.328-4.786 20.4-7.305 30.732-2.771 10.076-5.542 20.4-8.565 30.48s-6.3 20.152-9.824 29.976l8.061-30.48c2.519-10.076 5.29-20.4 7.809-30.48l7.809-30.48 4.03-15.366z" class="cls-13" data-name="Path 710" transform="translate(-164.5 -162.8)"/>
        </g>
        <path id="Path_711" d="M250.047 87.292c-3.023.252-5.542 3.023-8.565 2.519-2.015-.252-3.779-2.015-5.542-3.023a9.628 9.628 0 0 0-8.313.252 26.837 26.837 0 0 0-7.053 4.786 70.675 70.675 0 0 0-7.809 7.305c-2.015 2.267-4.03 5.038-6.549 6.549-2.519 1.763-6.3 2.267-8.816.252a9.079 9.079 0 0 1-2.519-3.778 42.353 42.353 0 0 1-2.267-8.061 10.844 10.844 0 0 1 0-4.03 9.966 9.966 0 0 1 2.519-3.778 45.516 45.516 0 0 1 8.313-7.305c2.015-1.259 4.282-2.267 6.3-3.275 2.519-1.259 5.038-2.267 7.557-3.527a30.021 30.021 0 0 1 5.038-2.015 24.057 24.057 0 0 1 7.305-.756c3.778 0 7.557-.252 11.083 1.511a21.011 21.011 0 0 1 5.29 4.03 48.172 48.172 0 0 1 6.8 8.816c.252.5 2.519 4.03 2.015 4.786-.757.25-4.034-1.258-4.787-1.258z" class="cls-9" data-name="Path 711" transform="translate(292.352 105.41)"/>
        <path id="Path_712" d="M249.422 215.41l-40.556-90.935L127 101.3l41.059 96.225-1.008 4.786 135.017 30.48 1.008-5.038z" class="cls-8" data-name="Path 712" transform="translate(192.973 153.873)"/>
        <path id="Path_713" d="M353.944 151.857s-16.121 58.944-62.723 20.656c0 0-63.73-48.364-101.263-34.006 0 0-29.976 27.709-1.763 22.167 0 0 25.945-6.3 54.914 16.373 0 0 30.983 36.525 50.883 53.4 0 0 39.8 33.5 64.486 1.511 0 0 41.311-30.732 50.38-79.1" class="cls-10" data-name="Path 713" transform="translate(267.551 206.342)"/>
        <g id="Group_212" data-name="Group 212" transform="translate(605.122 356.436)">
            <path id="Path_714" d="M240.2 146.79a104.643 104.643 0 0 1 19.648-4.03A133.243 133.243 0 0 1 280 141.5c3.275 0 6.8.252 10.076.252 3.275.252 6.8.5 10.076 1.008a109.753 109.753 0 0 1 19.648 4.282c-3.275-.252-6.549-1.008-9.824-1.259l-5.038-.5c-1.763-.252-3.275-.252-5.038-.5a262.573 262.573 0 0 0-39.8 0c-3.275.252-6.549.5-9.824 1.008a65.016 65.016 0 0 0-10.076.999z" class="cls-13" data-name="Path 714" transform="translate(-240.2 -141.5)"/>
        </g>
        <path id="Path_715" d="M229.114 90.8S220.8 106.418 214 110.2c0 0 7.809 9.32 8.313 11.335 0-.255 9.068-22.17 6.801-30.735z" class="cls-4" data-name="Path 715" transform="translate(325.125 137.923)"/>
        <path id="Rectangle_401" d="M0 0h100.759v96.981H0z" class="cls-14" data-name="Rectangle 401" transform="translate(297.554 117.888)"/>
        <path id="Rectangle_402" d="M0 0h57.685v37.281H0z" class="cls-15" data-name="Rectangle 402" transform="translate(162.789 62.471)"/>
        <path id="Path_716" d="M122.033 32.7H64.6v-8.314a4.783 4.783 0 0 1 4.786-4.786H117.5a4.783 4.783 0 0 1 4.786 4.786V32.7z" class="cls-16" data-name="Path 716" transform="translate(98.189 29.772)"/>
        <path id="Path_717" d="M70.663 26.209a1.722 1.722 0 0 1-1.763-1.763v-4.283a1.722 1.722 0 0 1 1.763-1.763 1.722 1.722 0 0 1 1.763 1.763v4.282a1.722 1.722 0 0 1-1.763 1.764z" class="cls-15" data-name="Path 717" transform="translate(104.721 27.949)"/>
        <path id="Path_718" d="M74.963 26.209a1.722 1.722 0 0 1-1.763-1.763v-4.283a1.722 1.722 0 0 1 1.763-1.763 1.722 1.722 0 0 1 1.763 1.763v4.282a1.893 1.893 0 0 1-1.763 1.764z" class="cls-15" data-name="Path 718" transform="translate(111.252 27.949)"/>
        <path id="Path_719" d="M79.163 26.209a1.722 1.722 0 0 1-1.763-1.763v-4.283a1.722 1.722 0 0 1 1.763-1.763 1.722 1.722 0 0 1 1.763 1.763v4.282a1.722 1.722 0 0 1-1.763 1.764z" class="cls-15" data-name="Path 719" transform="translate(117.632 27.949)"/>
        <path id="Path_720" d="M83.463 26.209a1.722 1.722 0 0 1-1.763-1.763v-4.283a1.722 1.722 0 0 1 1.763-1.763 1.722 1.722 0 0 1 1.763 1.763v4.282a1.722 1.722 0 0 1-1.763 1.764z" class="cls-15" data-name="Path 720" transform="translate(124.164 27.949)"/>
        <path id="Path_721" d="M232.616 21.906v43.327H184V7.8h35.014l6.549 6.549z" class="cls-15" data-name="Path 721" transform="translate(279.555 11.848)"/>
        <path id="Path_722" d="M211.5 21.906h-13.6V7.8l6.549 6.549z" class="cls-4" data-name="Path 722" transform="translate(300.669 11.848)"/>
        <path id="Path_723" d="M216.268 17.315h-27.96a1.084 1.084 0 0 1-1.008-1.008 1.084 1.084 0 0 1 1.008-1.008h27.961a1.084 1.084 0 0 1 1.008 1.008 1.084 1.084 0 0 1-1.009 1.008z" class="cls-17" data-name="Path 723" transform="translate(284.568 23.24)"/>
        <path id="Path_724" d="M216.268 20.415h-27.96a1.084 1.084 0 0 1-1.008-1.008 1.084 1.084 0 0 1 1.008-1.008h27.961a1.084 1.084 0 0 1 1.008 1.008.923.923 0 0 1-1.009 1.008z" class="cls-17" data-name="Path 724" transform="translate(284.568 27.949)"/>
        <path id="Path_725" d="M216.268 23.615h-27.96a1.084 1.084 0 0 1-1.008-1.008 1.084 1.084 0 0 1 1.008-1.008h27.961a1.084 1.084 0 0 1 1.008 1.008 1.084 1.084 0 0 1-1.009 1.008z" class="cls-17" data-name="Path 725" transform="translate(284.568 32.81)"/>
        <path id="Path_726" d="M216.268 27.515h-27.96a1.084 1.084 0 0 1-1.008-1.008 1.084 1.084 0 0 1 1.008-1.008h27.961a1.084 1.084 0 0 1 1.008 1.008 1.084 1.084 0 0 1-1.009 1.008z" class="cls-17" data-name="Path 726" transform="translate(284.568 38.734)"/>
        <path id="Path_727" d="M168.921 63.9H138.19a5.321 5.321 0 0 0-5.29 5.29V83.3a5.321 5.321 0 0 0 5.29 5.29h21.159a16.657 16.657 0 0 0 12.091 7.053 7.127 7.127 0 0 1-5.29-7.053h2.771a5.321 5.321 0 0 0 5.29-5.29V69.19a5.165 5.165 0 0 0-5.29-5.29z" class="cls-15" data-name="Path 727" transform="translate(201.935 97.063)"/>
        <path id="Path_728" d="M203.517 93.751v29.22h-43.074L128.2 90.728l1.259-1.008 10.58-7.557 15.114-10.832 2.267-1.511 1.008-.756 11.839-8.564z" class="cls-4" data-name="Path 728" transform="translate(194.796 91.898)"/>
        <path id="Path_729" d="M168.967 59.9H132.19a5.321 5.321 0 0 0-5.29 5.29V79.3a5.321 5.321 0 0 0 5.29 5.29h2.519c-.252 2.015-1.511 4.534-5.29 6.046a16.81 16.81 0 0 0 11.335-6.046h27.961A5.321 5.321 0 0 0 174 79.3V65.19a5.107 5.107 0 0 0-5.033-5.29z" class="cls-15" data-name="Path 729" transform="translate(192.821 90.987)"/>
        <circle id="Ellipse_338" cx="2.267" cy="2.267" r="2.267" class="cls-14" data-name="Ellipse 338" transform="translate(330.049 161.718)"/>
        <circle id="Ellipse_339" cx="2.267" cy="2.267" r="2.267" class="cls-14" data-name="Ellipse 339" transform="translate(339.873 161.718)"/>
        <circle id="Ellipse_340" cx="2.267" cy="2.267" r="2.267" class="cls-14" data-name="Ellipse 340" transform="translate(349.949 161.718)"/>
        <ellipse id="Ellipse_341" cx="2.771" cy="6.297" class="cls-15" data-name="Ellipse 341" rx="2.771" ry="6.297" transform="matrix(.951 -.31 .31 .951 373.867 311.775)"/>
    </g>
</svg>
