<svg xmlns="http://www.w3.org/2000/svg" viewBox="0 0 667 930">
    <defs>
        <style>
            .cls-1{fill:#fff9af;opacity:.803}.cls-2{fill:#d77373}.cls-12,.cls-3,.cls-8{fill:#fff}.cls-4{fill:#e2c66d}.cls-5{fill:#d8cbcb}.cls-12,.cls-6{opacity:.2}.cls-7{fill:#2c424c}.cls-8{font-size:52px;font-family:ArialRoundedMTBold,Arial Rounded MT Bold}.cls-9{fill:#acd8ef}.cls-10{fill:#5dd87d}.cls-11{fill:#ffff97}.cls-13,.cls-14{fill:none}.cls-13,.cls-14,.cls-15{stroke:#d77373;stroke-width:10px;stroke-miterlimit:10}.cls-14,.cls-15{stroke:#d1d2d3;stroke-width:3px}.cls-15{fill:#ccc;stroke:#fff}
        </style>
    </defs>
    <g id="illustration-4" transform="translate(26.014 258.837)">
        <rect id="Rectangle_411" width="667" height="930" class="cls-1" data-name="Rectangle 411" rx="10" transform="translate(-26.014 -258.837)"/>
        <g id="Group_217" data-name="Group 217" transform="translate(1.692 .178)">
            <path id="Path_730" d="M103.752 134.494h-83.8a8.655 8.655 0 0 1-8.649-8.649V24.049a8.655 8.655 0 0 1 8.646-8.649h83.8a8.655 8.655 0 0 1 8.649 8.649v101.7a8.74 8.74 0 0 1-8.646 8.745z" class="cls-2" data-name="Path 730" transform="translate(51.241 31.747)"/>
            <path id="Path_731" d="M92.381 121.147H30.349A8.655 8.655 0 0 1 21.7 112.5V36.549a8.655 8.655 0 0 1 8.649-8.649h61.933a8.655 8.655 0 0 1 8.649 8.649V112.5a8.508 8.508 0 0 1-8.55 8.647z" class="cls-3" data-name="Path 731" transform="translate(51.18 31.543)"/>
            <path id="Path_732" d="M79.55 31.132H43.066a5.77 5.77 0 0 1-5.766-5.766 5.77 5.77 0 0 1 5.766-5.766H79.55a5.77 5.77 0 0 1 5.766 5.766 5.77 5.77 0 0 1-5.766 5.766z" class="cls-4" data-name="Path 732" transform="translate(51.088 32.438)"/>
            <path id="Path_733" d="M77.106 21.373H44.4V6.163A6.194 6.194 0 0 1 50.563 0h20.38a6.194 6.194 0 0 1 6.163 6.163z" class="cls-4" data-name="Path 733" transform="translate(51.046 32.985)"/>
            <path id="Path_734" d="M87.482 62.568h-51a2.673 2.673 0 0 1-2.682-2.684 2.673 2.673 0 0 1 2.684-2.684h51a2.759 2.759 0 0 1 2.784 2.684 2.826 2.826 0 0 1-2.786 2.684z" class="cls-5" data-name="Path 734" transform="translate(51.108 31.324)"/>
            <path id="Path_735" d="M86.781 77.568h-51A2.779 2.779 0 0 1 33 74.784a2.7 2.7 0 0 1 2.784-2.684h51a2.673 2.673 0 0 1 2.684 2.684 2.759 2.759 0 0 1-2.687 2.784z" class="cls-5" data-name="Path 735" transform="translate(51.113 30.865)"/>
            <path id="Path_736" d="M87.482 92.468h-51a2.7 2.7 0 0 1-2.682-2.784A2.673 2.673 0 0 1 36.484 87h51a2.759 2.759 0 0 1 2.784 2.684 2.844 2.844 0 0 1-2.786 2.784z" class="cls-5" data-name="Path 736" transform="translate(51.108 30.407)"/>
            <path id="Path_737" d="M302.859 57.805v64.717a11.116 11.116 0 0 1-11.134 11.134h-85.891a10.979 10.979 0 0 1-10.239-6.859 12.154 12.154 0 0 1-.895-4.275V57.805a6.776 6.776 0 0 1 2.187-4.971l46.127-42.548a8.3 8.3 0 0 1 11.333 0l46.127 42.548a6.165 6.165 0 0 1 2.385 4.971z" class="cls-2" data-name="Path 737" transform="translate(50.161 31.95)"/>
            <path id="Path_738" d="M284.519 116.095h-71.774a9.334 9.334 0 0 1-9.345-9.345V40.145a9.334 9.334 0 0 1 9.345-9.345h71.775a9.334 9.334 0 0 1 9.345 9.345v66.605a9.334 9.334 0 0 1-9.346 9.345z" class="cls-3" data-name="Path 738" transform="translate(50.109 31.514)"/>
            <path id="Path_739" d="M277.548 78.173h-57.162a2.312 2.312 0 0 1-2.286-2.286 2.312 2.312 0 0 1 2.286-2.286h57.161a2.312 2.312 0 0 1 2.286 2.286 2.381 2.381 0 0 1-2.285 2.286z" class="cls-5" data-name="Path 739" transform="translate(50.023 30.826)"/>
            <path id="Path_740" d="M194.8 58.1v64.717a11.116 11.116 0 0 0 11.134 11.134h85.891a10.979 10.979 0 0 0 10.239-6.859z" class="cls-2" data-name="Path 740" transform="translate(50.16 30.684)"/>
            <path id="Path_741" d="M194.8 58.1v64.717a11.116 11.116 0 0 0 11.134 11.134h85.891a10.979 10.979 0 0 0 10.239-6.859z" class="cls-6" data-name="Path 741" transform="translate(50.16 30.684)"/>
            <path id="Path_742" d="M302.864 58.1v64.717a11.116 11.116 0 0 1-11.134 11.134h-85.891a10.979 10.979 0 0 1-10.239-6.859z" class="cls-2" data-name="Path 742" transform="translate(50.155 30.684)"/>
            <path id="Path_743" d="M277.448 56.873h-57.162A2.312 2.312 0 0 1 218 54.586a2.312 2.312 0 0 1 2.286-2.286h57.161a2.312 2.312 0 0 1 2.286 2.286 2.381 2.381 0 0 1-2.285 2.287z" class="cls-5" data-name="Path 743" transform="translate(50.023 31.48)"/>
            <path id="Path_744" d="M277.548 67.573h-57.162a2.312 2.312 0 0 1-2.286-2.286A2.312 2.312 0 0 1 220.386 63h57.161a2.312 2.312 0 0 1 2.286 2.286 2.381 2.381 0 0 1-2.285 2.287z" class="cls-5" data-name="Path 744" transform="translate(50.023 31.152)"/>
            <path id="Path_745" d="M493.858 133.827h-95.335A13 13 0 0 1 385.5 120.8V50.123A13 13 0 0 1 398.523 37.1h95.335a13 13 0 0 1 13.023 13.023V120.8a13.132 13.132 0 0 1-13.023 13.027z" class="cls-2" data-name="Path 745" transform="translate(49.037 31.196)"/>
            <path id="Path_746" d="M465.769 45.9a5.134 5.134 0 0 1-5.169-5.169v-5.762a5.134 5.134 0 0 1 5.169-5.169 5.134 5.134 0 0 1 5.169 5.169v5.766a5.134 5.134 0 0 1-5.169 5.165z" class="cls-7" data-name="Path 746" transform="translate(48.594 32.091)"/>
            <path id="Path_747" d="M427.169 45.9A5.134 5.134 0 0 1 422 40.73v-6.561A5.134 5.134 0 0 1 427.169 29a5.134 5.134 0 0 1 5.169 5.169v6.561a5.263 5.263 0 0 1-5.169 5.17z" class="cls-7" data-name="Path 747" transform="translate(48.821 32.11)"/>
            <path id="Rectangle_403" d="M0 0h121.281v24.157H0z" class="cls-3" data-name="Rectangle 403" transform="translate(434.536 79.752)"/>
            <g id="Group_214" data-name="Group 214" transform="translate(463.503 99.078)">
                <text id="_20" class="cls-8" data-name="20" transform="translate(0 49)">
                    <tspan x="0" y="0">20</tspan>
                </text>
            </g>
            <path id="Path_748" d="M127.643 301.552L28.73 328.094a11.364 11.364 0 0 1-14.017-8.052L.4 266.857a11.364 11.364 0 0 1 8.05-14.017l98.914-26.54a11.364 11.364 0 0 1 14.017 8.052l14.319 53.083a11.513 11.513 0 0 1-8.057 14.117z" class="cls-2" data-name="Path 748" transform="translate(51.308 24.614)"/>
            <path id="Path_749" d="M124.233 282.628a10.291 10.291 0 0 1-1.69 8.848 11 11 0 0 1-5.666 3.877l-35.788 9.643-29.525 7.953-16.7 4.473a10.161 10.161 0 0 1-5.169.1 10.466 10.466 0 0 1-7.555-7.356L12 271.792a10.363 10.363 0 0 1 7.356-12.725L101.368 237a10.363 10.363 0 0 1 12.725 7.356z" class="cls-9" data-name="Path 749" transform="translate(51.239 24.629)"/>
            <path id="Path_750" d="M81.3 305.292l-29.53 7.953-16.7 4.474a10.161 10.161 0 0 1-5.169.1l21.175-28.929a4.325 4.325 0 0 1 6.064-.994l5.666 4.076z" class="cls-10" data-name="Path 750" transform="translate(51.131 23.843)"/>
            <path id="Path_751" d="M81.3 305.292l-29.53 7.953-16.7 4.474a10.161 10.161 0 0 1-5.169.1l21.175-28.929a4.325 4.325 0 0 1 6.064-.994l5.666 4.076z" class="cls-6" data-name="Path 751" transform="translate(51.131 23.843)"/>
            <path id="Path_752" d="M122.879 291.64a11 11 0 0 1-5.666 3.877l-35.788 9.643-29.525 7.953 11.035-21.373 12.625-24.455a4.8 4.8 0 0 1 6.959-1.789z" class="cls-10" data-name="Path 752" transform="translate(51.002 24.266)"/>
            <ellipse id="Ellipse_342" cx="5.865" cy="5.865" class="cls-11" data-name="Ellipse 342" rx="5.865" ry="5.865" transform="translate(79.441 292.556)"/>
            <path id="Path_753" d="M55.748 273.78a4.606 4.606 0 0 0-5.567-3.281 4.389 4.389 0 0 0-2.784 2.187 3.577 3.577 0 0 0-2.286-.1 4.505 4.505 0 0 0-1.889 1.094 5.425 5.425 0 0 0-5.965-2.485 5.371 5.371 0 0 0-3.877 6.561 2.189 2.189 0 0 0-.8.1 3.163 3.163 0 0 0-2.286 3.976 3.36 3.36 0 0 0 .6 1.193 4.088 4.088 0 0 0 4.871 2.883l16.3-4.275a3.959 3.959 0 0 0 2.982-4.076 5.042 5.042 0 0 0 .701-3.777zm-18.987 7.754h-.1v-.1z" class="cls-3" data-name="Path 753" transform="translate(51.13 24.616)"/>
            <path id="Path_754" d="M97.209 251.388a2.838 2.838 0 0 0-3.38-1.988 3.128 3.128 0 0 0-1.69 1.292 2.185 2.185 0 0 0-1.392-.1 2.574 2.574 0 0 0-1.094.7 3.211 3.211 0 0 0-5.865 2.485.9.9 0 0 0-.5.1 1.887 1.887 0 0 0-1.392 2.386 4.848 4.848 0 0 0 .3.7 2.382 2.382 0 0 0 2.883 1.69l9.842-2.585a2.376 2.376 0 0 0 1.789-2.485 2.455 2.455 0 0 0 .499-2.195zm-11.333 4.672c-.1 0-.1-.1 0 0-.099-.099-.099 0 0 0z" class="cls-3" data-name="Path 754" transform="translate(50.826 25.362)"/>
            <path id="Path_755" d="M130.823 344.939l-102.393.8A11.372 11.372 0 0 1 16.9 334.4l-.4-54.974A11.372 11.372 0 0 1 27.833 267.9l102.393-.8a11.372 11.372 0 0 1 11.532 11.333l.4 54.974a11.433 11.433 0 0 1-11.335 11.532z" class="cls-2" data-name="Path 755" transform="translate(51.21 23.652)"/>
            <path id="Path_756" d="M132.371 325.8a10.375 10.375 0 0 1-10.339 10.438l-37.08.3-30.619.2-17.3.1a9.876 9.876 0 0 1-5.07-1.292A10.415 10.415 0 0 1 26.6 326.5l-.3-39.566A10.332 10.332 0 0 1 36.539 276.5l84.9-.7a10.332 10.332 0 0 1 10.438 10.239z" class="cls-9" data-name="Path 756" transform="translate(51.153 23.684)"/>
            <path id="Path_757" d="M85.086 336.754l-30.619.2-17.3.1a9.876 9.876 0 0 1-5.07-1.292l27.835-22.666a4.4 4.4 0 0 1 6.163.6l4.473 5.368z" class="cls-10" data-name="Path 757" transform="translate(51.118 23.158)"/>
            <path id="Path_758" d="M85.086 336.754l-30.619.2-17.3.1a9.876 9.876 0 0 1-5.07-1.292l27.835-22.666a4.4 4.4 0 0 1 6.163.6l4.473 5.368z" class="cls-6" data-name="Path 758" transform="translate(51.118 23.158)"/>
            <path id="Path_759" d="M128.661 334.08a10.427 10.427 0 0 1-6.462 2.286l-37.08.3-30.619.2 16.1-17.795L89 298.59a4.8 4.8 0 0 1 7.158 0z" class="cls-10" data-name="Path 759" transform="translate(50.986 23.375)"/>
            <ellipse id="Ellipse_343" cx="5.865" cy="5.865" class="cls-11" data-name="Ellipse 343" rx="5.865" ry="5.865" transform="translate(92.662 312.616)"/>
            <path id="Path_760" d="M68.342 299.858a4.561 4.561 0 0 0-4.573-4.573 4.508 4.508 0 0 0-3.281 1.392 4.078 4.078 0 0 0-2.187-.7 3.675 3.675 0 0 0-2.088.6 5.375 5.375 0 0 0-10.538 1.491 2.189 2.189 0 0 0-.8-.1 3.31 3.31 0 0 0-3.281 3.281 2.752 2.752 0 0 0 .3 1.292 3.988 3.988 0 0 0 3.976 3.976h16.9a3.952 3.952 0 0 0 3.877-3.181 4.7 4.7 0 0 0 1.695-3.478zm-20.379 2.684h-.1v-.1a.1.1 0 0 1 .099.1z" class="cls-3" data-name="Path 760" transform="translate(51.062 23.952)"/>
            <path id="Path_761" d="M114.1 288.575a2.673 2.673 0 0 0-2.684-2.684 2.776 2.776 0 0 0-1.988.8 2.3 2.3 0 0 0-2.585 0 3.193 3.193 0 0 0-3.082-2.386 3.31 3.31 0 0 0-3.281 3.281c-.2 0-.3-.1-.5-.1a1.994 1.994 0 0 0-1.98 1.983 2.34 2.34 0 0 0 .2.8 2.419 2.419 0 0 0 2.386 2.386h10.14a2.45 2.45 0 0 0 2.386-1.889 3.011 3.011 0 0 0 .988-2.191zm-12.228 1.69z" class="cls-3" data-name="Path 761" transform="translate(50.73 24.299)"/>
            <path id="Path_762" d="M317.665 349.978h-77.243a13.11 13.11 0 0 1-13.122-13.122v-95.634a13.11 13.11 0 0 1 13.122-13.122h77.242a13.11 13.11 0 0 1 13.122 13.122v95.633a13.11 13.11 0 0 1-13.121 13.123z" class="cls-6" data-name="Path 762" transform="translate(49.968 24.176)"/>
            <path id="Path_763" d="M317.665 344.978h-77.243a13.11 13.11 0 0 1-13.122-13.122v-95.634a13.11 13.11 0 0 1 13.122-13.122h77.242a13.11 13.11 0 0 1 13.122 13.122v95.633a13.11 13.11 0 0 1-13.121 13.123z" class="cls-3" data-name="Path 763" transform="translate(49.968 24.353)"/>
            <path id="Path_764" d="M312.586 257.267h-67a2.779 2.779 0 0 1-2.783-2.784 2.779 2.779 0 0 1 2.783-2.783h67a2.779 2.779 0 0 1 2.784 2.783 2.718 2.718 0 0 1-2.784 2.784z" class="cls-5" data-name="Path 764" transform="translate(49.877 25.344)"/>
            <path id="Path_765" d="M311.686 276.767h-67a2.779 2.779 0 0 1-2.784-2.784 2.779 2.779 0 0 1 2.784-2.783h67a2.779 2.779 0 0 1 2.784 2.783 2.845 2.845 0 0 1-2.784 2.784z" class="cls-5" data-name="Path 765" transform="translate(49.882 24.745)"/>
            <path id="Path_766" d="M311.686 296.167h-67a2.779 2.779 0 0 1-2.784-2.783 2.779 2.779 0 0 1 2.784-2.784h67a2.779 2.779 0 0 1 2.784 2.784 2.779 2.779 0 0 1-2.784 2.783z" class="cls-5" data-name="Path 766" transform="translate(49.882 24.149)"/>
            <path id="Path_767" d="M311.686 314.667h-67a2.779 2.779 0 0 1-2.784-2.783 2.779 2.779 0 0 1 2.784-2.784h67a2.779 2.779 0 0 1 2.784 2.784 2.845 2.845 0 0 1-2.784 2.783z" class="cls-5" data-name="Path 767" transform="translate(49.882 23.58)"/>
            <ellipse id="Ellipse_344" cx="29.823" cy="29.823" class="cls-12" data-name="Ellipse 344" rx="29.823" ry="29.823" transform="translate(293.671 293.416)"/>
            <ellipse id="Ellipse_345" cx="29.823" cy="29.823" class="cls-13" data-name="Ellipse 345" rx="29.823" ry="29.823" transform="translate(293.671 293.416)"/>
            <path id="Path_768" d="M221.686 354.465a6.627 6.627 0 0 1-.8-9.345l23.759-28.034a6.627 6.627 0 0 1 9.345-.8 6.627 6.627 0 0 1 .8 9.345l-23.759 28.034a6.627 6.627 0 0 1-9.345.8z" class="cls-2" data-name="Path 768" transform="translate(50.015 22.782)"/>
            <path id="Path_769" d="M414.529 248.34H402.5v-6.263a3.776 3.776 0 0 1 3.778-3.778h4.473a3.776 3.776 0 0 1 3.778 3.778v6.263z" class="cls-2" data-name="Path 769" transform="translate(48.936 25.693)"/>
            <path id="Path_770" d="M489.371 332.488h-84.5a21.659 21.659 0 0 1-21.671-21.672v-43.144A21.659 21.659 0 0 1 404.872 246h84.5a21.659 21.659 0 0 1 21.672 21.672v43.144a21.787 21.787 0 0 1-21.673 21.672z" class="cls-2" data-name="Path 770" transform="translate(49.05 24.218)"/>
            <path id="Rectangle_404" d="M0 0h127.842v32.408H0z" class="cls-9" data-name="Rectangle 404" transform="translate(432.25 298.525)"/>
            <path id="Rectangle_405" d="M0 0h127.842v23.66H0z" class="cls-3" data-name="Rectangle 405" transform="translate(432.25 303.026)"/>
            <ellipse id="Ellipse_346" cx="24.256" cy="24.256" class="cls-7" data-name="Ellipse 346" rx="24.256" ry="24.256" transform="translate(471.915 289.351)"/>
            <ellipse id="Ellipse_347" cx="24.256" cy="24.256" class="cls-14" data-name="Ellipse 347" rx="24.256" ry="24.256" transform="translate(471.915 289.351)"/>
            <path id="Path_771" d="M490.7 270.236h-12.629a4.879 4.879 0 0 1-4.871-4.871v-.994a4.879 4.879 0 0 1 4.871-4.871H490.7a4.879 4.879 0 0 1 4.871 4.871v.994a4.879 4.879 0 0 1-4.871 4.871z" class="cls-4" data-name="Path 771" transform="translate(48.52 25.028)"/>
            <path id="Path_772" d="M469.46 245.92H429v-6.859a6.619 6.619 0 0 1 6.561-6.561H462.9a6.619 6.619 0 0 1 6.561 6.561z" class="cls-2" data-name="Path 772" transform="translate(48.78 25.825)"/>
            <path id="Rectangle_406" d="M0 0h40.46v2.684H0z" class="cls-6" data-name="Rectangle 406" transform="translate(477.78 269.04)"/>
            <path id="Rectangle_407" d="M0 0h12.029v2.684H0z" class="cls-6" data-name="Rectangle 407" transform="translate(451.536 269.04)"/>
            <ellipse id="Ellipse_348" cx="9.345" cy="9.345" class="cls-15" data-name="Ellipse 348" rx="9.345" ry="9.345" transform="translate(486.827 304.365)"/>
            <path id="Rectangle_408" d="M0 0h121.281v7.356H0z" class="cls-6" data-name="Rectangle 408" transform="translate(434.536 96.262)"/>
            <ellipse id="Ellipse_349" cx="6.462" cy="6.462" class="cls-12" data-name="Ellipse 349" rx="6.462" ry="6.462" transform="translate(333.833 146.023)"/>
            <ellipse id="Ellipse_350" cx="2.784" cy="2.784" class="cls-12" data-name="Ellipse 350" rx="2.784" ry="2.784" transform="translate(326.974 141.056)"/>
            <ellipse id="Ellipse_351" cx="4.275" cy="4.275" class="cls-6" data-name="Ellipse 351" rx="4.275" ry="4.275" transform="translate(77.95 66.208)"/>
            <ellipse id="Ellipse_352" cx="2.286" cy="2.286" class="cls-6" data-name="Ellipse 352" rx="2.286" ry="2.286" transform="translate(84.213 75.541)"/>
            <ellipse id="Ellipse_353" cx="2.784" cy="2.784" class="cls-12" data-name="Ellipse 353" rx="2.784" ry="2.784" transform="translate(274.386 370.579)"/>
            <ellipse id="Ellipse_354" cx="1.392" cy="1.392" class="cls-12" data-name="Ellipse 354" rx="1.392" ry="1.392" transform="translate(280.35 368.204)"/>
            <ellipse id="Ellipse_355" cx="6.163" cy="6.163" class="cls-12" data-name="Ellipse 355" rx="6.163" ry="6.163" transform="translate(442.986 278.496)"/>
            <ellipse id="Ellipse_356" cx="2.784" cy="2.784" class="cls-12" data-name="Ellipse 356" rx="2.784" ry="2.784" transform="translate(451.834 291.099)"/>
            <ellipse id="Ellipse_357" cx="6.362" cy="6.362" class="cls-12" data-name="Ellipse 357" rx="6.362" ry="6.362" transform="translate(442.589 146.122)"/>
            <ellipse id="Ellipse_358" cx="2.684" cy="2.684" class="cls-12" data-name="Ellipse 358" rx="2.684" ry="2.684" transform="translate(448.951 138.15)"/>
            <path id="Path_773" d="M137.554 338.763c-1.591 2.187-5.965 2.784-7.356 1.789-1.491-.994.994-2.883 2.684-5.169 1.591-2.187 3.579-3.579 5.07-2.485 1.391.894 1.192 3.579-.398 5.865z" class="cls-12" data-name="Path 773" transform="translate(50.543 22.81)"/>
            <ellipse id="Ellipse_359" cx="1.491" cy="1.69" class="cls-12" data-name="Ellipse 359" rx="1.491" ry="1.69" transform="translate(187.799 350.746)"/>
        </g>
    </g>
</svg>
