<svg xmlns="http://www.w3.org/2000/svg" viewBox="0 0 677 930">
    <defs>
        <style>
            .cls-1,.cls-4{fill:#295763}.cls-1,.cls-15,.cls-16{opacity:.3}.cls-2{fill:#194049}.cls-3,.cls-8{opacity:.2}.cls-16,.cls-5{fill:#fff}.cls-6{fill:#b3b6b7}.cls-7{fill:#a9e1f7}.cls-8{fill:#050505}.cls-9{fill:#e2e2e2}.cls-10{fill:#00beff}.cls-11{fill:#ffc4bf}.cls-12{fill:#f7aca9}.cls-13,.cls-15{fill:#001145}.cls-14,.cls-17{fill:none;stroke-miterlimit:10}.cls-14{stroke:#00beff}.cls-17{stroke:#001145;stroke-width:.5px}
        </style>
    </defs>
    <g id="illustration-1" transform="translate(-451.346 -1195.262)">
        <rect id="Rectangle_409" width="677" height="930" class="cls-1" data-name="Rectangle 409" rx="10" transform="translate(451.346 1195.262)"/>
        <g id="book" transform="translate(633.843 1801.6)">
            <path id="Path_776" d="M340.978 456.675l-131.373 79.077L0 414.29l140.334-83.61a10.947 10.947 0 0 1 11.071-.105l189.362 107.017a11.031 11.031 0 0 1 .211 19.083z" class="cls-2" data-name="Path 776" transform="translate(0 -316.156)"/>
            <path id="Path_777" d="M345.678 477.57l-131.373 79.076L4.7 435.29l140.334-83.61a10.947 10.947 0 0 1 11.071-.105l189.362 106.911a11.032 11.032 0 0 1 .211 19.084z" class="cls-3" data-name="Path 777" transform="translate(.255 -315.014)"/>
            <path id="Path_779" d="M209.605 532.025L0 412.672V397.7l209.605 121.251z" data-name="Path 779" transform="translate(0 -312.428)"/>
            <path id="Path_780" d="M340.978 444.375l-131.373 79.077L0 401.99l140.334-83.61a10.947 10.947 0 0 1 11.071-.105l189.362 106.911a11.124 11.124 0 0 1 .211 19.189z" class="cls-4" data-name="Path 780" transform="translate(0 -316.824)"/>
            <path id="Path_781" d="M327.733 449.3L201 526.265v-8.435l126.944-76.23z" class="cls-5" data-name="Path 781" transform="translate(10.925 -310.042)"/>
        </g>
        <g id="phone" transform="rotate(-11 8102.55 -1636.35)">
            <path id="Path_782" d="M584.65 0l-.1 27.07s.679 9.994-30.757 23.965L203.245 251.683s-30.175 11.061-47.542-3.1l-150.486-88s-8.635-1.941-3.687-37.84" class="cls-6" data-name="Path 782" transform="translate(0 102.689)"/>
            <path id="Path_775" d="M568.157 86.777s34.832 17.173-.194 32.5L201.209 331.085s-30.078 10.091-49-5.53c-10.673-8.732-148.06-86.546-148.06-86.546s-15.427-17.562 13.2-27.555L372.943 7.8s29.69-19.793 65.977 3.687z" class="cls-3" data-name="Path 775" transform="translate(10.865 57.633)"/>
            <path id="Path_783" d="M568.157 86.874s34.832 17.173-.194 32.5L201.209 331.086s-30.078 10.091-49-5.53c-10.673-8.732-148.06-86.546-148.06-86.546s-15.427-17.562 13.2-27.555L373.04 7.8s29.69-19.793 65.977 3.687z" class="cls-5" data-name="Path 783" transform="translate(1.163)"/>
            <path id="Path_784" d="M492.4 98.48L450 123.125 170.764 285.738 51.132 216.366 0 186.773 322.608 0z" class="cls-7" data-name="Path 784" transform="translate(52.08 19.053)"/>
            <path id="Path_785" d="M492.4 98.48L450 123.125 170.764 285.738 51.132 216.366 0 186.773 322.608 0z" class="cls-8" data-name="Path 785" transform="translate(52.468 19.636)"/>
            <path id="Path_786" d="M398.869 68.888L119.632 231.5 0 162.129 280.111 0z" class="cls-7" data-name="Path 786" transform="translate(103.212 73.29)"/>
            <path id="Path_787" d="M36.966 9.579c0 5.919-9.411 11.837-19.211 11.837S0 16.662 0 10.744 8.15.75 17.756.071c9.799-.679 19.21 3.59 19.21 9.508z" class="cls-9" data-name="Path 787" transform="translate(85.651 257.955)"/>
            <path id="Path_788" d="M36.966 9.579c0 5.919-9.411 11.837-19.211 11.837S0 16.662 0 10.744 8.15.75 17.756.071c9.799-.679 19.21 3.59 19.21 9.508z" class="cls-5" data-name="Path 788" transform="translate(85.651 255.917)"/>
            <path id="Path_789" d="M50.259 26.564c-.291-.194-.485-.388-.776-.582-.485-.291-.97-.582-1.358-.873l-4.366-2.62A296.575 296.575 0 0 0 37.84 19c-2.232-1.358-4.56-2.717-6.792-4.075-2.329-1.358-4.657-2.814-6.986-4.172-2.135-1.261-4.366-2.62-6.5-3.881-1.746-1.067-3.59-2.135-5.336-3.2C10.285 2.5 8.344 1.046 6.21.367 4.172-.312 0-.312 0 2.7a2.318 2.318 0 0 0 .485 1.354c.97 1.552 2.814 2.329 4.366 3.2 1.455.873 2.814 1.649 4.269 2.523a196.419 196.419 0 0 1 6.016 3.59l6.986 4.075c2.329 1.358 4.754 2.814 7.083 4.172 2.135 1.261 4.269 2.523 6.307 3.687 1.552.97 3.2 1.843 4.754 2.814.485.291.97.582 1.358.776a19.425 19.425 0 0 0 4.657 1.843 10.854 10.854 0 0 0 3.493.485 2.635 2.635 0 0 0 1.649-.582c.485-.485.291-1.164.194-1.843a4.418 4.418 0 0 0-.776-1.843c-.291-.096-.388-.29-.582-.387z" class="cls-6" data-name="Path 789" transform="translate(438.433 35.277)"/>
            <path id="Path_790" d="M50.259 26.564c-.291-.194-.485-.388-.776-.582-.485-.291-.97-.582-1.358-.873l-4.366-2.62A296.575 296.575 0 0 0 37.84 19c-2.232-1.358-4.56-2.717-6.792-4.075-2.329-1.358-4.657-2.814-6.986-4.172-2.135-1.261-4.366-2.62-6.5-3.881-1.746-1.067-3.59-2.135-5.336-3.2C10.285 2.5 8.344 1.046 6.21.367 4.172-.312 0-.312 0 2.7a2.318 2.318 0 0 0 .485 1.354c.97 1.552 2.814 2.329 4.366 3.2 1.455.873 2.814 1.649 4.269 2.523a196.419 196.419 0 0 1 6.016 3.59l6.986 4.075c2.329 1.358 4.754 2.814 7.083 4.172 2.135 1.261 4.269 2.523 6.307 3.687 1.552.97 3.2 1.843 4.754 2.814.485.291.97.582 1.358.776a19.426 19.426 0 0 0 4.657 1.843 10.854 10.854 0 0 0 3.493.485 2.635 2.635 0 0 0 1.649-.582c.485-.485.291-1.164.194-1.843a4.418 4.418 0 0 0-.776-1.843c-.291-.096-.388-.29-.582-.387z" class="cls-5" data-name="Path 790" transform="translate(438.433 33.337)"/>
            <ellipse id="Ellipse_365" cx="3.493" cy="2.523" class="cls-6" data-name="Ellipse 365" rx="3.493" ry="2.523" transform="translate(494.902 69.312)"/>
            <ellipse id="Ellipse_366" cx="3.493" cy="2.523" class="cls-5" data-name="Ellipse 366" rx="3.493" ry="2.523" transform="translate(494.902 68.342)"/>
            <path id="Path_791" d="M135.253 52.594a39.289 39.289 0 0 1-7.374 20.763 45.386 45.386 0 0 1-4.851 5.822c-12.71 13.2-33.668 21.734-55.4 23.868a69.555 69.555 0 0 1-25.228-2.135 65.56 65.56 0 0 1-11.255-4.269C12.419 87.62 0 70.446 0 52.691a37.711 37.711 0 0 1 1.843-11.449 6.177 6.177 0 0 0 .194-.679A40.816 40.816 0 0 1 6.4 31.83l.582-.873C18.435 14.269 42.4 2.723 69.179.491 80.24-.382 89.651-.091 97.7 1.364a59.9 59.9 0 0 1 10.382 2.717c20.767 7.471 28.335 24.935 27.171 48.513z" class="cls-4" data-name="Path 791" transform="translate(260.49 93.853)"/>
            <path id="Path_792" d="M36.869 2.717C31.824 3.881 12.71 9.994 7.762 33.959L0 34.929S6.889 6.21 26.488 0z" class="cls-10" data-name="Path 792" transform="translate(331.803 95.218)"/>
            <path id="Path_793" d="M36.093 9.4l-7.374 2.62S16.106-1.658 0 12.12a40.82 40.82 0 0 1 4.366-8.732l.582-.873C10.285-.687 21.054-2.919 36.093 9.4z" class="cls-10" data-name="Path 793" transform="translate(262.624 122.393)"/>
            <path id="Path_794" d="M11.257 40.265A65.561 65.561 0 0 1 0 36C-.289 15.815 25.714.873 25.714.873L33.379 0C7.667 17.367 9.414 34.056 11.257 40.265z" class="cls-10" data-name="Path 794" transform="translate(291.632 154.403)"/>
            <path id="Path_795" d="M44.631 20.284a45.392 45.392 0 0 1-4.851 5.821C24.45.685 0 6.216 0 6.216L10.285.1c21.83-1.549 31.727 14.848 34.346 20.184z" class="cls-10" data-name="Path 795" transform="translate(343.737 146.926)"/>
            <path id="Path_796" d="M2.134 1.526S2.232 8.123 0 8.9c0 0 4.56 6.792 5.142 7.083 0 0 .776-10.091 5.53-12.516.001.096-3.686-6.308-8.538-1.941z" class="cls-11" data-name="Path 796" transform="translate(380.606 106.791)"/>
            <path id="Path_797" d="M70.185 17.076S45.735 29.787 42.63 34.25c-.291.194-4.657 2.62-10.188 5.336l-19.987 7.471a10.363 10.363 0 0 1-2.426.1 3.1 3.1 0 0 1-1.358-.291S-9.473 29.884 6.731 17.95h.291c.776-.1 2.814-.388 5.433-.776 7.083-.873 18.241-3.59 18.241-3.59 1.067-.679 2.426-1.455 3.978-2.329C39.331 9.605 44.958 7.568 46.7 6.5a21.021 21.021 0 0 1 1.844-1.358A37.108 37.108 0 0 1 62.326 0a8.883 8.883 0 0 1 1.455 1.358 24.116 24.116 0 0 1 5.627 11.255 20.34 20.34 0 0 1 .777 4.463z" class="cls-11" data-name="Path 797" transform="translate(317.31 112.294)"/>
            <path id="Path_798" d="M3.325 30.907s5.142-.873 15.427-6.889c0 0 42.109-19.793 65.1-22.607 0 0 14.069-3.59 27.846.679 0 0-3.3 12.225-8.344 12.516 0 0-42.885-.582-45.8.776 0 0-31.63 13.972-37.549 12.516 0 0-4.754 6.4-7.956 4.948a11.041 11.041 0 0 0-5.336.776s-3.008.97-4.075.582c0 0-4.172-1.455-2.038-2.523.008.1 1.754-.581 2.725-.774z" class="cls-12" data-name="Path 798" transform="translate(216.997 129.317)"/>
            <path id="Path_799" d="M40.388 6.695c-8.441 3.2-17.464 6.21-20.375 5.53 0 0-4.754 6.4-7.956 4.948a11.041 11.041 0 0 0-5.336.776s-3.008.97-4.075.582c0 0-4.172-1.455-2.038-2.523a22.608 22.608 0 0 1 2.717-.873s5.142-.873 15.427-6.889c0 0 7.956-3.784 18.92-8.247" class="cls-8" data-name="Path 799" transform="translate(224.759 158.575)"/>
            <path id="Path_800" d="M24.044 20.637C29.866 12 36.27 2.882 37.919 1.426c0 0 8.926-5.239 49.095 4.366 0 0 13.68-1.649 4.948 7.471 0 0-28.04 5.627-46.766-3.008 0 0-19.5 23.868-27.361 27.749 0 0-2.717 7.956-6.889 7.665 0 0-2.329.485-7.083 3.687 0 0-2.62 1.552-3.784.388 0 0-1.941-1.843 13.389-13.389 0 .1 5.045-7.568 10.576-15.718" class="cls-8" data-name="Path 800" transform="translate(239.744 145.215)"/>
            <path id="Path_801" d="M13.469 35.2S34.62 2.892 37.919.079c0 0 8.538-1.455 48.707 8.15 0 0 15.427 7.083 6.695 16.3 0 0-33.765-1.649-52.49-10.285 0 0-15.136 18.532-22.995 22.413 0 0-2.717 7.956-6.889 7.665 0 0-2.329.485-7.083 3.687 0 0-2.62 1.552-3.784.388-.001.194-1.941-1.649 13.389-13.197z" class="cls-11" data-name="Path 801" transform="translate(233.729 135.696)"/>
            <path id="Path_802" d="M42.8 8.721s-6.4 21.443-6.889 25.226c0 0-21.054-.582-23.286 0 0 0-7.665-3.3-12.613 1.552 0 0-.291 3.493 2.523 1.649 0 0 5.53-1.94 9.508 0 0 0 21.928 7.18 29.787 6.695 0 0 14.942-30.757 11.061-40.556C48.909-6.512 42.8 8.721 42.8 8.721z" class="cls-11" data-name="Path 802" transform="translate(334.608 124.725)"/>
            <path id="Path_803" d="M0 6.113a6.553 6.553 0 0 1 3.008-.194S22.8.97 31.921 0c0 0 16.2 3.1 35.8 14.845 0 0-1.552 8.15-13 4.56 0 0-17.367-8.635-20.666-11.934 0 0-24.256-.679-27.846.873a39.416 39.416 0 0 0-5.433.582" class="cls-11" data-name="Path 803" transform="translate(311.913 98.905)"/>
            <path id="Path_804" d="M3.7 3.668s-12.8 18.241 9.22 16.494c0 0 7.18-11.546 4.851-14.651 0 0-8.344-11.061-14.071-1.843z" class="cls-11" data-name="Path 804" transform="translate(378.359 90.192)"/>
            <path id="Path_805" d="M12.479 26.559s4.269-1.261 7.956-6.695c0 0 8.926-14.748-4.657-19.4 0 0-12.225-2.911-15.524 5.919 0 0-2.037 7.471 5.433 4.657a10.729 10.729 0 0 1 10.188 3.687s6.6-.582.485 3.3a35.8 35.8 0 0 1-3.881 8.532z" class="cls-13" data-name="Path 805" transform="translate(376.666 85.347)"/>
            <path id="Path_806" d="M13.778 6.986A7.147 7.147 0 0 1 6.5 13.972c-3.978 0-6.5-1.455-6.5-5.336S2.523 0 6.5 0a7.147 7.147 0 0 1 7.278 6.986z" class="cls-13" data-name="Path 806" transform="translate(393.511 81.343)"/>
            <path id="Path_807" d="M0 26.1L1.067 0l5.24 2.135" class="cls-14" data-name="Path 807" transform="translate(314.824 83.187)"/>
            <path id="Path_808" d="M0 .679L13.1 0l-1.263 17.562-5.919.679z" class="cls-15" data-name="Path 808" transform="translate(306.868 91.531)"/>
            <path id="Path_809" d="M9.605 0l-.679 9.411-5.919.679L0 1.261" class="cls-16" data-name="Path 809" transform="translate(309.778 99.681)"/>
            <g id="Group_216" data-name="Group 216" transform="translate(393.085 86.389)">
                <path id="Path_810" d="M1.105 0a1.575 1.575 0 0 1 .485.873c0 .291 0 .582.1.679 0 .1.1 0 .1.194a6.2 6.2 0 0 1 .194.679 1.925 1.925 0 0 0 .582 1.261 5.115 5.115 0 0 0 1.455.485 1.657 1.657 0 0 1 .873.776c.194.388.194.582.291.776.194.485.291.97.388 1.261a1.91 1.91 0 0 0 .388.776l1.063 1.069-.1.194a3.563 3.563 0 0 1-1.746.1 2.363 2.363 0 0 1-1.55-1.361 3.326 3.326 0 0 1-.291-1.552V5.142a3.461 3.461 0 0 0-1.067-.97C1.882 3.881 1.3 3.59.814 3.3.62 3.1.329 2.911.232 2.717a1.667 1.667 0 0 1-.194-1.262C.329.582.62.679.911.1z" class="cls-10" data-name="Path 810"/>
            </g>
            <path id="Path_812" d="M67.141 17.181c-21.927-1.164-27.555 17.173-27.555 17.173a36.653 36.653 0 0 1-5.53 3.2c-1.455.679-3.008 1.358-4.657 2.135L9.411 47.162c-1.746.582-2.717.873-2.717.873a5.748 5.748 0 0 1 .388-.776C11.061 37.556 0 31.735 0 31.735c5.239-1.455 6.695-12.613 3.881-13.681-.194-.1.194-.194.194-.194a11.732 11.732 0 0 0 2.62-.291c.776-.1 1.649-.291 2.62-.388 7.083-.873 18.241-3.59 18.241-3.59 1.067-.679 2.426-1.455 3.978-2.329 3.881-1.941 9.023-4.172 13.875-6.016C52.49 2.433 56.954.493 57.342.3A5.65 5.65 0 0 1 58.7.007c.97-.1 1.455.776 1.941 1.455.388.485.582.582.582.679-14.166 1.843-29.3 17.27-29.3 17.27-5.239 7.18 2.426 3.2 2.426 3.2 8.829-4.366 28.04-9.023 31.921-9.9a3.034 3.034 0 0 0 .679-.194c1.939 3.305.192 4.664.192 4.664z" class="cls-13" data-name="Path 812" transform="translate(320.354 112.19)"/>
            <path id="Path_813" d="M34.056 19.987c-1.455.679-3.008 1.358-4.657 2.135L9.411 29.593c-1.746.582-2.717.873-2.717.873a5.751 5.751 0 0 1 .388-.776C11.061 19.987 0 14.166 0 14.166 5.239 12.71 6.695 1.552 3.881.485c-.194-.1.194-.194.194-.194A11.732 11.732 0 0 0 6.695 0c.388 2.911 1.164 10.576-1.94 14.36 0 0 5.627 6.016 6.5 9.508 0 0 20.666-5.142 22.9-10.77-.002.102-.973 4.561-.099 6.889z" class="cls-3" data-name="Path 813" transform="translate(320.354 129.759)"/>
            <path id="Path_814" d="M1.281.011S10.3-.377 2.543 3.5c0-.093-4.754 2.041-1.262-3.489z" class="cls-11" data-name="Path 814" transform="translate(310.34 105.201)"/>
            <ellipse id="Ellipse_367" cx="1.94" cy="1.358" class="cls-13" data-name="Ellipse 367" rx="1.94" ry="1.358" transform="rotate(-66.953 268.606 -237.453)"/>
            <ellipse id="Ellipse_368" cx="1.94" cy="1.358" class="cls-13" data-name="Ellipse 368" rx="1.94" ry="1.358" transform="rotate(-66.953 265.204 -235.018)"/>
            <path id="Path_815" d="M4.269 1.7S2.329-.339 0 .049" class="cls-17" data-name="Path 815" transform="translate(379.636 99.729)"/>
        </g>
        <g id="coffee" transform="translate(633.776 1427.091)">
            <path id="Path_774" d="M218.8 160.186c1.16-5.588 2.32-11.176 3.163-16.87 1.476-7.8 2.952-15.5 4.534-23.3.105-.527 1.16-6.853 1.371-6.853 4.007-4.534 6.326-9.805 6.326-15.5 0-8.435-5.272-16.132-13.812-21.931-2.634-11.281-18.027-20.032-36.689-20.032S149.637 64.346 147 75.733c-8.54 5.694-13.812 13.39-13.812 21.931a22.135 22.135 0 0 0 4.85 13.6c.422 2.741.738 5.588 1.16 8.329.843 6.537 1.792 13.179 2.741 19.716.844 6.748 1.792 13.5 2.741 20.244-12.758 6.221-20.982 15.6-20.982 26.043 0 18.662 25.621 33.739 57.357 33.739s57.357-15.077 57.357-33.739c.002-10.227-7.59-19.296-19.612-25.41z" class="cls-3" data-name="Path 774" transform="translate(-123.7 -35.351)"/>
            <ellipse id="Ellipse_360" cx="57.357" cy="33.739" class="cls-2" data-name="Ellipse 360" rx="57.357" ry="33.739" transform="translate(13.496 96.052)"/>
            <ellipse id="Ellipse_361" cx="57.357" cy="33.739" class="cls-4" data-name="Ellipse 361" rx="57.357" ry="33.739" transform="translate(13.496 93.627)"/>
            <path id="Path_778" d="M150.1 89c.422 2.741.738 5.588 1.16 8.329.843 6.537 1.792 13.179 2.741 19.716.949 7.17 1.9 14.234 2.952 21.4.422 3.374 1.16 6.642 1.476 9.911.422 3.479.633 6.959 1.16 10.438l.316 1.9a22.008 22.008 0 0 0 1.9 5.8c1.16 2.214 2.847 3.374 4.745 4.85a54.378 54.378 0 0 0 6.432 4.534 44.176 44.176 0 0 0 14.655 5.9c9.278 1.687 18.557-.738 26.464-5.9 3.8-2.53 8.329-5.588 10.649-9.489 2.109-3.69 2.214-8.54 2.952-12.652 1.9-10.86 4.639-21.614 6.326-32.58 1.476-7.8 2.952-15.5 4.534-23.3.105-.527 1.16-6.853 1.371-6.853C239.931 90.9 150.1 89 150.1 89z" class="cls-5" data-name="Path 778" transform="translate(-122.265 -33.541)"/>
            <ellipse id="Ellipse_362" cx="50.503" cy="31.841" class="cls-4" data-name="Ellipse 362" rx="50.503" ry="31.841" transform="translate(22.985 10.122)"/>
            <ellipse id="Ellipse_363" cx="37.008" cy="23.407" class="cls-2" data-name="Ellipse 363" rx="37.008" ry="23.407" transform="translate(36.481 10.016)"/>
            <ellipse id="Ellipse_364" cx="37.008" cy="23.407" class="cls-4" data-name="Ellipse 364" rx="37.008" ry="23.407" transform="translate(36.481)"/>
        </g>
    </g>
</svg>
