<svg xmlns="http://www.w3.org/2000/svg" viewBox="0 0 375.063 372.806">
    <defs>
        <style>
            .cls-1{fill:#d04d59}.cls-2{opacity:.3}.cls-3{fill:#fdb636}.cls-4{fill:#2d4496}.cls-5{fill:#594fd2}.cls-6{fill:#fff}.cls-7{fill:#fa7146}.cls-8{fill:#2e3393}.cls-9{fill:#f29c35}.cls-10{fill:#4ea2fe}.cls-11{fill:url(#linear-gradient)}.cls-12{fill:#322b74}.cls-13{fill:#8ec2fe}
        </style>
        <linearGradient id="linear-gradient" x1=".762" x2=".22" y1="1.106" y2=".071" gradientUnits="objectBoundingBox">
            <stop offset="0" stop-color="#0ff" stop-opacity=".302"/>
            <stop offset="1" stop-color="#fff" stop-opacity=".102"/>
        </linearGradient>
    </defs>
    <g id="illust-2" transform="translate(.004 .009)">
        <path id="Path_114" d="M172.276 99.318s.185 3.017-.8 4.372a2.462 2.462 0 0 0-.369 2.34l.677 1.724a.365.365 0 0 0 .554.185l2.71-1.847a44.512 44.512 0 0 1 8.129-.677s8.129-.862 21.676 19.152a58.452 58.452 0 0 0 36.333 22.169s16.314 7.264 45.26 8.004l-1.232-6.158-.985-4.865a201.875 201.875 0 0 0-24.447-1.293s-29.682-7.513-36.209-10.838c0 0-21.122-15.4-29-21.738-.005 0-19.526-14.225-22.297-10.53z" class="cls-1" data-name="Path 114" transform="translate(-65.682 -37.925)"/>
        <path id="Path_115" d="M279.092 585.843c0 4.064-4.68-2.586-14.779 3.695-12.932 8.005-33.254 8.005-38.8-6.774-1.416-3.818 8.621-7.39 22.169-1.847 11.027 4.495 31.41.8 31.41 4.926z" class="cls-2" data-name="Path 115" transform="translate(-86.593 -222.09)"/>
        <path id="Path_116" d="M459.951 93.1s-17.181 12.809-17.858 13.548c0 0-5.542 5.542-6.774 7.39 0 0-13.117 15.4-21.184 22.415a27.152 27.152 0 0 1-3.756 2.833s-6.466 6.1-17.243 3.387c0 0-12.439-3.325-17.181-8.991a59.175 59.175 0 0 1-5.727-5.481 19.736 19.736 0 0 1-3.079-4.372 36.591 36.591 0 0 1-1.909 4.988s-11.085 22.046-9.976 24.509c0 0 72.234 14.1 78.823 31.96 0 0 6.158 8.621-5.727 21.122 0 0-17.243 16.627-18.474 16.011 0 0-25.618 16.873-32.946 29.189a14.908 14.908 0 0 0-1.6 3.572s-3.51 8.621-4.064 8.683c0 0 .062.123.246.431a10.7 10.7 0 0 1-.924.8 5.461 5.461 0 0 0 1.047-.493c2.217 4.126 12.993 23.955 17.366 23.031 0 0 6.528-.185 6.712 4.619a11.956 11.956 0 0 1-2.094 2.771 13.4 13.4 0 0 1-1.663.924.855.855 0 0 1-.616.431c-.185.062-.431.062-.616.123h-.554s-39.719-5.6-48.957-16.073a7.2 7.2 0 0 1-2.586-6.774 15.81 15.81 0 0 1 3.325-7.328l5.234-5.3a.555.555 0 0 0 .308-.062c4.126-.924 9.483-8.19 13.609-14.779 3.695-5.912 6.4-11.392 6.4-11.392s.493-26.911 13.363-35.594l4.742-3.88s-27.1 11.7-43.106 9.237c0 0-20.937 61.581-34.485 65.891 0 0-15.4 13.24-20.814 13.425 0 0-28.881 39.9-28.881 41.444 0 0-5.419 7.882-7.082 8.621 0 0 11.208 24.94 15.026 24.016 0 0 6.651 4.311 5.542 7.882 0 0 .924 4-7.082 2.586 0 0-39.042-11.762-43.045-30.359a8.4 8.4 0 0 1 4.434-7.513s3.818-3.325 8.129-3.51c0 0 1.909-4.68 3.88-9.422 0 0 11.577-30.174 13.425-31.9 0 0 0-19.583 10.161-29.251 0 0 6.9-4.311 17.119-14.04 0 0 5.05-19.4 4-24.324 0 0-8.313-30.79 10.961-52.959 0 0 12.131-15.087 19.706-19.829a1.346 1.346 0 0 0 .308-.185s-6.9-20.814-11.023-38.242c-1.17-5.789-2.032-10.53-2.463-12.624a7.545 7.545 0 0 1-.123-1.17c-.062-.616-.123-1.17-.185-1.724a10.993 10.993 0 0 1-.123-1.416 15.614 15.614 0 0 1 .062-4.619c0-.123.062-.185.062-.308-.431.308-7.328 4.926-14.533 4.5a16.948 16.948 0 0 1-7.636-2.956h-.052a.191.191 0 0 0-.123.062 92.778 92.778 0 0 0-14.41 7.39.06.06 0 0 0-.062.062c-.616.431-1.293.862-1.847 1.293-3.141 2.34-5.6 4.926-6.035 7.513a17.411 17.411 0 0 0-.677 1.909c0 .062 0 .062-.062.123l-.369.739a4.238 4.238 0 0 0-.185.493c-2.094 4.557-6.343 13.548-8.005 16.38-.185.246-.123.185-.185.246a2.879 2.879 0 0 0-.308.369 1.968 1.968 0 0 0 .062.431v.493c0 .369.062.862.123 1.416v.369c.062.739.185 1.6.308 2.586 0 .185.062.369.062.554.062.616.185 1.17.246 1.847 0 .123.062.246.062.369.123.616.246 1.293.37 1.971.062.185.062.369.123.616.246 1.17.554 2.4.924 3.572l.185.554c.123.308.185.616.308.924a3.925 3.925 0 0 1 .123.431 23.08 23.08 0 0 0 1.293 3.079c.062.123.123.185.123.308a9.8 9.8 0 0 0 .8 1.355c.062.123.185.246.246.369.062.062.123.123.123.185.123.123.185.308.308.431.123.185.308.308.431.493l.369.369a3.143 3.143 0 0 1-.062.554v.062a.226.226 0 0 1-.062.185.06.06 0 0 1-.062.062l-.185.369-.062.062-.123.123c-.062.062-.062.062-.123.062-.062 0-.062.062-.123.062-.062.062-.123.062-.246.062h-.185a2.937 2.937 0 0 1-1.478-.493c-.062-.062-.123-.062-.185-.123s-.123-.062-.185-.123c-.185-.123-.431-.308-.616-.431-.062-.062-.185-.123-.246-.185a3.2 3.2 0 0 0-.185-.308 3.339 3.339 0 0 1-.369-.677c-.062-.062-.062-.123-.123-.185a1.288 1.288 0 0 0-.246-.369c-.062-.123-.123-.185-.185-.308a.467.467 0 0 1-.123-.246 1.289 1.289 0 0 0-.246-.369c-.431-.677-.8-1.478-1.232-2.155-.123-.185-.185-.369-.308-.554-.062-.062-.062-.123-.123-.246-.062-.062-.062-.185-.123-.246-.062-.185-.185-.308-.246-.493v-.062a5.157 5.157 0 0 1-.493-1.17 4.334 4.334 0 0 0-1.108.985c-.062.062-.062.123-.123.123-.062.062-.123.185-.185.246-.062.123-.123.185-.185.308l-.185.369c-.062.123-.123.185-.185.308-.062.062-.062.185-.123.246s-.062.185-.123.246a3.531 3.531 0 0 0-.246.862c0 .123-.062.185-.062.308a7.025 7.025 0 0 0 0 1.971v.616c.062 1.6.246 5.727.493 7.082 0 .123 0 .185.062.246v.062a2.2 2.2 0 0 1-1.293.739c-.739.062-1.663-.431-2.463-2.833 0 0-1.355-4.619-.985-7.944a2.133 2.133 0 0 0-1.232 2.155 18.646 18.646 0 0 0 .123 3.572s-1.416 2.463-3.141-1.108a14.137 14.137 0 0 1-.308-3.2s-.862-.369-1.6 2.155c0 0-2.463 2.463-2.956-1.355s4.188-12.624 4.742-13.671 2.34-5.05 2.4-7.143c.123-2.094 3.572-14.41 4.126-16.75s11.331-38.549 13.363-40.089 19.583-15.087 52.036-18.6c0 0 6.466-.739 9.73 0s23.893 6.9 23.893 6.9c-.616-5.542.308-18.967.308-18.967C339.684 15.321 352 13.658 352 13.658c17.55-1.232 28.2 14.9 28.2 14.9 4.619 5.05 1.355 14.287 1.355 14.287C379.712 48.513 371.4 55.04 371.4 55.04c-4.8 4.064-8.991 6.158-12.439 7.143L358.836 66s1.786-.493 9.237 5.542a16 16 0 0 1 8.067 2.71s5.542 2.525 6.1 10.1a22.078 22.078 0 0 1-.123 7.082s1.108 3.325 6.712 6.712c0 0 4 1.663 6.035 10.653 0 0 1.108 7.574 2.278 7.7a10.008 10.008 0 0 0 3.88-1.416s23.585-8.005 25.433-9.114L436.92 95.5a16.305 16.305 0 0 0 3.08-9.854s-.862-8.929 1.232-8.005c0 0 2.956 1.786 3.079 4.311 0 0 5.542-4.926 8.005-4.311 0 0 1.232-.616 2.463 4.311-.37.061 6.958 3.14 5.172 11.148z" class="cls-3" data-name="Path 116" transform="translate(-85.173 -5.225)"/>
        <path id="Path_117" d="M349.96 227.2s-41.752 24.016-31.9 72.049l49.264 19.09s11.085-25.556 11.392-31.1c0 0 1.108 1.971 6.651 0 0 0 14.287-1.047 33.192-7.944l20.075-32.083S379.211 226.89 349.96 227.2z" class="cls-4" data-name="Path 117" transform="translate(-121.621 -87.29)"/>
        <path id="Path_118" d="M398.621 308.564s-1.539 9.114-11.392 31.1l-17.8-6.9s6.774-29.374-1.232-50.065c.003.001 25.867 25.001 30.424 25.865z" class="cls-2" data-name="Path 118" transform="translate(-141.462 -108.615)"/>
        <path id="Path_119" d="M320.3 344.7l47.663 18.474s-12.193 30.236-21.984 34.362z" class="cls-2" data-name="Path 119" transform="translate(-123.059 -132.435)"/>
        <path id="Path_120" d="M483 291.267l39.1-22.231s-5.3-3.325-19.891-8.437z" class="cls-2" data-name="Path 120" transform="translate(-185.567 -100.124)"/>
        <path id="Path_121" d="M427.9 92.885l9.668-.185s.123 8.313-.616 8.621-9.052-8.436-9.052-8.436z" class="cls-2" data-name="Path 121" transform="translate(-164.398 -35.618)"/>
        <path id="Path_122" d="M505.5 198.04a27.153 27.153 0 0 1-3.756 2.833s-6.466 6.1-17.243 3.387c0 0-12.439-3.325-17.181-8.991a59.175 59.175 0 0 1-5.727-5.481 29.86 29.86 0 0 1-2.094-3.079s5.542-10.592 5.85-12.809c0 0 13.055 24.14 16.011 24.755 0 0 16.627 3.387 20.445.493z" class="cls-2" data-name="Path 122" transform="translate(-176.539 -66.815)"/>
        <path id="Path_123" d="M417.956 32.2c2.525-2.217 6.835-6.774 8.5-12.993a1.249 1.249 0 0 1 1.6-.862c5.481 1.663 26.911 7.574 31.837 2.278 0 0 6.1-.739-8.868-10.53a1.291 1.291 0 0 1 .246-2.278l.37-.185a1.251 1.251 0 0 0 .616-1.232c-.185-1.17-1.54-3.51-9.36-5.85 0 0-10.222-3.264-21.923 5.973a1.323 1.323 0 0 1-1.416.123c-2.34-1.293-9.853-4.434-15.21 3.756-.062.123-.123.185-.123.308-.677 1.909-7.882 20.322 4.557 26.664 0 0 4.064 2.34.431-1.355-.123-.123-1.047-2.34-1.17-2.525-.677-.8-.554-4.372 1.355-6.035a2.685 2.685 0 0 1 3.264 0 8.23 8.23 0 0 1 3.51 5.3c.183 1.043 1.045.062 1.784-.557z" class="cls-5" data-name="Path 123" transform="translate(-154.269)"/>
        <path id="Path_124" d="M436.244 78.745c.369-.616 2.525-3.572 3.079-3.079 1.847 1.663 2.4 3.756 5.542 4.311 0 0 4.311.616-2.463 2.463-.002-.001-9.052.8-6.158-3.695z" class="cls-6" data-name="Path 124" transform="translate(-167.385 -29.052)"/>
        <path id="Path_125" d="M458.584 398.713a107.207 107.207 0 0 1-9.73 10.653 10.713 10.713 0 0 1-.924.8 16.723 16.723 0 0 1-2.956 2.094s-1.909-.062-4.619-.246c-1.909-.123-4.249-.369-6.589-.616-5.912-.739-11.762-2.032-10.222-4.187 0 0 .37-.369.985-.924l.185-.185c3.51-3.325 13.671-13.117 13.3-14.9a2.589 2.589 0 0 0 .308.123c1.786.554 10.53 3.325 15.888 5.419 2.465.799 4.127 1.599 4.374 1.969z" class="cls-6" data-name="Path 125" transform="translate(-162.629 -150.3)"/>
        <path id="Path_126" d="M245.113 499.4l19.587 12.624s-4.8 7.267-8.313 13.055-18.782-6.774-18.782-6.774 7.816-16.873 7.508-18.905z" class="cls-6" data-name="Path 126" transform="translate(-91.286 -191.87)"/>
        <path id="Path_127" d="M271.423 561.381s-.8 2.032-4 2.771c-1.847.431-4.5.37-8.19-.8 0 0-.185-.062-.493-.185-.062 0-.123 0-.123-.062-.8-.246-1.786-.616-2.956-1.047-3.264-1.17-8.375-3.141-13.794-5.727a3.629 3.629 0 0 1-.493-.246c-6.1-3.017-14.287-7.636-19.275-12.624a16.258 16.258 0 0 1-4.126-6.774 9.452 9.452 0 0 1 .185-3.017c.554-2.771 2.4-6.9 8.19-9.607 0 0 5.3-3.264 8.5-1.416 0 0 5.419 8.929 12.993 8.5 0 0 3.572-.308 5.173-1.416 0 0 1.355-.862 1.724 1.909 0 0 2.155 11.331 4.372 14.964 0 0 2.34 3.695 9.73 9.73-.003.182 3.384 1.906 2.583 5.047z" class="cls-7" data-name="Path 127" transform="translate(-83.727 -200.584)"/>
        <path id="Path_128" d="M250.428 565.148c2.217-2.956.493-7.451-.616-9.607a5.188 5.188 0 0 0-1.663-1.971c-2.894-2.094-11.085-7.882-7.821-4.742 2.771 2.648 3.017 2.833 3.017 2.833 4.434 4.434 3.2 11.331 3.2 11.331z" class="cls-6" data-name="Path 128" transform="translate(-92.044 -210.509)"/>
        <path id="Path_129" d="M267.42 571.421c-.554.308-2.155.431-5.973 0 0 0-.8-.246-2.71-.924-.062 0-.123 0-.123-.062-.8-.246-1.786-.616-2.956-1.047q-2.4-.831-6.1-2.217s-3.264-1.293-7.7-3.51a3.631 3.631 0 0 1-.493-.246c-6.1-3.018-14.287-7.636-19.275-12.624a16.258 16.258 0 0 1-4.126-6.774 9.453 9.453 0 0 1 .185-3.017c2.217 2.4 15.457 16.38 24.14 20.876 0 0 21.245 9.052 24.571 8.313.006.062 1.361.801.56 1.232z" class="cls-8" data-name="Path 129" transform="translate(-83.727 -207.853)"/>
        <path id="Path_130" d="M276.8 553.332c-2.217 1.6-7.39 2.094-7.39 2.094-.616-.493-.123-1.54-.123-1.54a9.886 9.886 0 0 0 7.2-1.786z" class="cls-6" data-name="Path 130" transform="translate(-103.387 -212.117)"/>
        <path id="Path_131" d="M278.92 559.808c-2.217 1.6-7.513 2.155-7.513 2.155-.616-.493-.123-1.539-.123-1.539a9.8 9.8 0 0 0 7.143-1.724z" class="cls-6" data-name="Path 131" transform="translate(-104.155 -214.653)"/>
        <path id="Path_132" d="M466.055 449.392a13.4 13.4 0 0 1-1.663.924c-.369.185-.8.37-1.232.554-.062 0-.062 0-.123.062h-.062a120.909 120.909 0 0 1-12.439-1.17c-2.771-.431-6.281-1.047-9.853-1.909l-2.956-.739a.226.226 0 0 1-.185-.062 37.5 37.5 0 0 1-7.143-2.771 51.667 51.667 0 0 1-12.5-5.6 24.164 24.164 0 0 1-6.466-6.528.06.06 0 0 0-.062-.062 8.824 8.824 0 0 1-.985-3.51 10.2 10.2 0 0 1 1.355-5.665s6.035-7.266 7.882-7.513l.123.123a20.6 20.6 0 0 0 9.237 5.111 20.184 20.184 0 0 0 6.589.616 21.9 21.9 0 0 0 7.574-1.847 5.462 5.462 0 0 0 1.047-.493l.739-.37s11.454 23.154 19.952 23.339c-.123.118 6.651 3.818 1.171 7.51z" class="cls-7" data-name="Path 132" transform="translate(-157.661 -159.598)"/>
        <path id="Path_133" d="M281.8 564.462c-2.217 1.6-7.7 2.34-7.7 2.34-.616-.493-.123-1.54-.123-1.54a9.712 9.712 0 0 0 7.082-1.663z" class="cls-6" data-name="Path 133" transform="translate(-105.193 -216.535)"/>
        <path id="Path_134" d="M445.328 453.648c2.217-2.956.493-7.451-.616-9.607a5.188 5.188 0 0 0-1.663-1.971c-2.894-2.094-11.084-7.882-7.821-4.742 2.771 2.648 3.017 2.833 3.017 2.833 4.434 4.434 3.2 11.331 3.2 11.331z" class="cls-6" data-name="Path 134" transform="translate(-166.924 -167.671)"/>
        <path id="Path_135" d="M464.364 457.946a.855.855 0 0 1-.616.431 2.3 2.3 0 0 1-.739.123h-.123a30.5 30.5 0 0 1-6.158-.308s-2.525-.246-6.281-.862c-2.771-.431-6.281-1.047-9.853-1.909l-2.956-.739a.226.226 0 0 1-.185-.062c-6.959-1.847-13.917-4.372-17.366-6.9 0 0-.924-.554-2.279-1.539a24.165 24.165 0 0 1-6.466-6.528.06.06 0 0 0-.062-.062 6.351 6.351 0 0 1-.985-3.51 5.389 5.389 0 0 1 .123-.985s.185.185.493.431c2.956 2.586 17.858 15.087 26.788 16.811 0 0 14.656 5.85 26.48 5.05 0 .127.246.312.185.558z" class="cls-8" data-name="Path 135" transform="translate(-157.632 -167.166)"/>
        <path id="Path_136" d="M473.195 435.2s-1.847 1.108-3.017 1.724c0 0-.924 1.909 1.232 1.478 0 0 2.4-1.293 2.525-1.971z" class="cls-6" data-name="Path 136" transform="translate(-180.565 -167.205)"/>
        <path id="Path_137" d="M476.242 439.9s-2.463 2.155-3.449 2.155c0 0-.862 1.6 1.293 1.54a11.037 11.037 0 0 0 3.325-2.4z" class="cls-6" data-name="Path 137" transform="translate(-181.581 -169.01)"/>
        <path id="Path_138" d="M479.665 445s-2.833 2.217-4.311 2.34c0 0-1.478 2.833 1.293 1.54 0 0 3.079-1.54 3.756-2.525z" class="cls-6" data-name="Path 138" transform="translate(-182.479 -170.97)"/>
        <path id="Path_140" d="M555.063 156.7s11.7 7.39 11.085 11.085c0 0-3.079 1.847-3.695 1.232 0 0-8.005-8.621-9.853-8.621 0-.001 3.695-2.464 2.463-3.696z" class="cls-10" data-name="Path 140" transform="translate(-212.307 -60.207)"/>
        <path id="Path_141" d="M556.269 154.048l3.325 2.586a1.9 1.9 0 0 1-.246 3.2l-5.665 3.017a1.961 1.961 0 0 1-2.278-.308l-2.956-2.956a1.923 1.923 0 0 1 .493-3.079l5.3-2.648a1.889 1.889 0 0 1 2.027.188z" class="cls-10" data-name="Path 141" transform="translate(-210.496 -59.033)"/>
        <path id="Path_142" d="M556.767 155.92l2.217 1.724a1.272 1.272 0 0 1-.185 2.155l-3.818 2.032a1.321 1.321 0 0 1-1.539-.246l-1.971-1.971a1.323 1.323 0 0 1 .369-2.094l3.572-1.786a1.348 1.348 0 0 1 1.355.186z" class="cls-6" data-name="Path 142" transform="translate(-211.733 -59.796)"/>
        <path id="Path_143" d="M457.177 80.511c5.05-3.017 12.686-7.882 17.058-12.439a3.416 3.416 0 0 1 5.358.677c6.712 11.392 24.94 41.382 34.793 45.754a3.332 3.332 0 0 1 1.355 4.926 6.975 6.975 0 0 1-5.973 2.833 3.182 3.182 0 0 1-1.971-.677c-5.481-4-36.764-26.849-50.619-35.347a3.32 3.32 0 0 1-.001-5.727z" class="cls-11" data-name="Path 143" transform="translate(-175.016 -25.769)"/>
        <path id="Path_144" d="M475.08 523.683c0 3.2-.062 6.158-9.237 6.158s-17.243.739-17.243-2.463 3.141-4.311 12.316-4.311 14.164-2.647 14.164.616z" class="cls-2" data-name="Path 144" transform="translate(-172.351 -200.574)"/>
        <path id="Path_145" d="M469.361 27.725s-20.937-11.7-30.79-9.237a7.312 7.312 0 0 0-6.774 3.079s-1.847 1.232-.616 2.463L425.7 40.287s12.193-7.944 10.346-14.595a1.349 1.349 0 0 1 1.108-.431s25.433 8.621 32.207 2.463" class="cls-12" data-name="Path 145" transform="translate(-163.553 -6.975)"/>
        <path id="Path_146" d="M423.844 133.7l-19.706 40.643c-10.592-2.894-24.324-4.126-33.254-5.05-.8-.062-1.6-.185-2.278-.246h-.123a47.917 47.917 0 0 1-6.158-.862h-.062c-.985-.369-2.217-3.2-3.51-7.451a.89.89 0 0 1-.123-.431c-3.941-12.932-8.621-37.626-9.607-43.291a7.545 7.545 0 0 1-.123-1.17c8.5 1.6 12.624-1.786 14.656-5.358.123-.246.246-.431.37-.677s.185-.431.308-.677a14.827 14.827 0 0 0 1.232-5.05c3.079 0 3.2-31.283 3.2-31.283l7.7 2.155c4.8 1.724 8.744 23.524 8.744 23.524 8.621 6.158 27.1 5.542 27.1 5.542 2.463 0 .924-12.439.924-12.439a34.651 34.651 0 0 1 3.387 2.586c3.012 2.59 7.323 39.535 7.323 39.535z" class="cls-13" data-name="Path 146" transform="translate(-134.047 -27.973)"/>
        <path id="Path_147" d="M331.655 180.488l-2.34-.308h-.123l-6.158-.862h-.062a.215.215 0 0 0-.123-.062c-.369-.369-1.539-1.724-3.387-7.39a.89.89 0 0 1-.123-.431c-2.463-8.129-5.234-20.876-7.2-30.667-1.17-5.789-2.032-10.53-2.463-12.624a7.545 7.545 0 0 1-.123-1.17c-.062-.616-.123-1.17-.185-1.724a10.993 10.993 0 0 1-.123-1.416 15.615 15.615 0 0 1 .062-4.619c0-.123.062-.185.062-.308-.431.308-7.328 4.926-14.533 4.5a16.948 16.948 0 0 1-7.636-2.956h-.062a.191.191 0 0 0-.123.062 92.778 92.778 0 0 0-14.41 7.39.06.06 0 0 0-.062.062 11.736 11.736 0 0 0-1.847 1.293c-3.141 2.34-5.6 4.926-6.035 7.513a17.412 17.412 0 0 0-.677 1.909c0 .062 0 .062-.062.123l-.369.739a4.239 4.239 0 0 0-.185.493c-2.094 4.557-6.343 13.548-8.005 16.38-.185.246-.123.185-.185.246a.91.91 0 0 0-.246.8v.493c0 .369.062.862.123 1.416v.369c.062.739.185 1.6.308 2.586 0 .185.062.369.062.554.062.616.185 1.17.246 1.847 0 .123.062.246.062.37.123.616.246 1.293.37 1.971.062.185.062.369.123.616.246 1.17.554 2.4.924 3.572l.185.554c.123.308.185.616.308.924a3.925 3.925 0 0 1 .123.431 23.08 23.08 0 0 0 1.293 3.079c.062.123.123.185.123.308a9.8 9.8 0 0 0 .8 1.355c.062.123.185.246.246.369.062.062.123.123.123.185a1.871 1.871 0 0 1 .308.431c.123.185.308.308.431.493a1.072 1.072 0 0 1 .308.924v.062a.226.226 0 0 1-.062.185.06.06 0 0 1-.062.062l-.185.369-.062.062-.123.123c-.062.062-.062.062-.123.062-.062 0-.062.062-.123.062-.062.062-.123.062-.246.062h-.185a2.937 2.937 0 0 1-1.478-.493c-.062-.062-.123-.062-.185-.123s-.123-.062-.185-.123c-.185-.123-.431-.308-.616-.431-.062-.062-.185-.123-.246-.185a3.2 3.2 0 0 0-.185-.308 3.339 3.339 0 0 1-.369-.677c-.062-.062-.062-.123-.123-.185a1.289 1.289 0 0 0-.246-.369c-.062-.123-.123-.185-.185-.308a.467.467 0 0 1-.123-.246 1.289 1.289 0 0 0-.246-.369c-.431-.677-.8-1.478-1.232-2.155-.123-.185-.185-.369-.308-.554-.062-.062-.062-.123-.123-.246-.062-.062-.062-.185-.123-.246-.062-.185-.185-.308-.246-.493v-.062a5.157 5.157 0 0 1-.493-1.17 4.334 4.334 0 0 0-1.108.985l-.062.062c0 .062-.062.062-.062.123-.062.062-.123.185-.185.246-.062.123-.123.185-.185.308l-.185.369c-.062.123-.123.185-.185.308-.062.062-.062.185-.123.246s-.062.185-.123.246a3.528 3.528 0 0 0-.246.862c0 .062-.062.123-.062.185v.123a7.025 7.025 0 0 0 0 1.971v.616l.493 7.082v.246a1 1 0 0 1-1.724-.308 95.716 95.716 0 0 1-2.833-10.222 5.346 5.346 0 0 1-.062-1.971l2.094-13.856a.226.226 0 0 1 .062-.185l12.255-32.761c2.525-8.621 11.516-11.577 13.671-12.193a.847.847 0 0 1 .677.062c1.54.677 8.991-.369 10.1-.554.123 0 .185-.062.246-.062 2.463-1.17 6.835-1.786 8.129-1.971a.915.915 0 0 1 .554.123c2.463.985 20.137-8.067 25.679-10.961a1.023 1.023 0 0 1 1.478.924 12.3 12.3 0 0 0 .554 4.064c0 .062.062.123.062.185 1.293 2.155 2.217 11.762 2.4 13.609v.308a1.632 1.632 0 0 0-.308.369 6.717 6.717 0 0 0-.37.677c-3.572 8.621 6.9 56.408 7.451 58.809.058-.251.058-.19.058-.19z" class="cls-2" data-name="Path 147" transform="translate(-94.817 -39.041)"/>
        <path id="Path_148" d="M281.853 200.668c1.971 3.264 3.572 11.146-15.4 21.061-.062.062-.123.062-.185.123-1.663.677-21.861 8.5-56.1 2.278a1.142 1.142 0 0 1-.431-.123c-1.909-.739-17.735-6.651-43.845-3.2h-.185c-1.293.062-17 .985-29.99 23.585a3 3 0 0 0-.185.431c-.862 2.463-8.806 26.418-8.744 31.529a1.7 1.7 0 0 1-.062.554c-.616 2.586-5.789 22.785-17.55 27.958l-.369.185c-1.416.985-11.885 7.944-32.453 6.035 0 0-14.471-.431-25.925-10.161a2.028 2.028 0 0 0-.8-.431c-3.141-.862-21.553-5.419-37.749 6.035a2.131 2.131 0 0 0-.616.677c-1.17 2.094-5.419 11.577 3.695 27.4a.215.215 0 0 0 .062.123c.616.862 7.2 10.961 2.34 12.316a1.982 1.982 0 0 1-1.047.062c-2.155-.431-11.516-3.079-14.287-15.765 0-.062-.062-.185-.062-.246-.616-1.663-7.267-21.307 7.944-34.3l.185-.185c1.232-.8 12.193-7.944 29-8.56 0 0 10.469-.431 17.119 2.956 1.232.616 6.035 6.158 6.281 6.4 1.54 1.478 12.316 2.956 25.8 2.71.062 0 6.835-1.6 6.835-1.6 1.108-.246 17.243-7.143 20.506-14.164.369-.739 7.2-20.137 8.19-26.664 0 0 5.3-29.189 24.263-36.7.062-.062.185-.062.246-.123 1.971-1.108 27.834-15.518 60.78-10.592a.226.226 0 0 1 .185.062c1.108.246 12.686 2.771 31.9 3.449h.308c1.54-.185 14.04-1.6 21.984-5.912 0 0 4.619-2.155 15.334-7.944a2.3 2.3 0 0 1 3.028.741z" class="cls-1" data-name="Path 148" transform="translate(0 -76.71)"/>
        <circle id="Ellipse_268" cx="1.54" cy="1.54" r="1.54" class="cls-12" data-name="Ellipse 268" transform="translate(285.486 39.223)"/>
        <path id="Path_149" d="M455.515 54.768a5.809 5.809 0 0 1 6.343-.862s1.971 1.232 1.047-.739c0 0-5.973-1.6-7.513.062.061 0-.862 1.724.123 1.539z" class="cls-12" data-name="Path 149" transform="translate(-174.832 -20.163)"/>
    </g>
</svg>
