<svg xmlns="http://www.w3.org/2000/svg" viewBox="0 0 677 930">
    <defs>
        <style>
            .cls-1,.cls-2{fill:#0a0a6e}.cls-1,.cls-11{opacity:.2}.cls-3,.cls-4,.cls-5,.cls-7{fill:none}.cls-3{stroke:#0a0a6e}.cls-3,.cls-5,.cls-7{stroke-linecap:round}.cls-3,.cls-4,.cls-5,.cls-6,.cls-7{stroke-miterlimit:10}.cls-3,.cls-4,.cls-5{stroke-width:3px}.cls-4{stroke:#02011b}.cls-5,.cls-7{stroke:#3849f8}.cls-6,.cls-9{fill:#fff}.cls-6{stroke:#fff}.cls-7{stroke-linejoin:round;stroke-width:2px}.cls-8{fill:#a0a6ee}.cls-10,.cls-11{fill:#02011b}
        </style>
    </defs>
    <g id="illustration-2" transform="translate(-339 37)">
        <rect id="Rectangle_398" width="677" height="930" class="cls-1" data-name="Rectangle 398" rx="10" transform="translate(339 -37)"/>
        <circle id="Ellipse_334" cx="3.4" cy="3.4" r="3.4" class="cls-2" data-name="Ellipse 334" transform="translate(744.7 465.3)"/>
        <circle id="Ellipse_335" cx="3.4" cy="3.4" r="3.4" class="cls-2" data-name="Ellipse 335" transform="translate(650.4 465.3)"/>
        <path id="Line_38" d="M0 0v54.5" class="cls-3" data-name="Line 38" transform="translate(653.8 427.8)"/>
        <path id="Line_39" d="M0 0v54.5" class="cls-3" data-name="Line 39" transform="translate(748.1 427.8)"/>
        <path id="Line_40" d="M0 0v83.4" class="cls-4" data-name="Line 40" transform="translate(804.9 391.4)"/>
        <path id="Path_684" d="M615 424.3a58.876 58.876 0 0 1-7.7 3.5 66 66 0 0 1-19 4.6c-22.3 1.5-40.6-15.5-44.5-36.9l-.3-1.8a36.1 36.1 0 0 1 .9-15c1.6-5.3 3.8-9.9 4.1-15.6.5-7.7.3-16 5.6-22.3a18.711 18.711 0 0 0 2.8-3.5c2.2-4.2-.5-9 0-13.4.5-4.7 2.3-10 5.6-13.5 9.7-10.6 28.8-3.1 39.3 2.2a22.711 22.711 0 0 1 6.3 4.3c3.8 4 4.7 9.7 6.2 14.9a35.068 35.068 0 0 0 4.3 9.7c2.7 3.9 7.7 5.2 10.8 8.7a14.15 14.15 0 0 1 3.2 13.1c-1 4.3-3.2 8.2-4.8 12.3a39.294 39.294 0 0 0-2 18.3c.3 1.8 1.1 3.5 1.5 5.2 1.5 6.1.8 13.4-3.4 18.3a32.167 32.167 0 0 1-8.9 6.9z" class="cls-2" data-name="Path 684"/>
        <path id="Path_685" d="M587.8 345.2s2.1 125.9 1.4 134.2" class="cls-5" data-name="Path 685"/>
        <path id="Path_686" d="M594.3 480.6h-9.1l-3.2-17.4h15.5z" class="cls-6" data-name="Path 686"/>
        <path id="Path_687" d="M575.7 350s-.3 10.5 11.6 17.8" class="cls-7" data-name="Path 687"/>
        <path id="Path_688" d="M589.6 400.8s16.8-2 22-19.5" class="cls-7" data-name="Path 688"/>
        <path id="Path_689" d="M759.9 469.1H642.2a3.235 3.235 0 0 1-2.6-5.1l3.1-4.3a3.317 3.317 0 0 1 2.6-1.3h111.5a3.317 3.317 0 0 1 2.6 1.3l3.2 4.3a3.244 3.244 0 0 1-2.7 5.1z" class="cls-8" data-name="Path 689"/>
        <path id="Path_690" d="M752.8 453.7H649a5.378 5.378 0 0 1-5.4-5.4 5.378 5.378 0 0 1 5.4-5.4h103.8a5.378 5.378 0 0 1 5.4 5.4 5.508 5.508 0 0 1-5.4 5.4z" class="cls-8" data-name="Path 690"/>
        <path id="Path_691" d="M752.8 441.9H649a5.378 5.378 0 0 1-5.4-5.4 5.378 5.378 0 0 1 5.4-5.4h103.8a5.378 5.378 0 0 1 5.4 5.4 5.508 5.508 0 0 1-5.4 5.4z" class="cls-8" data-name="Path 691"/>
        <path id="Path_692" d="M808.5 387.7h-7.2l-4-22.7h15.2z" class="cls-9" data-name="Path 692"/>
        <path id="Path_693" d="M811 359.7h-.2a5.947 5.947 0 0 0-11.8 0h-.2a4.3 4.3 0 1 0 0 8.6H811a4.3 4.3 0 0 0 0-8.6z" class="cls-10" data-name="Path 693"/>
        <path id="Path_694" d="M800.9 392.7h.1a3.9 3.9 0 0 0 3.9 3.4 3.8 3.8 0 0 0 3.8-3.4h.1a2.8 2.8 0 1 0 0-5.6l-8 .1a2.752 2.752 0 1 0 .1 5.5z" class="cls-10" data-name="Path 694"/>
        <path id="Path_695" d="M599 465.5h-19.3a2.689 2.689 0 0 1-2.7-2.7 2.689 2.689 0 0 1 2.7-2.7H599a2.689 2.689 0 0 1 2.7 2.7 2.689 2.689 0 0 1-2.7 2.7z" class="cls-10" data-name="Path 695"/>
        <path id="Path_696" d="M594.4 484H585a2.689 2.689 0 0 1-2.7-2.7 2.689 2.689 0 0 1 2.7-2.7h9.4a2.689 2.689 0 0 1 2.7 2.7 2.689 2.689 0 0 1-2.7 2.7z" class="cls-10" data-name="Path 696"/>
        <path id="Path_697" d="M812.6 471.3v-7a3.2 3.2 0 0 0-2.6-3.1v-2a3.116 3.116 0 0 0-3.1-3.1h-4.1a3.116 3.116 0 0 0-3.1 3.1v2a3.2 3.2 0 0 0-2.6 3.1v7a11.243 11.243 0 0 0-3.5 8.1v3.9h22.5v-3.9a11.028 11.028 0 0 0-3.5-8.1z" class="cls-10" data-name="Path 697"/>
        <ellipse id="Ellipse_336" cx="37.7" cy="2.4" class="cls-11" data-name="Ellipse 336" rx="37.7" ry="2.4" transform="translate(543.2 481.4)"/>
        <path id="Path_698" d="M745.6 480.9c-4.6 0-5.7 1.7-10 1.7-7.5-.4-20.5-.6-35.3-.6-17.7 0-32.8.4-39 .9-2.6.2-5.3-1.5-9.7-1.5-5.8 0-10.5 1.1-10.5 2.4s4.7 2.4 10.5 2.4c5.5 0 8-1.4 9.5-1.6 6.6.5 22.2.2 39.2.2 14.8 0 27.8-.3 35.3-.6 2.6 0 5.3 1.7 10 1.7 5.8 0 10.5-1.1 10.5-2.4s-4.7-2.6-10.5-2.6z" class="cls-11" data-name="Path 698"/>
        <ellipse id="Ellipse_337" cx="18" cy="4.5" class="cls-11" data-name="Ellipse 337" rx="18" ry="4.5" transform="translate(779.4 477.2)"/>
    </g>
</svg>
