<svg xmlns="http://www.w3.org/2000/svg" viewBox="0 0 327 327">
    <defs>
        <style>
            .cls-1{fill:#fff}.cls-2{fill:#c2c9ce}.cls-3{fill:#545e65}.cls-4{fill:#84ffb4}.cls-5{filter:url(#Rectangle_378)}
        </style>
        <filter id="Rectangle_378" width="327" height="327" x="0" y="0" filterUnits="userSpaceOnUse">
            <feOffset dy="10"/>
            <feGaussianBlur result="blur" stdDeviation="15"/>
            <feFlood flood-color="#13416f" flood-opacity=".161"/>
            <feComposite in2="blur" operator="in"/>
            <feComposite in="SourceGraphic"/>
        </filter>
    </defs>
    <g id="integration" transform="translate(-1204 -124)">
        <g class="cls-5" transform="translate(1204 124)">
            <rect id="Rectangle_378-2" width="237" height="237" class="cls-1" data-name="Rectangle 378" rx="20" transform="translate(45 35)"/>
        </g>
        <g id="Group_191" data-name="Group 191" transform="translate(1320 229)">
            <path id="Path_545" d="M35.3 85.5a11 11 0 1 1 0-22 11.136 11.136 0 0 1 7.3 2.7 1.014 1.014 0 0 0 1.7-.7V59a5.378 5.378 0 0 0-5.4-5.4h-4.3a2.474 2.474 0 0 1-2-3.9 10.518 10.518 0 0 0 1.9-6.1 11 11 0 0 0-22 0 10.518 10.518 0 0 0 1.9 6.1 2.474 2.474 0 0 1-2 3.9H6.7A5.378 5.378 0 0 0 1.3 59v32.1a5.378 5.378 0 0 0 5.4 5.4h32.1a5.378 5.378 0 0 0 5.4-5.4v-7.6a.991.991 0 0 0-1.7-.7 10.5 10.5 0 0 1-7.2 2.7z" class="cls-2" data-name="Path 545"/>
            <path id="Path_546" d="M84.8 62a11 11 0 0 1-22 0 11.136 11.136 0 0 1 2.7-7.3.991.991 0 0 0-.7-1.7h-6.6a5.378 5.378 0 0 0-5.4 5.4v4.3a2.474 2.474 0 0 1-3.9 2 10.518 10.518 0 0 0-6.1-1.9 11 11 0 0 0 0 22 10.518 10.518 0 0 0 6.1-1.9 2.474 2.474 0 0 1 3.9 2v5.4a5.378 5.378 0 0 0 5.4 5.4h32.1a5.378 5.378 0 0 0 5.4-5.4V58.2a5.378 5.378 0 0 0-5.4-5.4h-7.6a.991.991 0 0 0-.7 1.7 11.622 11.622 0 0 1 2.8 7.5z" class="cls-3" data-name="Path 546"/>
            <path id="Path_547" d="M61.5 11.3a11.054 11.054 0 0 1 11.2 10.9 10.906 10.906 0 0 1-10.9 11.1 11.136 11.136 0 0 1-7.3-2.7 1.014 1.014 0 0 0-1.7.7l.1 6.6a5.463 5.463 0 0 0 5.5 5.4l4.3-.1a2.543 2.543 0 0 1 2.1 3.9 11.054 11.054 0 0 0 9.3 17.1A11.031 11.031 0 0 0 85 53.1a10.518 10.518 0 0 0-1.9-6.1 2.49 2.49 0 0 1 2-3.9l5.4-.1a5.463 5.463 0 0 0 5.4-5.5l-.4-32.1A5.529 5.529 0 0 0 90 0L57.9.4a5.463 5.463 0 0 0-5.4 5.5l.1 7.6a.991.991 0 0 0 1.7.7 10.853 10.853 0 0 1 7.2-2.9z" class="cls-4" data-name="Path 547"/>
            <path id="Path_548" d="M11.3 34.6a11.054 11.054 0 0 1 10.9-11.2 10.906 10.906 0 0 1 11.1 10.9 11.136 11.136 0 0 1-2.7 7.3 1.014 1.014 0 0 0 .7 1.7l6.6-.1a5.463 5.463 0 0 0 5.4-5.5v-4.3a2.474 2.474 0 0 1 3.9-2 10.9 10.9 0 0 0 6.1 1.8A11.12 11.12 0 0 0 64.2 22a10.968 10.968 0 0 0-11.1-10.9A10.518 10.518 0 0 0 47 13a2.49 2.49 0 0 1-3.9-2L43 5.6A5.463 5.463 0 0 0 37.5.2L5.4.6A5.463 5.463 0 0 0 0 6.1l.4 32.1a5.463 5.463 0 0 0 5.5 5.4l7.6-.1a.991.991 0 0 0 .7-1.7 10.853 10.853 0 0 1-2.9-7.2z" class="cls-3" data-name="Path 548"/>
            <ellipse id="Ellipse_300" cx="11" cy="10.5" class="cls-2" data-name="Ellipse 300" rx="11" ry="10.5" transform="translate(12.3 32.5)"/>
        </g>
    </g>
</svg>
