<svg xmlns="http://www.w3.org/2000/svg" viewBox="0 0 881 2105">
    <defs>
        <style>
            .cls-1,.cls-11,.cls-14,.cls-2,.cls-8,.cls-9{fill:none}.cls-1{stroke:#71b4b7}.cls-1,.cls-2,.cls-8,.cls-9{stroke-miterlimit:10;stroke-width:10px}.cls-2{stroke:#b4ffd1}.cls-10,.cls-3{fill:#fff}.cls-4{fill:#c2c9ce}.cls-12,.cls-5,.cls-7{fill:#545e65}.cls-6{fill:#84ffb4}.cls-12,.cls-7{font-size:20px;font-family:Maax-Medium,Maax;font-weight:500}.cls-7{letter-spacing:.005em}.cls-10,.cls-8{stroke:#545e65}.cls-8,.cls-9{stroke-linecap:round}.cls-11,.cls-9{stroke:#84ffb4}.cls-10{stroke-width:3px}.cls-11{stroke-width:5px}.cls-13{stroke:none}.cls-15{filter:url(#Rectangle_372)}.cls-16{filter:url(#Rectangle_371)}.cls-17{filter:url(#Rectangle_376)}.cls-18{filter:url(#Rectangle_396)}.cls-19{filter:url(#Rectangle_378)}.cls-20{filter:url(#Rectangle_380)}.cls-21{filter:url(#Rectangle_379)}.cls-22{filter:url(#Rectangle_377)}.cls-23{filter:url(#Rectangle_397)}
        </style>
        <filter id="Rectangle_397" width="327" height="327" x="275" y="1778" filterUnits="userSpaceOnUse">
            <feOffset dy="10"/>
            <feGaussianBlur result="blur" stdDeviation="15"/>
            <feFlood flood-color="#13416f" flood-opacity=".161"/>
            <feComposite in2="blur" operator="in"/>
            <feComposite in="SourceGraphic"/>
        </filter>
        <filter id="Rectangle_377" width="327" height="419" x="275" y="1320" filterUnits="userSpaceOnUse">
            <feOffset dy="10"/>
            <feGaussianBlur result="blur-2" stdDeviation="15"/>
            <feFlood flood-color="#13416f" flood-opacity=".161"/>
            <feComposite in2="blur-2" operator="in"/>
            <feComposite in="SourceGraphic"/>
        </filter>
        <filter id="Rectangle_379" width="96.624" height="154.282" x="357" y="1420" filterUnits="userSpaceOnUse">
            <feOffset dy="3"/>
            <feGaussianBlur result="blur-3" stdDeviation="3"/>
            <feFlood flood-opacity=".161"/>
            <feComposite in2="blur-3" operator="in"/>
            <feComposite in="SourceGraphic"/>
        </filter>
        <filter id="Rectangle_380" width="67.795" height="104.487" x="452.66" y="1469.795" filterUnits="userSpaceOnUse">
            <feOffset dy="3"/>
            <feGaussianBlur result="blur-4" stdDeviation="3"/>
            <feFlood flood-opacity=".161"/>
            <feComposite in2="blur-4" operator="in"/>
            <feComposite in="SourceGraphic"/>
        </filter>
        <filter id="Rectangle_378" width="327" height="327" x="275" y="954" filterUnits="userSpaceOnUse">
            <feOffset dy="10"/>
            <feGaussianBlur result="blur-5" stdDeviation="15"/>
            <feFlood flood-color="#13416f" flood-opacity=".161"/>
            <feComposite in2="blur-5" operator="in"/>
            <feComposite in="SourceGraphic"/>
        </filter>
        <filter id="Rectangle_396" width="327" height="327" x="554" y="688" filterUnits="userSpaceOnUse">
            <feOffset dy="10"/>
            <feGaussianBlur result="blur-6" stdDeviation="15"/>
            <feFlood flood-color="#13416f" flood-opacity=".161"/>
            <feComposite in2="blur-6" operator="in"/>
            <feComposite in="SourceGraphic"/>
        </filter>
        <filter id="Rectangle_376" width="327" height="327" x="0" y="688" filterUnits="userSpaceOnUse">
            <feOffset dy="10"/>
            <feGaussianBlur result="blur-7" stdDeviation="15"/>
            <feFlood flood-color="#13416f" flood-opacity=".161"/>
            <feComposite in2="blur-7" operator="in"/>
            <feComposite in="SourceGraphic"/>
        </filter>
        <filter id="Rectangle_371" width="327" height="422.183" x="275" y="307" filterUnits="userSpaceOnUse">
            <feOffset dy="10"/>
            <feGaussianBlur result="blur-8" stdDeviation="15"/>
            <feFlood flood-color="#13416f" flood-opacity=".161"/>
            <feComposite in2="blur-8" operator="in"/>
            <feComposite in="SourceGraphic"/>
        </filter>
        <filter id="Rectangle_372" width="327" height="327" x="275" y="0" filterUnits="userSpaceOnUse">
            <feOffset dy="10"/>
            <feGaussianBlur result="blur-9" stdDeviation="15"/>
            <feFlood flood-color="#13416f" flood-opacity=".161"/>
            <feComposite in2="blur-9" operator="in"/>
            <feComposite in="SourceGraphic"/>
        </filter>
    </defs>
    <g id="process-sm" transform="translate(-264 -362)">
        <g id="Group_196" data-name="Group 196" transform="rotate(90 -85.351 946.565)">
            <path id="Path_680" d="M142.1-23.089V91.7a48.909 48.909 0 0 1-48.9 48.9H-26.086" class="cls-1" data-name="Path 680" transform="rotate(-90 159.649 145.565)"/>
            <path id="Path_681" d="M142.1 313.188V194a48.909 48.909 0 0 0-48.9-48.9H-25.922" class="cls-1" data-name="Path 681" transform="rotate(-90 164.649 140.565)"/>
            <path id="Path_682" d="M152.8-21.63V91.7a48.909 48.909 0 0 0 48.9 48.9h99.606" class="cls-1" data-name="Path 682" transform="rotate(-90 154.649 140.565)"/>
            <path id="Path_683" d="M152.8 311.3V194a48.909 48.909 0 0 1 48.9-48.9h108.771" class="cls-1" data-name="Path 683" transform="rotate(-90 159.649 135.565)"/>
        </g>
        <path id="Path_566" d="M-216.814-61.363l1320.468.918c187.533 0 339.586.581 339.586 1.3v4.416" class="cls-2" data-name="Path 566" transform="rotate(90 -42.23 690)"/>
        <g id="Maintenance" transform="translate(-1397 1740)">
            <g class="cls-23" transform="translate(1661 -1378)">
                <rect id="Rectangle_397-2" width="237" height="237" class="cls-3" data-name="Rectangle 397" rx="20" transform="translate(320 1813)"/>
            </g>
            <g id="Group_206" data-name="Group 206" transform="translate(0 -3)">
                <g id="Group_205" data-name="Group 205" transform="translate(-7.17)">
                    <path id="Path_621" d="M0 0l63.961-18.039-17.6 62.4L-17.6 62.4z" class="cls-4" data-name="Path 621" transform="rotate(45 406.825 2809.45)"/>
                    <path id="Path_620" d="M0 0l63.961-18.039-17.6 62.4L-17.6 62.4z" class="cls-5" data-name="Path 620" transform="rotate(45 427.346 2800.95)"/>
                    <path id="Path_619" d="M0 0l63.961-18.039-17.6 62.4L-17.6 62.4z" class="cls-6" data-name="Path 619" transform="rotate(45 447.867 2792.45)"/>
                </g>
                <text id="Maintenance-2" class="cls-7" data-name="Maintenance" transform="translate(2042 632.815)">
                    <tspan x="0" y="0">Maintenance</tspan>
                </text>
            </g>
        </g>
        <g id="ship" transform="translate(-1014 1558)">
            <g class="cls-22" transform="translate(1278 -1196)">
                <rect id="Rectangle_377-2" width="237" height="329" class="cls-3" data-name="Rectangle 377" rx="20" transform="translate(320 1355)"/>
            </g>
            <g id="Group_204" data-name="Group 204" transform="translate(-10)">
                <g id="Group_187" data-name="Group 187" transform="translate(10.228 20.141)">
                    <g id="Group_169" data-name="Group 169" transform="translate(1643.772 209.859)">
                        <g class="cls-21" transform="translate(-366 -1426)">
                            <rect id="Rectangle_379-2" width="78.624" height="136.282" class="cls-5" data-name="Rectangle 379" rx="6" transform="translate(366 1426)"/>
                        </g>
                        <g class="cls-20" transform="translate(-366 -1426)">
                            <rect id="Rectangle_380-2" width="49.795" height="86.487" class="cls-3" data-name="Rectangle 380" rx="8" transform="translate(461.66 1475.8)"/>
                        </g>
                        <path id="Rectangle_382" d="M0 0h49.795v9.173H0z" class="cls-3" data-name="Rectangle 382" transform="translate(14.414 83.866)"/>
                        <path id="Rectangle_383" d="M0 0h49.795v9.173H0z" class="cls-4" data-name="Rectangle 383" transform="translate(14.414 100.901)"/>
                        <circle id="Ellipse_296" cx="12.449" cy="12.449" r="12.449" class="cls-6" data-name="Ellipse 296" transform="translate(27.519 31.45)"/>
                    </g>
                    <path id="Rectangle_384" d="M0 0h1.31v24.898H0z" class="cls-5" data-name="Rectangle 384" transform="translate(1745.984 295.035)"/>
                    <path id="Rectangle_388" d="M0 0h1.31v24.898H0z" class="cls-5" data-name="Rectangle 388" transform="translate(1761.709 295.035)"/>
                    <path id="Rectangle_385" d="M0 0h1.31v30.139H0z" class="cls-4" data-name="Rectangle 385" transform="translate(1749.915 289.794)"/>
                    <path id="Rectangle_389" d="M0 0h1.31v30.139H0z" class="cls-4" data-name="Rectangle 389" transform="translate(1765.64 289.794)"/>
                    <path id="Rectangle_394" d="M0 0h1.31v30.139H0z" class="cls-5" data-name="Rectangle 394" transform="translate(1777.434 289.794)"/>
                    <path id="Rectangle_386" d="M0 0h1.31v15.725H0z" class="cls-5" data-name="Rectangle 386" transform="translate(1753.847 304.208)"/>
                    <path id="Rectangle_390" d="M0 0h1.31v15.725H0z" class="cls-5" data-name="Rectangle 390" transform="translate(1769.571 304.208)"/>
                    <path id="Rectangle_393" d="M0 0h1.31v15.725H0z" class="cls-4" data-name="Rectangle 393" transform="translate(1781.365 304.208)"/>
                    <path id="Rectangle_387" d="M0 0h1.31v22.277H0z" class="cls-4" data-name="Rectangle 387" transform="translate(1757.778 297.656)"/>
                    <path id="Rectangle_391" d="M0 0h1.31v22.277H0z" class="cls-4" data-name="Rectangle 391" transform="translate(1773.503 297.656)"/>
                    <path id="Rectangle_395" d="M0 0h36.691v5.242H0z" class="cls-6" data-name="Rectangle 395" transform="translate(1745.984 276.69)"/>
                </g>
                <text id="Product_Delivery" class="cls-7" data-name="Product Delivery" transform="translate(1650 412.815)">
                    <tspan x="0" y="0">Product Delivery</tspan>
                </text>
            </g>
        </g>
        <g id="integration" transform="translate(-665 1192)">
            <g class="cls-19" transform="translate(929 -830)">
                <rect id="Rectangle_378-2" width="237" height="237" class="cls-3" data-name="Rectangle 378" rx="20" transform="translate(320 989)"/>
            </g>
            <g id="Group_203" data-name="Group 203" transform="translate(11 7.406)">
                <g id="Group_191" data-name="Group 191" transform="translate(1318 204.594)">
                    <path id="Path_545" d="M28.54 74.981a8.813 8.813 0 1 1 0-17.626 8.922 8.922 0 0 1 5.848 2.163.812.812 0 0 0 1.362-.561v-5.206a4.308 4.308 0 0 0-4.326-4.326h-3.445a1.982 1.982 0 0 1-1.6-3.125 8.426 8.426 0 0 0 1.521-4.887 8.813 8.813 0 0 0-17.626 0A8.426 8.426 0 0 0 11.8 46.3a1.982 1.982 0 0 1-1.6 3.125H5.626A4.308 4.308 0 0 0 1.3 53.751v25.717a4.308 4.308 0 0 0 4.326 4.326h25.718a4.308 4.308 0 0 0 4.326-4.326v-6.089a.794.794 0 0 0-1.362-.561 8.411 8.411 0 0 1-5.768 2.163z" class="cls-4" data-name="Path 545" transform="translate(-.258 -6.482)"/>
                    <path id="Path_546" d="M74.262 60.171a8.813 8.813 0 1 1-17.626 0 8.922 8.922 0 0 1 2.164-5.849.794.794 0 0 0-.561-1.362h-5.288a4.308 4.308 0 0 0-4.326 4.326v3.445a1.982 1.982 0 0 1-3.125 1.6 8.426 8.426 0 0 0-4.887-1.522 8.813 8.813 0 0 0 0 17.626 8.426 8.426 0 0 0 4.887-1.52 1.982 1.982 0 0 1 3.125 1.6v4.326a4.308 4.308 0 0 0 4.326 4.326h25.717a4.308 4.308 0 0 0 4.326-4.326V57.126a4.308 4.308 0 0 0-4.326-4.326h-6.089a.794.794 0 0 0-.561 1.362 9.311 9.311 0 0 1 2.244 6.009z" class="cls-5" data-name="Path 546" transform="translate(-6.323 -10.499)"/>
                    <path id="Path_547" d="M59.71 9.053a8.856 8.856 0 0 1 8.973 8.733 8.738 8.738 0 0 1-8.733 8.893 8.922 8.922 0 0 1-5.85-2.163.812.812 0 0 0-1.362.561l.08 5.288a4.377 4.377 0 0 0 4.406 4.326l3.445-.08a2.038 2.038 0 0 1 1.682 3.125 8.856 8.856 0 0 0 7.451 13.7 8.838 8.838 0 0 0 8.733-8.893 8.426 8.426 0 0 0-1.522-4.887 2 2 0 0 1 1.6-3.125l4.326-.08a4.377 4.377 0 0 0 4.326-4.406L86.95 4.326A4.429 4.429 0 0 0 82.544 0L56.826.32A4.377 4.377 0 0 0 52.5 4.727l.08 6.089a.794.794 0 0 0 1.362.561 8.7 8.7 0 0 1 5.768-2.324z" class="cls-6" data-name="Path 547" transform="translate(-10.439)"/>
                    <path id="Path_548" d="M9.053 27.76a8.856 8.856 0 0 1 8.733-8.973 8.738 8.738 0 0 1 8.893 8.733 8.922 8.922 0 0 1-2.163 5.848.812.812 0 0 0 .561 1.362l5.288-.08a4.377 4.377 0 0 0 4.326-4.406V26.8a1.982 1.982 0 0 1 3.125-1.6 8.735 8.735 0 0 0 4.884 1.438 8.909 8.909 0 0 0 8.733-8.973 8.787 8.787 0 0 0-8.893-8.733 8.426 8.426 0 0 0-4.887 1.522 2 2 0 0 1-3.125-1.6l-.08-4.326A4.377 4.377 0 0 0 30.044.2L4.326.52A4.377 4.377 0 0 0 0 4.927l.32 25.717a4.377 4.377 0 0 0 4.407 4.326l6.089-.08a.794.794 0 0 0 .561-1.362 8.7 8.7 0 0 1-2.324-5.768z" class="cls-5" data-name="Path 548" transform="translate(0 -.04)"/>
                    <ellipse id="Ellipse_300" cx="8.813" cy="8.412" class="cls-4" data-name="Ellipse 300" rx="8.813" ry="8.412" transform="translate(9.854 26.038)"/>
                </g>
                <text id="Integration-2" class="cls-7" data-name="Integration" transform="translate(1307 330.409)">
                    <tspan x="0" y="0">Integration</tspan>
                </text>
            </g>
        </g>
        <g id="development" transform="translate(-35 421)">
            <g class="cls-18" transform="translate(299 -59)">
                <rect id="Rectangle_396-2" width="237" height="237" class="cls-3" data-name="Rectangle 396" rx="20" transform="translate(599 723)"/>
            </g>
            <g id="Group_170" data-name="Group 170" transform="translate(964.257 728.925)">
                <path id="Path_539" d="M33.288 22L9 38.878l24.288 15.643" class="cls-8" data-name="Path 539" transform="translate(0 -10.002)"/>
                <path id="Path_540" d="M158 25l24.288 16.878L158 57.521" class="cls-8" data-name="Path 540" transform="translate(-87.663 -11.767)"/>
                <path id="Line_37" d="M19.348 0L0 48.575" class="cls-9" data-name="Line 37" transform="translate(41.933 5)"/>
            </g>
            <text id="Back-end_Development" class="cls-7" data-name="Back-end Development" transform="translate(1017 836.409)">
                <tspan x="-47.45" y="0">Back-end </tspan><tspan x="-60.51" y="24">Development</tspan>
            </text>
        </g>
        <g id="design" transform="translate(-589 926)">
            <g class="cls-17" transform="translate(853 -564)">
                <rect id="Rectangle_376-2" width="237" height="237" class="cls-3" data-name="Rectangle 376" rx="20" transform="translate(45 723)"/>
            </g>
            <g id="Group_167" data-name="Group 167" transform="translate(1010.872 205.963)">
                <path id="Path_532" d="M47.083 21.242l-23.338-9.969a5.838 5.838 0 0 1-3.091-7.728A5.838 5.838 0 0 1 28.382.454l23.338 9.969a5.838 5.838 0 0 1 3.091 7.728 5.813 5.813 0 0 1-7.728 3.091z" class="cls-6" data-name="Path 532" transform="translate(-12.011)"/>
                <path id="Path_533" d="M39.18 26.8l.077-.232-.618-.232c-.85-.464-2.55-1.159-4.328-1.855L20.015 18.3l-.077.155h-.078C19.4 18.841.232 34.3.232 34.3L0 76.568l3.941 1.7 12.906-30.525A3.753 3.753 0 0 1 16 43.415a3.947 3.947 0 1 1 3.319 5.485L6.414 79.2l4.018 1.777 30.6-29.134c.08-.004-1.62-23.188-1.852-25.043z" class="cls-5" data-name="Path 533" transform="translate(-7.43 -4.167)"/>
                <path id="Path_534" d="M76.555 104.564H6.232a1.913 1.913 0 0 1-1.932-1.932 1.913 1.913 0 0 1 1.932-1.932h70.323a1.913 1.913 0 0 1 1.932 1.932 2.018 2.018 0 0 1-1.932 1.932z" class="cls-4" data-name="Path 534" transform="translate(-37 -16.708)"/>
            </g>
            <text id="Experience_Development" class="cls-7" data-name="Experience Development" transform="translate(1017 332.409)">
                <tspan x="-54.02" y="0">Experience </tspan><tspan x="-60.51" y="24">Development</tspan>
            </text>
        </g>
        <g id="strategy" transform="translate(52 549)">
            <g class="cls-16" transform="translate(212 -187)">
                <rect id="Rectangle_371-2" width="237" height="332.183" class="cls-3" data-name="Rectangle 371" rx="20" transform="translate(320 342)"/>
            </g>
            <g id="Group_200" data-name="Group 200" transform="translate(0 17.409)">
                <g id="Group_184" data-name="Group 184" transform="translate(588 219.591)">
                    <rect id="Rectangle_373" width="81" height="6" class="cls-6" data-name="Rectangle 373" rx="3" transform="translate(45 10)"/>
                    <g id="Group_177" data-name="Group 177" transform="translate(2 35)">
                        <rect id="Rectangle_374" width="81" height="6" class="cls-5" data-name="Rectangle 374" rx="3" transform="translate(43 5)"/>
                        <g id="Rectangle_375" class="cls-10" data-name="Rectangle 375">
                            <path d="M0 0h16v16H0z" class="cls-13"/>
                            <path d="M1.5 1.5h13v13h-13z" class="cls-14"/>
                        </g>
                    </g>
                    <g id="Group_178" data-name="Group 178" transform="translate(2 58)">
                        <rect id="Rectangle_374-2" width="81" height="6" class="cls-4" data-name="Rectangle 374" rx="3" transform="translate(43 5)"/>
                        <g id="Rectangle_375-2" class="cls-10" data-name="Rectangle 375">
                            <path d="M0 0h16v16H0z" class="cls-13"/>
                            <path d="M1.5 1.5h13v13h-13z" class="cls-14"/>
                        </g>
                    </g>
                    <g id="Group_179" data-name="Group 179" transform="translate(2 82)">
                        <rect id="Rectangle_374-3" width="81" height="6" class="cls-5" data-name="Rectangle 374" rx="3" transform="translate(43 5)"/>
                        <g id="Rectangle_375-3" class="cls-10" data-name="Rectangle 375">
                            <path d="M0 0h16v16H0z" class="cls-13"/>
                            <path d="M1.5 1.5h13v13h-13z" class="cls-14"/>
                        </g>
                    </g>
                    <g id="Group_180" data-name="Group 180" transform="translate(2 105)">
                        <rect id="Rectangle_374-4" width="81" height="6" class="cls-4" data-name="Rectangle 374" rx="3" transform="translate(43 5)"/>
                        <g id="Rectangle_375-4" class="cls-10" data-name="Rectangle 375">
                            <path d="M0 0h16v16H0z" class="cls-13"/>
                            <path d="M1.5 1.5h13v13h-13z" class="cls-14"/>
                        </g>
                    </g>
                </g>
                <text id="Project_Specifications" class="cls-7" data-name="Project Specifications" transform="translate(651 383)">
                    <tspan x="-36.46" y="0">Project </tspan><tspan x="-65.54" y="24">Specifications</tspan>
                </text>
                <path id="Path_622" d="M2 12.409l8.5 8.1L25.287 5.355" class="cls-11" data-name="Path 622" transform="translate(588 218.183)"/>
            </g>
        </g>
        <g id="inquiry" transform="translate(424 242)">
            <g class="cls-15" transform="translate(-160 120)">
                <rect id="Rectangle_372-2" width="237" height="237" class="cls-3" data-name="Rectangle 372" rx="20" transform="translate(320 35)"/>
            </g>
            <g id="Group_201" data-name="Group 201" transform="translate(0 1.487)">
                <g id="Group_166" data-name="Group 166" transform="translate(220.018 200.513)">
                    <path id="Path_530" d="M43 104.913a40.613 40.613 0 0 1 81.226 0" class="cls-6" data-name="Path 530" transform="translate(-7.862 -11.756)"/>
                    <circle id="Ellipse_294" cx="19.939" cy="19.939" r="19.939" class="cls-6" data-name="Ellipse 294" transform="translate(55.812 8.172)"/>
                    <path id="Path_531" d="M0 104.944a44.944 44.944 0 0 1 89.888 0" class="cls-5" data-name="Path 531" transform="translate(0 -10.97)"/>
                    <circle id="Ellipse_295" cx="22.063" cy="22.063" r="22.063" class="cls-5" data-name="Ellipse 295" transform="translate(22.881)"/>
                </g>
                <text id="Client_Inquiry" class="cls-12" data-name="Client Inquiry" transform="translate(218 338)">
                    <tspan x="0" y="0">Client Inquiry</tspan>
                </text>
            </g>
        </g>
    </g>
</svg>
