
<svg xmlns="http://www.w3.org/2000/svg" viewBox="0 0 1871 892">
    <defs>
        <style>


@-webkit-keyframes pd-fadeInUp {
    from {
        opacity: 0.5;
        -webkit-transform: translate(277 100);
        transform: translate(277 100);
    }

    to {
        opacity: 1;
        -webkit-transform: translate(277 280);
        transform: translate(277 280);
    }
}

@keyframes pd-fadeInUp  {
    from {
        opacity: 0.5;
        -webkit-transform: translate(277 100);
        transform: translate(277 100);
    }

    to {
        opacity: 1;
        -webkit-transform: translate(277 280);
        transform: translate(277 280);
    }
}


tspan{
    font-family: sans-serif;
    font-weight:bold;
}


//process diagram

#inquiry{
    animation: pd-fadeInUp 0.2s ease-in;
    animation-delay:0.5s;
    opacity:1;

}

#strategy{
    animation: pd-fadeInUp 0.2s ease-in;
    animation-delay: 1.6s;
    opacity:0.4;
    animation-fill-mode: forwards;

}

#design{
    animation: pd-fadeInUp 0.2s ease-in;
    animation-delay: 4.8s;
    opacity:0.4;
    animation-fill-mode: forwards;

}

#development{
    animation: pd-fadeInUp 0.2s ease-in;
    animation-delay: 4.8s;
    opacity:0.4;
    animation-fill-mode: forwards;

}
#integration{
    animation: pd-fadeInUp 0.2s ease-in;
    animation-delay: 5s;
    opacity:0.4;
    animation-fill-mode: forwards;

}
#ship{
    animation: pd-fadeInUp 0.2s ease-in;
    animation-delay: 7.4s;
    opacity:0.4;
    animation-fill-mode: forwards;

}

#Maintenance-2{
    animation: pd-fadeInUp 0.2s ease;
    animation-delay: 10s;
    opacity:0.4;
    animation-fill-mode: forwards;

}
.green-line{
     stroke-dasharray: 100%;
  stroke-dashoffset: 100%;
  animation: dash 10s linear forwards;
  animation-delay: 1s;
}


@keyframes dash {
  to {
    stroke-dashoffset: 0;
  }
}


.path-from{
     stroke-dasharray: 100%;
  stroke-dashoffset: 100%;
  animation: dash 7s linear forwards;
  animation-delay: 3.55s;
}

.path-to{
     stroke-dasharray: 100%;
  stroke-dashoffset: 100%;
  animation: dash 5s linear forwards;
  animation-delay: 5s;
}
    
            .cls-1,.cls-12,.cls-14,.cls-2,.cls-8,.cls-9{fill:none}.cls-1{stroke:#c2c9ce}.cls-1,.cls-2,.cls-8,.cls-9{stroke-miterlimit:10;stroke-width:10px}.cls-2{stroke:#b4ffd1}.cls-11,.cls-3{fill:#fff}.cls-4{fill:#84ffb4}.cls-10,.cls-5,.cls-7{fill:#545e65}.cls-6{fill:#c2c9ce}.cls-7{font-size:20px;font-family:Maax-Medium,Maax;font-weight:500}.cls-10,.cls-11,.cls-8{stroke:#545e65}.cls-8,.cls-9{stroke-linecap:round}.cls-12,.cls-9{stroke:#84ffb4}.cls-10,.cls-11{stroke-width:3px}.cls-12{stroke-width:5px}.cls-13{stroke:none}.cls-15{filter:url(#Rectangle_397)}.cls-16{filter:url(#Rectangle_378)}.cls-17{filter:url(#Rectangle_380)}.cls-18{filter:url(#Rectangle_379)}.cls-19{filter:url(#Rectangle_377)}.cls-20{filter:url(#Rectangle_371)}.cls-21{filter:url(#Rectangle_372)}.cls-22{filter:url(#Rectangle_396)}.cls-23{filter:url(#Rectangle_376)}
        </style>
        <filter id="Rectangle_376" width="327" height="327" x="612" y="21" filterUnits="userSpaceOnUse">
            <feOffset dy="10"/>
            <feGaussianBlur result="blur" stdDeviation="15"/>
            <feFlood flood-color="#13416f" flood-opacity=".161"/>
            <feComposite in2="blur" operator="in"/>
            <feComposite in="SourceGraphic"/>
        </filter>
        <filter id="Rectangle_396" width="327" height="327" x="609" y="564" filterUnits="userSpaceOnUse">
            <feOffset dy="10"/>
            <feGaussianBlur result="blur-2" stdDeviation="15"/>
            <feFlood flood-color="#13416f" flood-opacity=".161"/>
            <feComposite in2="blur-2" operator="in"/>
            <feComposite in="SourceGraphic"/>
        </filter>
        <filter id="Rectangle_372" width="327" height="327" x="0" y="293" filterUnits="userSpaceOnUse">
            <feOffset dy="10"/>
            <feGaussianBlur result="blur-3" stdDeviation="15"/>
            <feFlood flood-color="#13416f" flood-opacity=".161"/>
            <feComposite in2="blur-3" operator="in"/>
            <feComposite in="SourceGraphic"/>
        </filter>
        <filter id="Rectangle_371" width="327" height="422.183" x="327" y="245" filterUnits="userSpaceOnUse">
            <feOffset dy="10"/>
            <feGaussianBlur result="blur-4" stdDeviation="15"/>
            <feFlood flood-color="#13416f" flood-opacity=".161"/>
            <feComposite in2="blur-4" operator="in"/>
            <feComposite in="SourceGraphic"/>
        </filter>
        <filter id="Rectangle_377" width="327" height="419" x="1218" y="247" filterUnits="userSpaceOnUse">
            <feOffset dy="10"/>
            <feGaussianBlur result="blur-5" stdDeviation="15"/>
            <feFlood flood-color="#13416f" flood-opacity=".161"/>
            <feComposite in2="blur-5" operator="in"/>
            <feComposite in="SourceGraphic"/>
        </filter>
        <filter id="Rectangle_379" width="96.625" height="154.282" x="1300" y="372" filterUnits="userSpaceOnUse">
            <feOffset dy="3"/>
            <feGaussianBlur result="blur-6" stdDeviation="3"/>
            <feFlood flood-opacity=".161"/>
            <feComposite in2="blur-6" operator="in"/>
            <feComposite in="SourceGraphic"/>
        </filter>
        <filter id="Rectangle_380" width="67.795" height="104.487" x="1395.66" y="421.795" filterUnits="userSpaceOnUse">
            <feOffset dy="3"/>
            <feGaussianBlur result="blur-7" stdDeviation="3"/>
            <feFlood flood-opacity=".161"/>
            <feComposite in2="blur-7" operator="in"/>
            <feComposite in="SourceGraphic"/>
        </filter>
        <filter id="Rectangle_378" width="327" height="327" x="891" y="293" filterUnits="userSpaceOnUse">
            <feOffset dy="10"/>
            <feGaussianBlur result="blur-8" stdDeviation="15"/>
            <feFlood flood-color="#13416f" flood-opacity=".161"/>
            <feComposite in2="blur-8" operator="in"/>
            <feComposite in="SourceGraphic"/>
        </filter>
        <filter id="Rectangle_397" width="327" height="327" x="1544" y="293" filterUnits="userSpaceOnUse">
            <feOffset dy="10"/>
            <feGaussianBlur result="blur-9" stdDeviation="15"/>
            <feFlood flood-color="#13416f" flood-opacity=".161"/>
            <feComposite in2="blur-9" operator="in"/>
            <feComposite in="SourceGraphic"/>
        </filter>
    </defs>
    <g id="process-diagram" transform="translate(-392 -107)">
        <g id="Group_196" data-name="Group 196" transform="translate(1003 387)">
            <path id="Path_581" d="M-13.919 150H128.2c15.9 0 28.8 12.9 28.8 38.8v134.284" class="cls-1 path-from" data-name="Path 581" transform="translate(0 10)"/>
            <path id="Path_583" d="M-21.4 143.3h149.6c15.9 0 28.8-12.9 28.8-38.8V0" class="cls-1 path-from" data-name="Path 583"/>
            <path id="Path_623" d="M.5-59.764V83.2A23.793 23.793 0 0 0 24.3 107h148.045" class="cls-1 path-to" data-name="Path 623" transform="translate(173.5 36)"/>
            <path id="Path_624" d="M.5 292.047V134.8A23.793 23.793 0 0 1 24.3 111h143.713" class="cls-1 path-to" data-name="Path 624" transform="translate(173.5 51)"/>
        </g>
        <path id="Path_566" d="M-57-60.445H987.977c168.842 0 305.742.766 305.742 1.71v5.817" class="cls-2 green-line" data-name="Path 566" transform="translate(703.315 600.445)"/>
        <g id="design" transform="translate(150 4)">
            <g class="cls-23" transform="translate(242 103)">
                <rect id="Rectangle_376-2" width="237" height="237" class="cls-3" data-name="Rectangle 376" rx="20" transform="translate(657 56)"/>
            </g>
            <g id="Group_167" data-name="Group 167" transform="translate(1000.7 221.041)">
                <path id="Path_532" d="M55 27.5L24.8 14.6a7.555 7.555 0 0 1-4-10 7.555 7.555 0 0 1 10-4L61 13.5a7.555 7.555 0 0 1 4 10 7.522 7.522 0 0 1-10 4z" class="cls-4" data-name="Path 532"/>
                <path id="Path_533" d="M50.7 29.3l.1-.3-.8-.3c-1.1-.6-3.3-1.5-5.6-2.4l-18.5-8-.1.2h-.1C25.1 19 .3 39 .3 39L0 93.7l5.1 2.2 16.7-39.5a4.857 4.857 0 0 1-1.1-5.6 5.108 5.108 0 1 1 4.3 7.1L8.3 97.1l5.2 2.3 39.6-37.7c.1 0-2.1-30-2.4-32.4z" class="cls-5" data-name="Path 533"/>
                <path id="Path_534" d="M97.8 105.7h-91a2.476 2.476 0 0 1-2.5-2.5 2.476 2.476 0 0 1 2.5-2.5h91a2.476 2.476 0 0 1 2.5 2.5 2.611 2.611 0 0 1-2.5 2.5z" class="cls-6" data-name="Path 534" transform="translate(-37 8)"/>
            </g>
            <text id="Experience_Development" class="cls-7" data-name="Experience Development" transform="translate(904 118)">
                <tspan x="0" y="0">Experience Development</tspan>
            </text>
        </g>
        <g id="development" transform="translate(148 42)">
            <g class="cls-22" transform="translate(244 65)">
                <rect id="Rectangle_396-2" width="237" height="237" class="cls-3" data-name="Rectangle 396" rx="20" transform="translate(654 599)"/>
            </g>
            <g id="Group_170" data-name="Group 170" transform="translate(945 742)">
                <path id="Path_539" d="M44.212 22L9 46.47l35.212 22.679" class="cls-8" data-name="Path 539" transform="translate(0 -6.854)"/>
                <path id="Path_540" d="M158 25l35.212 24.47L158 72.149" class="cls-8" data-name="Path 540" transform="translate(-60.074 -8.064)"/>
                <path id="Line_37" d="M28.05 0L0 70.425" class="cls-9" data-name="Line 37" transform="translate(56.745 5)"/>
            </g>
            <text id="Back-end_Development" class="cls-7" data-name="Back-end Development" transform="translate(910 952)">
                <tspan x="0" y="0">Back-end Development</tspan>
            </text>
        </g>
        <g id="inquiry" transform="translate(277 280)">
            <g class="cls-21" transform="translate(115 -173)">
                <rect id="Rectangle_372-2" width="237" height="237" class="cls-3" data-name="Rectangle 372" rx="20" transform="translate(45 328)"/>
            </g>
            <g id="Group_166" data-name="Group 166" transform="translate(207 220)">
                <path id="Path_530" d="M43 114a49.7 49.7 0 0 1 99.4 0" class="cls-4" data-name="Path 530"/>
                <circle id="Ellipse_294" cx="24.4" cy="24.4" r="24.4" class="cls-4" data-name="Ellipse 294" transform="translate(68.3 10)"/>
                <path id="Path_531" d="M0 115a55 55 0 0 1 110 0" class="cls-5" data-name="Path 531"/>
                <circle id="Ellipse_295" cx="27" cy="27" r="27" class="cls-5" data-name="Ellipse 295" transform="translate(28)"/>
            </g>
            <text id="Client_Inquiry" class="cls-7" data-name="Client Inquiry" transform="translate(218 463)">
                <tspan x="0" y="0">Client Inquiry</tspan>
            </text>
        </g>
        <g id="strategy" transform="translate(232 232)">
            <g class="cls-20" transform="translate(160 -125)">
                <rect id="Rectangle_371-2" width="237" height="332.183" class="cls-3" data-name="Rectangle 371" rx="20" transform="translate(372 280)"/>
            </g>
            <g id="Group_184" data-name="Group 184" transform="translate(588 260.591)">
                <rect id="Rectangle_373" width="81" height="6" class="cls-4" data-name="Rectangle 373" rx="3" transform="translate(45 9.409)"/>
                <g id="Group_177" data-name="Group 177" transform="translate(2 35)">
                    <rect id="Rectangle_374" width="81" height="6" class="cls-5" data-name="Rectangle 374" rx="3" transform="translate(43 5)"/>
                    <g id="Rectangle_375" class="cls-10" data-name="Rectangle 375">
                        <path d="M0 0h16v16H0z" class="cls-13"/>
                        <path d="M1.5 1.5h13v13h-13z" class="cls-14"/>
                    </g>
                </g>
                <g id="Group_178" data-name="Group 178" transform="translate(2 58)">
                    <rect id="Rectangle_374-2" width="81" height="6" class="cls-6" data-name="Rectangle 374" rx="3" transform="translate(43 5)"/>
                    <g id="Rectangle_375-2" class="cls-11" data-name="Rectangle 375">
                        <path d="M0 0h16v16H0z" class="cls-13"/>
                        <path d="M1.5 1.5h13v13h-13z" class="cls-14"/>
                    </g>
                </g>
                <g id="Group_179" data-name="Group 179" transform="translate(2 81)">
                    <rect id="Rectangle_374-3" width="81" height="6" class="cls-5" data-name="Rectangle 374" rx="3" transform="translate(43 5)"/>
                    <g id="Rectangle_375-3" class="cls-10" data-name="Rectangle 375">
                        <path d="M0 0h16v16H0z" class="cls-13"/>
                        <path d="M1.5 1.5h13v13h-13z" class="cls-14"/>
                    </g>
                </g>
                <g id="Group_180" data-name="Group 180" transform="translate(2 105)">
                    <rect id="Rectangle_374-4" width="81" height="6" class="cls-6" data-name="Rectangle 374" rx="3" transform="translate(43 5)"/>
                    <g id="Rectangle_375-4" class="cls-11" data-name="Rectangle 375">
                        <path d="M0 0h16v16H0z" class="cls-13"/>
                        <path d="M1.5 1.5h13v13h-13z" class="cls-14"/>
                    </g>
                </g>
                <path id="Path_622" d="M2 12.409l8.5 8.1L25.287 5.355" class="cls-12" data-name="Path 622"/>
            </g>
            <text id="Project_Specifications" class="cls-7" data-name="Project Specifications" transform="translate(550 560)">
                <tspan x="0" y="0">Project Specifications</tspan>
            </text>
        </g>
        <g id="ship" transform="translate(57 230)">
            <g class="cls-19" transform="translate(335 -123)">
                <rect id="Rectangle_377-2" width="237" height="329" class="cls-3" data-name="Rectangle 377" rx="20" transform="translate(1263 282)"/>
            </g>
            <g id="Group_187" data-name="Group 187" transform="translate(.228 45.141)">
                <g id="Group_169" data-name="Group 169" transform="translate(1643.772 209.859)">
                    <g class="cls-18" transform="translate(-1309 -378)">
                        <rect id="Rectangle_379-2" width="78.624" height="136.282" class="cls-5" data-name="Rectangle 379" rx="6" transform="translate(1309 378)"/>
                    </g>
                    <g class="cls-17" transform="translate(-1309 -378)">
                        <rect id="Rectangle_380-2" width="49.795" height="86.487" class="cls-3" data-name="Rectangle 380" rx="8" transform="translate(1404.66 427.8)"/>
                    </g>
                    <path id="Rectangle_382" d="M0 0h49.795v9.173H0z" class="cls-3" data-name="Rectangle 382" transform="translate(14.414 83.866)"/>
                    <path id="Rectangle_383" d="M0 0h49.795v9.173H0z" class="cls-6" data-name="Rectangle 383" transform="translate(14.414 100.901)"/>
                    <circle id="Ellipse_296" cx="12.449" cy="12.449" r="12.449" class="cls-4" data-name="Ellipse 296" transform="translate(27.519 31.45)"/>
                </g>
                <path id="Rectangle_384" d="M0 0h1.31v24.898H0z" class="cls-5" data-name="Rectangle 384" transform="translate(1745.984 295.035)"/>
                <path id="Rectangle_388" d="M0 0h1.31v24.898H0z" class="cls-5" data-name="Rectangle 388" transform="translate(1761.709 295.035)"/>
                <path id="Rectangle_385" d="M0 0h1.31v30.139H0z" class="cls-6" data-name="Rectangle 385" transform="translate(1749.915 289.794)"/>
                <path id="Rectangle_389" d="M0 0h1.31v30.139H0z" class="cls-6" data-name="Rectangle 389" transform="translate(1765.64 289.794)"/>
                <path id="Rectangle_394" d="M0 0h1.31v30.139H0z" class="cls-5" data-name="Rectangle 394" transform="translate(1777.434 289.794)"/>
                <path id="Rectangle_386" d="M0 0h1.31v15.725H0z" class="cls-5" data-name="Rectangle 386" transform="translate(1753.847 304.208)"/>
                <path id="Rectangle_390" d="M0 0h1.31v15.725H0z" class="cls-5" data-name="Rectangle 390" transform="translate(1769.571 304.208)"/>
                <path id="Rectangle_393" d="M0 0h1.31v15.725H0z" class="cls-6" data-name="Rectangle 393" transform="translate(1781.365 304.208)"/>
                <path id="Rectangle_387" d="M0 0h1.31v22.277H0z" class="cls-6" data-name="Rectangle 387" transform="translate(1757.778 297.656)"/>
                <path id="Rectangle_391" d="M0 0h1.31v22.277H0z" class="cls-6" data-name="Rectangle 391" transform="translate(1773.503 297.656)"/>
                <path id="Rectangle_395" d="M0 0h36.691v5.242H0z" class="cls-4" data-name="Rectangle 395" transform="translate(1745.984 276.69)"/>
            </g>
            <text id="Product_Delivery" class="cls-7" data-name="Product Delivery" transform="translate(1640 542)">
                <tspan x="0" y="0">Product Delivery</tspan>
            </text>
        </g>
        <g id="integration" transform="translate(79 276)">
            <g class="cls-16" transform="translate(313 -169)">
                <rect id="Rectangle_378-2" width="237" height="237" class="cls-3" data-name="Rectangle 378" rx="20" transform="translate(936 328)"/>
            </g>
            <g id="Group_191" data-name="Group 191" transform="translate(1320 229)">
                <path id="Path_545" d="M35.3 85.5a11 11 0 1 1 0-22 11.136 11.136 0 0 1 7.3 2.7 1.014 1.014 0 0 0 1.7-.7V59a5.378 5.378 0 0 0-5.4-5.4h-4.3a2.474 2.474 0 0 1-2-3.9 10.518 10.518 0 0 0 1.9-6.1 11 11 0 0 0-22 0 10.518 10.518 0 0 0 1.9 6.1 2.474 2.474 0 0 1-2 3.9H6.7A5.378 5.378 0 0 0 1.3 59v32.1a5.378 5.378 0 0 0 5.4 5.4h32.1a5.378 5.378 0 0 0 5.4-5.4v-7.6a.991.991 0 0 0-1.7-.7 10.5 10.5 0 0 1-7.2 2.7z" class="cls-6" data-name="Path 545"/>
                <path id="Path_546" d="M84.8 62a11 11 0 0 1-22 0 11.136 11.136 0 0 1 2.7-7.3.991.991 0 0 0-.7-1.7h-6.6a5.378 5.378 0 0 0-5.4 5.4v4.3a2.474 2.474 0 0 1-3.9 2 10.518 10.518 0 0 0-6.1-1.9 11 11 0 0 0 0 22 10.518 10.518 0 0 0 6.1-1.9 2.474 2.474 0 0 1 3.9 2v5.4a5.378 5.378 0 0 0 5.4 5.4h32.1a5.378 5.378 0 0 0 5.4-5.4V58.2a5.378 5.378 0 0 0-5.4-5.4h-7.6a.991.991 0 0 0-.7 1.7 11.622 11.622 0 0 1 2.8 7.5z" class="cls-5" data-name="Path 546"/>
                <path id="Path_547" d="M61.5 11.3a11.054 11.054 0 0 1 11.2 10.9 10.906 10.906 0 0 1-10.9 11.1 11.136 11.136 0 0 1-7.3-2.7 1.014 1.014 0 0 0-1.7.7l.1 6.6a5.463 5.463 0 0 0 5.5 5.4l4.3-.1a2.543 2.543 0 0 1 2.1 3.9 11.054 11.054 0 0 0 9.3 17.1A11.031 11.031 0 0 0 85 53.1a10.518 10.518 0 0 0-1.9-6.1 2.49 2.49 0 0 1 2-3.9l5.4-.1a5.463 5.463 0 0 0 5.4-5.5l-.4-32.1A5.529 5.529 0 0 0 90 0L57.9.4a5.463 5.463 0 0 0-5.4 5.5l.1 7.6a.991.991 0 0 0 1.7.7 10.853 10.853 0 0 1 7.2-2.9z" class="cls-4" data-name="Path 547"/>
                <path id="Path_548" d="M11.3 34.6a11.054 11.054 0 0 1 10.9-11.2 10.906 10.906 0 0 1 11.1 10.9 11.136 11.136 0 0 1-2.7 7.3 1.014 1.014 0 0 0 .7 1.7l6.6-.1a5.463 5.463 0 0 0 5.4-5.5v-4.3a2.474 2.474 0 0 1 3.9-2 10.9 10.9 0 0 0 6.1 1.8A11.12 11.12 0 0 0 64.2 22a10.968 10.968 0 0 0-11.1-10.9A10.518 10.518 0 0 0 47 13a2.49 2.49 0 0 1-3.9-2L43 5.6A5.463 5.463 0 0 0 37.5.2L5.4.6A5.463 5.463 0 0 0 0 6.1l.4 32.1a5.463 5.463 0 0 0 5.5 5.4l7.6-.1a.991.991 0 0 0 .7-1.7 10.853 10.853 0 0 1-2.9-7.2z" class="cls-5" data-name="Path 548"/>
                <ellipse id="Ellipse_300" cx="11" cy="10.5" class="cls-6" data-name="Ellipse 300" rx="11" ry="10.5" transform="translate(12.3 32.5)"/>
            </g>
            <text id="Integration-2" class="cls-7" data-name="Integration" transform="translate(1318 459)">
                <tspan x="0" y="0">Integration</tspan>
            </text>
        </g>
        <text id="Maintenance" class="cls-7" transform="translate(2042 723)">
            <tspan x="0" y="0">Maintenance</tspan>
        </text>
        <g id="Maintenance-2" data-name="Maintenance">
            <g class="cls-15" transform="translate(392 107)">
                <rect id="Rectangle_397-2" width="237" height="237" class="cls-3" data-name="Rectangle 397" rx="20" transform="translate(1589 328)"/>
            </g>
            <path id="Path_621" d="M0 0l63.961-18.039-17.6 62.4L-17.6 62.4z" class="cls-6" data-name="Path 621" transform="rotate(45 406.825 2809.45)"/>
            <path id="Path_620" d="M0 0l63.961-18.039-17.6 62.4L-17.6 62.4z" class="cls-5" data-name="Path 620" transform="rotate(45 427.346 2800.95)"/>
            <path id="Path_619" d="M0 0l63.961-18.039-17.6 62.4L-17.6 62.4z" class="cls-4" data-name="Path 619" transform="rotate(45 447.867 2792.45)"/>
        </g>
    </g>
</svg>
