<svg xmlns="http://www.w3.org/2000/svg" viewBox="0 0 445.236 439.888">
    <defs>
        <style>
            .cls-1{fill:#d04d59}.cls-14,.cls-2{opacity:.3}.cls-3{fill:#fdb636}.cls-4{fill:#2d4496}.cls-5{fill:#594fd2}.cls-6{fill:#fff}.cls-7{fill:#fa7146}.cls-8{fill:#2e3393}.cls-9{fill:#f29c35}.cls-10{fill:#4ea2fe}.cls-11{fill:url(#linear-gradient)}.cls-12{fill:#322b74}.cls-13{fill:#8ec2fe}.cls-15{fill:#97fdca}
        </style>
        <linearGradient id="linear-gradient" x1=".762" x2=".22" y1="1.106" y2=".071" gradientUnits="objectBoundingBox">
            <stop offset="0" stop-color="#0ff" stop-opacity=".302"/>
            <stop offset="1" stop-color="#fff" stop-opacity=".102"/>
        </linearGradient>
    </defs>
    <g id="running" transform="translate(.2 .009)">
        <g id="Group_151" data-name="Group 151" transform="translate(122.428 99.18)">
            <path id="Path_429" d="M316.965 172.031a29.852 29.852 0 0 1-3.488 4.5 22.952 22.952 0 0 1-4.505 3.851 23.823 23.823 0 0 1-5.668 2.688 29.2 29.2 0 0 1-5.958 1.308 39.648 39.648 0 0 1-5.813.363c-1.889 0-3.633 0-5.595-.145a26.78 26.78 0 0 1-6.1-1.017 18.863 18.863 0 0 1-3.2-1.163 23.993 23.993 0 0 1-2.979-1.671 22.661 22.661 0 0 1-4.8-4.214 49.569 49.569 0 0 1-3.56-4.65c-2.107-3.124-3.924-6.1-6.322-8.5l-1.817-1.817a9.2 9.2 0 0 0-.945-.8l-1.017-.727a21.627 21.627 0 0 0-2.107-1.453 22.315 22.315 0 0 0-2.253-1.235c-.727-.436-1.526-.727-2.253-1.163l-2.4-.872c-.8-.291-1.6-.581-2.4-.8s-1.671-.363-2.47-.581a24.72 24.72 0 0 0-2.47-.509l-2.47-.363c-1.6-.291-3.342-.436-4.941-.654l-1.235-.145c-.436 0-.8-.073-1.235-.073-.8-.073-1.6-.145-2.4-.291s-1.6-.145-2.4-.218l-2.4-.145a108.647 108.647 0 0 0-18.892 1.381c-.8.145-1.526.291-2.325.363-.8.145-1.526.218-2.325.363-.727.145-1.526.291-2.325.436-.363.073-.8.145-1.163.218l-1.163.291c-1.526.436-3.124.727-4.578 1.163s-2.906.945-4.36 1.453a40.8 40.8 0 0 0-8.065 4.287 23.246 23.246 0 0 0-3.415 3.124 17.933 17.933 0 0 0-2.688 4.287l-1.453-.073a15.168 15.168 0 0 1-.291-6.031 18.741 18.741 0 0 1 1.962-5.886 29.222 29.222 0 0 1 7.847-9.446 43.69 43.69 0 0 1 4.941-3.488 40.4 40.4 0 0 1 5.3-2.688l1.308-.654 1.381-.509c.945-.363 1.817-.654 2.761-1.017a20.682 20.682 0 0 1 2.834-.8c.945-.218 1.889-.509 2.834-.727a50.92 50.92 0 0 1 5.813-.872c1.962-.145 3.924-.145 5.886-.218 1.962.145 3.924.218 5.813.436l2.906.436a19.34 19.34 0 0 1 2.834.509l2.834.654c.945.218 1.889.436 2.834.727s1.817.581 2.761.872l1.381.436 1.308.581a48.487 48.487 0 0 1 5.159 2.543 54.381 54.381 0 0 1 4.868 2.979l2.325 1.6c.8.509 1.526 1.163 2.253 1.671.727.581 1.526 1.09 2.253 1.6.727.581 1.453 1.163 2.18 1.671.727.581 1.453 1.09 2.18 1.671s1.453 1.163 2.18 1.671l1.09.8.581.436.509.436a24.708 24.708 0 0 0 2.18 1.671c2.979 2.18 5.813 4.432 8.792 6.249a38.587 38.587 0 0 0 8.356 3.924c1.235.363 2.4.654 3.706.945 1.308.218 2.761.509 4.287.727l4.941.654q2.507.327 4.8.654a34.053 34.053 0 0 0 9.01.073c3.052-.363 6.467-1.526 10.173-2.4z" class="cls-1" data-name="Path 429" transform="translate(-168.566 -136.5)"/>
        </g>
        <path id="Path_430" d="M292.256 587.244c0 4.8-5.522-3.052-17.439 4.36-15.259 9.446-39.237 9.446-45.777-7.993-1.671-4.505 10.173-8.719 26.158-2.18 13.007 5.304 37.058.945 37.058 5.813z" class="cls-2" data-name="Path 430" transform="translate(-62.629 -158.036)"/>
        <path id="Path_431" d="M506.323 107.4s-20.272 15.114-21.072 15.985c0 0-6.54 6.54-7.993 8.719 0 0-15.477 18.165-25 26.449a32.035 32.035 0 0 1-4.432 3.342s-7.629 7.193-20.345 4c0 0-14.678-3.924-20.272-10.609a69.827 69.827 0 0 1-6.758-6.467 23.288 23.288 0 0 1-3.633-5.159 43.177 43.177 0 0 1-2.253 5.886s-13.074 26.014-11.765 28.92c0 0 85.232 16.639 93.006 37.711 0 0 7.266 10.173-6.757 24.923 0 0-20.345 19.619-21.8 18.892 0 0-30.227 19.909-38.874 34.441a17.591 17.591 0 0 0-1.889 4.214s-4.142 10.173-4.8 10.245c0 0 .073.145.291.509a12.635 12.635 0 0 1-1.09.945 6.443 6.443 0 0 0 1.235-.581c2.616 4.868 15.332 28.265 20.49 27.175 0 0 7.7-.218 7.92 5.45a14.108 14.108 0 0 1-2.47 3.27 15.816 15.816 0 0 1-1.962 1.09 1.009 1.009 0 0 1-.727.509c-.218.073-.509.073-.727.145H424s-46.867-6.612-57.766-18.965a8.495 8.495 0 0 1-3.052-7.993 18.654 18.654 0 0 1 3.918-8.646l6.176-6.249a.655.655 0 0 0 .363-.073c4.868-1.09 11.19-9.664 16.058-17.439 4.36-6.975 7.557-13.442 7.557-13.442s.581-31.753 15.768-42l5.595-4.578s-31.971 13.806-50.863 10.9c0 0-24.7 72.661-40.69 77.748 0 0-18.165 15.622-24.559 15.84 0 0-34.078 47.085-34.078 48.9 0 0-6.394 9.3-8.356 10.173 0 0 13.224 29.428 17.729 28.338 0 0 7.847 5.086 6.54 9.3 0 0 1.09 4.723-8.356 3.052 0 0-46.067-13.878-50.79-35.822a9.918 9.918 0 0 1 5.232-8.865s4.5-3.924 9.591-4.142c0 0 2.253-5.522 4.578-11.117 0 0 13.66-35.6 15.84-37.639 0 0 0-23.106 11.989-34.514 0 0 8.138-5.086 20.2-16.567 0 0 5.958-22.888 4.723-28.7 0 0-9.809-36.331 12.934-62.489 0 0 14.314-17.8 23.252-23.4a1.588 1.588 0 0 0 .363-.218s-8.138-24.559-13.006-45.123c-1.381-6.83-2.4-12.425-2.906-14.9a8.9 8.9 0 0 1-.145-1.381c-.073-.727-.145-1.381-.218-2.035a12.971 12.971 0 0 1-.145-1.671 18.423 18.423 0 0 1 .073-5.45c0-.145.073-.218.073-.363-.509.363-8.647 5.813-17.148 5.3a20 20 0 0 1-9.01-3.488h-.073a.225.225 0 0 0-.145.073 109.471 109.471 0 0 0-17 8.719.071.071 0 0 0-.073.073c-.727.509-1.526 1.017-2.18 1.526-3.706 2.761-6.612 5.813-7.121 8.865a20.544 20.544 0 0 0-.8 2.253c0 .073 0 .073-.073.145l-.436.872a5 5 0 0 0-.218.581c-2.47 5.377-7.484 15.985-9.446 19.328-.218.291-.145.218-.218.291a3.4 3.4 0 0 0-.363.436 2.323 2.323 0 0 0 .073.509v.581c0 .436.073 1.017.145 1.671v.436c.073.872.218 1.889.363 3.052 0 .218.073.436.073.654.073.727.218 1.381.291 2.18 0 .145.073.291.073.436.145.727.291 1.526.436 2.325.073.218.073.436.145.727a44.932 44.932 0 0 0 1.09 4.214l.218.654c.145.363.218.727.363 1.09a4.637 4.637 0 0 1 .145.509 27.229 27.229 0 0 0 1.526 3.633c.073.145.145.218.145.363a11.568 11.568 0 0 0 .945 1.6c.073.145.218.291.291.436.073.073.145.145.145.218.145.145.218.363.363.509.145.218.363.363.509.581l.436.436a3.709 3.709 0 0 1-.073.654v.073a.267.267 0 0 1-.073.218.071.071 0 0 1-.073.073l-.218.436-.073.073-.145.145c-.073.073-.073.073-.145.073-.073 0-.073.073-.145.073-.073.073-.145.073-.291.073h-.218a3.465 3.465 0 0 1-1.744-.581c-.073-.073-.145-.073-.218-.145s-.145-.073-.218-.145c-.218-.145-.509-.363-.727-.509-.073-.073-.218-.145-.291-.218a3.782 3.782 0 0 0-.218-.363 3.94 3.94 0 0 1-.436-.8c-.073-.073-.073-.145-.145-.218a1.521 1.521 0 0 0-.291-.436c-.073-.145-.145-.218-.218-.363a.551.551 0 0 1-.145-.291 1.521 1.521 0 0 0-.291-.436c-.509-.8-.945-1.744-1.453-2.543-.145-.218-.218-.436-.363-.654-.073-.073-.073-.145-.145-.291-.073-.073-.073-.218-.145-.291-.073-.218-.218-.363-.291-.581v-.073a6.086 6.086 0 0 1-.581-1.381 5.113 5.113 0 0 0-1.308 1.163c-.073.073-.073.145-.145.145-.073.073-.145.218-.218.291-.073.145-.145.218-.218.363l-.218.436c-.073.145-.145.218-.218.363-.073.073-.073.218-.145.291s-.073.218-.145.291a4.165 4.165 0 0 0-.291 1.017c0 .145-.073.218-.073.363a8.29 8.29 0 0 0 0 2.325v.727c.073 1.889.291 6.758.581 8.356 0 .145 0 .218.073.291v.073a2.6 2.6 0 0 1-1.526.872c-.872.073-1.962-.509-2.906-3.342 0 0-1.6-5.45-1.163-9.373a2.517 2.517 0 0 0-1.453 2.543 22 22 0 0 0 .145 4.214s-1.671 2.906-3.706-1.308a16.681 16.681 0 0 1-.363-3.778s-1.017-.436-1.889 2.543c0 0-2.906 2.906-3.488-1.6s4.941-14.9 5.595-16.131 2.761-5.958 2.834-8.429c.145-2.47 4.214-17 4.868-19.764s13.37-45.486 15.767-47.3 23.106-17.8 61.4-21.944c0 0 7.629-.872 11.48 0s28.193 8.138 28.193 8.138c-.727-6.54.363-22.38.363-22.38.872-25.068 15.4-27.03 15.4-27.03 20.708-1.453 33.279 17.584 33.279 17.584 5.45 5.958 1.6 16.857 1.6 16.857C411.646 54.8 401.837 62.5 401.837 62.5c-5.668 4.8-10.609 7.266-14.678 8.429l-.145 4.5s2.107-.581 10.9 6.54a18.877 18.877 0 0 1 9.519 3.2s6.54 2.979 7.193 11.916a26.051 26.051 0 0 1-.145 8.356s1.308 3.924 7.92 7.92c0 0 4.723 1.962 7.121 12.57 0 0 1.308 8.937 2.688 9.083a11.808 11.808 0 0 0 4.578-1.671s27.828-9.443 30.012-10.753l12.352-12.352a19.239 19.239 0 0 0 3.633-11.626s-1.017-10.536 1.453-9.446c0 0 3.488 2.107 3.633 5.086 0 0 6.54-5.813 9.446-5.086 0 0 1.453-.727 2.906 5.086-.439.072 8.208 3.705 6.1 13.148z" class="cls-3" data-name="Path 431" transform="translate(-61.619 -3.718)"/>
        <path id="Path_432" d="M359.57 227.2s-49.264 28.338-37.639 85.014l58.129 22.525s13.079-30.154 13.442-36.694c0 0 1.308 2.325 7.847 0 0 0 16.857-1.235 39.164-9.373l23.687-37.859s-70.115-23.978-104.63-23.613z" class="cls-4" data-name="Path 432" transform="translate(-87.581 -62.114)"/>
        <path id="Path_433" d="M407.622 313.218s-1.817 10.754-13.442 36.694l-20.926-8.138s7.993-34.659-1.453-59.074c-.001 0 30.517 29.5 35.821 30.518z" class="cls-2" data-name="Path 433" transform="translate(-101.7 -77.289)"/>
        <path id="Path_434" d="M323.9 344.7l56.24 21.8s-14.387 35.677-25.94 40.545z" class="cls-2" data-name="Path 434" transform="translate(-88.605 -94.239)"/>
        <path id="Path_435" d="M486.6 296.785l46.14-26.231s-6.249-3.924-23.47-9.955z" class="cls-2" data-name="Path 435" transform="translate(-133.085 -71.247)"/>
        <path id="Path_436" d="M431.5 92.918l11.408-.218s.145 9.809-.727 10.173-10.681-9.955-10.681-9.955z" class="cls-2" data-name="Path 436" transform="translate(-118.021 -25.345)"/>
        <path id="Path_437" d="M517.278 202.383a32.035 32.035 0 0 1-4.432 3.342s-7.629 7.193-20.345 4c0 0-14.678-3.924-20.272-10.609a69.825 69.825 0 0 1-6.757-6.467 35.237 35.237 0 0 1-2.47-3.633s6.54-12.5 6.9-15.114c0 0 15.4 28.483 18.892 29.21 0 0 19.619 4 24.2.581z" class="cls-2" data-name="Path 437" transform="translate(-126.633 -47.544)"/>
        <path id="Path_438" d="M424.41 38c2.979-2.616 8.065-7.993 10.027-15.332a1.474 1.474 0 0 1 1.889-1.017c6.467 1.962 31.753 8.937 37.566 2.688 0 0 7.193-.872-10.463-12.425a1.523 1.523 0 0 1 .291-2.688l.436-.218a1.476 1.476 0 0 0 .727-1.453c-.218-1.381-1.817-4.142-11.045-6.9 0 0-12.062-3.851-25.867 7.048a1.561 1.561 0 0 1-1.671.145c-2.761-1.526-11.626-5.232-17.947 4.432-.073.145-.145.218-.145.363-.8 2.252-9.3 23.978 5.377 31.462 0 0 4.8 2.761.509-1.6-.145-.145-1.235-2.761-1.381-2.979-.8-.945-.654-5.159 1.6-7.121a3.168 3.168 0 0 1 3.851 0 9.711 9.711 0 0 1 4.142 6.249c.288 1.235 1.232.072 2.104-.654z" class="cls-5" data-name="Path 438" transform="translate(-110.786)"/>
        <path id="Path_439" d="M439.847 79.309c.436-.727 2.979-4.214 3.633-3.633 2.18 1.962 2.834 4.432 6.54 5.086 0 0 5.086.727-2.906 2.906-.001 0-10.683.945-7.267-4.359z" class="cls-6" data-name="Path 439" transform="translate(-120.119 -20.673)"/>
        <path id="Path_440" d="M468.433 400.065a126.5 126.5 0 0 1-11.48 12.57 12.63 12.63 0 0 1-1.09.945 19.736 19.736 0 0 1-3.488 2.47s-2.253-.073-5.45-.291c-2.253-.145-5.014-.436-7.775-.727-6.975-.872-13.878-2.4-12.062-4.941 0 0 .436-.436 1.163-1.09l.218-.218c4.142-3.924 16.131-15.477 15.695-17.584a3.052 3.052 0 0 0 .363.145c2.107.654 12.425 3.924 18.747 6.394 2.907.946 4.941 1.891 5.159 2.327z" class="cls-6" data-name="Path 440" transform="translate(-116.735 -106.952)"/>
        <path id="Path_441" d="M250.065 499.4l23.106 14.9s-5.668 8.574-9.809 15.4-22.162-7.993-22.162-7.993 9.228-19.907 8.865-22.307z" class="cls-6" data-name="Path 441" transform="translate(-65.996 -136.532)"/>
        <path id="Path_442" d="M284.649 568.453s-.945 2.4-4.723 3.27c-2.18.509-5.3.436-9.664-.945 0 0-.218-.073-.581-.218-.073 0-.145 0-.145-.073-.945-.291-2.107-.727-3.488-1.235-3.851-1.381-9.882-3.706-16.276-6.757a4.288 4.288 0 0 1-.581-.291c-7.193-3.56-16.857-9.01-22.743-14.9a19.182 19.182 0 0 1-4.868-7.993 11.153 11.153 0 0 1 .218-3.56c.654-3.27 2.834-8.138 9.664-11.335 0 0 6.249-3.851 10.027-1.671 0 0 6.394 10.536 15.331 10.027 0 0 4.214-.363 6.1-1.671 0 0 1.6-1.017 2.035 2.253 0 0 2.543 13.37 5.159 17.657 0 0 2.761 4.36 11.48 11.48-.069.221 3.927 2.256 3.055 5.962z" class="cls-7" data-name="Path 442" transform="translate(-60.617 -142.733)"/>
        <path id="Path_443" d="M255.981 568.249c2.616-3.488.581-8.792-.727-11.335a6.122 6.122 0 0 0-1.962-2.325c-3.415-2.47-13.079-9.3-9.228-5.595 3.27 3.124 3.56 3.342 3.56 3.342 5.232 5.232 3.778 13.37 3.778 13.37z" class="cls-6" data-name="Path 443" transform="translate(-66.535 -149.796)"/>
        <path id="Path_444" d="M279.926 576.895c-.654.363-2.543.509-7.048 0 0 0-.945-.291-3.2-1.09-.073 0-.145 0-.145-.073-.945-.291-2.107-.727-3.488-1.235q-2.834-.981-7.193-2.616s-3.851-1.526-9.083-4.142a4.279 4.279 0 0 1-.581-.291c-7.193-3.56-16.857-9.01-22.743-14.9a19.183 19.183 0 0 1-4.868-7.993A11.153 11.153 0 0 1 221.8 541c2.616 2.834 18.238 19.328 28.483 24.632 0 0 25.068 10.681 28.992 9.809-.075.073 1.596.945.651 1.454z" class="cls-8" data-name="Path 444" transform="translate(-60.617 -147.905)"/>
        <path id="Path_445" d="M281.682 553.553c-2.616 1.889-8.719 2.47-8.719 2.47-.727-.581-.145-1.817-.145-1.817a11.665 11.665 0 0 0 8.5-2.107z" class="cls-6" data-name="Path 445" transform="translate(-74.579 -150.94)"/>
        <path id="Path_446" d="M283.927 560.008c-2.616 1.889-8.865 2.543-8.865 2.543-.727-.581-.145-1.817-.145-1.817a11.561 11.561 0 0 0 8.429-2.034z" class="cls-6" data-name="Path 446" transform="translate(-75.153 -152.744)"/>
        <path id="Path_447" d="M479.576 455.509a15.816 15.816 0 0 1-1.962 1.09c-.436.218-.945.436-1.453.654-.073 0-.073 0-.145.073h-.073a142.662 142.662 0 0 1-14.678-1.381c-3.27-.509-7.411-1.235-11.626-2.253l-3.488-.872a.267.267 0 0 1-.218-.073 44.251 44.251 0 0 1-8.429-3.27 60.962 60.962 0 0 1-14.75-6.612c-2.4-1.744-5.813-4.578-7.629-7.7a.071.071 0 0 0-.073-.073 10.412 10.412 0 0 1-1.163-4.142 12.035 12.035 0 0 1 1.6-6.685s7.121-8.574 9.3-8.865l.145.145a24.3 24.3 0 0 0 10.9 6.031 23.814 23.814 0 0 0 7.775.727 25.84 25.84 0 0 0 8.937-2.18 6.442 6.442 0 0 0 1.235-.581l.872-.436s13.515 27.321 23.542 27.539c-.145.145 7.92 4.504 1.381 8.864z" class="cls-7" data-name="Path 447" transform="translate(-113.2 -113.568)"/>
        <path id="Path_448" d="M286.845 564.617c-2.616 1.889-9.083 2.761-9.083 2.761-.727-.581-.145-1.817-.145-1.817 5.377.581 8.356-1.962 8.356-1.962z" class="cls-6" data-name="Path 448" transform="translate(-75.892 -154.084)"/>
        <path id="Path_449" d="M450.781 456.749c2.616-3.488.581-8.792-.727-11.335a6.122 6.122 0 0 0-1.962-2.325c-3.415-2.471-13.079-9.3-9.228-5.595 3.27 3.124 3.56 3.342 3.56 3.342 5.232 5.232 3.778 13.37 3.778 13.37z" class="cls-6" data-name="Path 449" transform="translate(-119.791 -119.313)"/>
        <path id="Path_450" d="M477.594 462.057a1.009 1.009 0 0 1-.727.509 2.71 2.71 0 0 1-.872.145h-.145a35.992 35.992 0 0 1-7.266-.363s-2.979-.291-7.411-1.017c-3.27-.509-7.411-1.235-11.626-2.253l-3.488-.872a.267.267 0 0 1-.218-.073c-8.211-2.18-16.421-5.159-20.491-8.138 0 0-1.09-.654-2.688-1.817-2.4-1.744-5.813-4.578-7.629-7.7a.071.071 0 0 0-.073-.073 7.493 7.493 0 0 1-1.163-4.142 6.36 6.36 0 0 1 .145-1.163 7.723 7.723 0 0 0 .581.509c3.488 3.052 21.072 17.8 31.608 19.837 0 0 17.293 6.9 31.244 5.958.073.145.291.363.219.653z" class="cls-8" data-name="Path 450" transform="translate(-113.18 -118.953)"/>
        <path id="Path_451" d="M477.373 435.2s-2.18 1.308-3.56 2.035c0 0-1.09 2.253 1.453 1.744 0 0 2.834-1.526 2.979-2.325z" class="cls-6" data-name="Path 451" transform="translate(-129.526 -118.981)"/>
        <path id="Path_452" d="M480.393 439.9s-2.906 2.543-4.069 2.543c0 0-1.017 1.889 1.526 1.817a13.023 13.023 0 0 0 3.924-2.834z" class="cls-6" data-name="Path 452" transform="translate(-130.221 -120.266)"/>
        <path id="Path_453" d="M484.012 445s-3.342 2.616-5.086 2.761c0 0-1.744 3.342 1.526 1.817 0 0 3.633-1.817 4.432-2.979z" class="cls-6" data-name="Path 453" transform="translate(-130.86 -121.66)"/>
        <path id="Path_455" d="M559.006 156.7s13.806 8.719 13.079 13.079c0 0-3.633 2.18-4.36 1.453 0 0-9.446-10.173-11.626-10.173.001.001 4.361-2.906 2.907-4.359z" class="cls-10" data-name="Path 455" transform="translate(-152.085 -42.842)"/>
        <path id="Path_456" d="M561.278 154.121l3.924 3.052a2.245 2.245 0 0 1-.291 3.778l-6.685 3.56a2.314 2.314 0 0 1-2.688-.363l-3.488-3.488a2.269 2.269 0 0 1 .581-3.633l6.249-3.124a2.2 2.2 0 0 1 2.398.218z" class="cls-10" data-name="Path 456" transform="translate(-150.797 -42.007)"/>
        <path id="Path_457" d="M561.384 155.972l2.616 2.034a1.5 1.5 0 0 1-.218 2.543l-4.505 2.4a1.558 1.558 0 0 1-1.817-.291l-2.325-2.325a1.591 1.591 0 0 1 .363-2.47l4.214-2.107a1.749 1.749 0 0 1 1.672.216z" class="cls-6" data-name="Path 457" transform="translate(-151.702 -42.55)"/>
        <path id="Path_458" d="M461.062 82.931c5.958-3.56 14.968-9.3 20.127-14.678a4.031 4.031 0 0 1 6.322.8c7.92 13.442 29.428 48.828 41.054 53.987a3.931 3.931 0 0 1 1.6 5.813c-1.235 1.744-3.342 3.27-7.048 3.342a3.754 3.754 0 0 1-2.325-.8c-6.467-4.723-43.379-31.68-59.728-41.708a3.89 3.89 0 0 1-.002-6.756z" class="cls-11" data-name="Path 458" transform="translate(-125.567 -18.337)"/>
        <path id="Path_459" d="M483.344 523.977c0 3.778-.073 7.266-10.9 7.266s-20.345.872-20.345-2.906 3.706-5.086 14.532-5.086 16.713-3.125 16.713.726z" class="cls-2" data-name="Path 459" transform="translate(-123.653 -142.725)"/>
        <path id="Path_460" d="M480.717 29.448s-24.7-13.806-36.331-10.9a8.628 8.628 0 0 0-7.993 3.633s-2.18 1.453-.727 2.906L429.2 44.271s14.387-9.371 12.207-17.221a1.592 1.592 0 0 1 1.308-.509s30.009 10.173 38 2.906" class="cls-12" data-name="Path 460" transform="translate(-117.393 -4.963)"/>
        <path id="Path_461" d="M440.829 144.662l-23.252 47.956c-12.5-3.415-28.7-4.868-39.237-5.958-.945-.073-1.889-.218-2.688-.291h-.145a56.541 56.541 0 0 1-7.266-1.017h-.073c-1.163-.436-2.616-3.778-4.142-8.792a1.05 1.05 0 0 1-.145-.509c-4.65-15.259-10.173-44.4-11.335-51.081a8.9 8.9 0 0 1-.145-1.381c10.027 1.889 14.9-2.107 17.293-6.322.145-.291.291-.509.436-.8s.218-.509.363-.8a17.5 17.5 0 0 0 1.453-5.958c3.633 0 3.778-36.912 3.778-36.912l9.083 2.543c5.668 2.035 10.318 27.757 10.318 27.757 10.173 7.266 31.971 6.54 31.971 6.54 2.906 0 1.09-14.678 1.09-14.678a40.891 40.891 0 0 1 4 3.052c3.556 3.054 8.643 46.651 8.643 46.651z" class="cls-13" data-name="Path 461" transform="translate(-96.396 -19.905)"/>
        <path id="Path_462" d="M350.425 194.682l-2.761-.363h-.145l-7.266-1.017h-.073a.254.254 0 0 0-.145-.073c-.436-.436-1.817-2.035-4-8.719a1.05 1.05 0 0 1-.145-.509c-2.906-9.591-6.176-24.632-8.5-36.185-1.381-6.83-2.4-12.425-2.906-14.9a8.9 8.9 0 0 1-.145-1.381c-.073-.727-.145-1.381-.218-2.035a12.972 12.972 0 0 1-.145-1.671 18.425 18.425 0 0 1 .073-5.45c0-.145.073-.218.073-.363-.509.363-8.647 5.813-17.148 5.3a20 20 0 0 1-9.01-3.488h-.073a.225.225 0 0 0-.145.073 109.473 109.473 0 0 0-17 8.719.071.071 0 0 0-.073.073 13.847 13.847 0 0 0-2.18 1.526c-3.706 2.761-6.612 5.813-7.121 8.865a20.543 20.543 0 0 0-.8 2.253c0 .073 0 .073-.073.145l-.436.872a5.007 5.007 0 0 0-.218.581c-2.47 5.377-7.484 15.985-9.446 19.328-.218.291-.145.218-.218.291a1.075 1.075 0 0 0-.291.945v.581c0 .436.073 1.017.145 1.671v.436c.073.872.218 1.889.363 3.052 0 .218.073.436.073.654.073.727.218 1.381.291 2.18 0 .145.073.291.073.436.145.727.291 1.526.436 2.325.073.218.073.436.145.727a44.932 44.932 0 0 0 1.09 4.214l.218.654c.145.363.218.727.363 1.09a4.644 4.644 0 0 1 .145.509 27.234 27.234 0 0 0 1.526 3.633c.073.145.145.218.145.363a11.568 11.568 0 0 0 .945 1.6c.073.145.218.291.291.436.073.073.145.145.145.218a2.209 2.209 0 0 1 .363.509c.145.218.363.363.509.581a1.265 1.265 0 0 1 .363 1.09v.073a.267.267 0 0 1-.073.218.071.071 0 0 1-.073.073l-.218.436-.073.073-.145.145c-.073.073-.073.073-.145.073-.073 0-.073.073-.145.073-.073.073-.145.073-.291.073h-.218a3.465 3.465 0 0 1-1.744-.581c-.073-.073-.145-.073-.218-.145s-.145-.073-.218-.145c-.218-.145-.509-.363-.727-.509-.073-.073-.218-.145-.291-.218a3.775 3.775 0 0 0-.218-.363 3.94 3.94 0 0 1-.436-.8c-.073-.073-.073-.145-.145-.218a1.52 1.52 0 0 0-.291-.436c-.073-.145-.145-.218-.218-.363a.551.551 0 0 1-.145-.291 1.521 1.521 0 0 0-.291-.436c-.509-.8-.945-1.744-1.453-2.543-.145-.218-.218-.436-.363-.654-.073-.073-.073-.145-.145-.291-.073-.073-.073-.218-.145-.291-.073-.218-.218-.363-.291-.581v-.073a6.084 6.084 0 0 1-.581-1.381 5.113 5.113 0 0 0-1.308 1.163l-.073.073c0 .073-.073.073-.073.145-.073.073-.145.218-.218.291-.073.145-.145.218-.218.363l-.218.436c-.073.145-.145.218-.218.363-.073.073-.073.218-.145.291s-.073.218-.145.291a4.165 4.165 0 0 0-.291 1.017c0 .073-.073.145-.073.218v.145a8.29 8.29 0 0 0 0 2.325v.727l.581 8.356v.291a1.185 1.185 0 0 1-2.035-.363 112.939 112.939 0 0 1-3.342-12.062 6.308 6.308 0 0 1-.073-2.325l2.47-16.349a.267.267 0 0 1 .073-.218l14.46-38.656c2.979-10.173 13.588-13.66 16.131-14.387a1 1 0 0 1 .8.073c1.817.8 10.609-.436 11.916-.654.145 0 .218-.073.291-.073 2.906-1.381 8.065-2.107 9.591-2.325a1.08 1.08 0 0 1 .654.145c2.906 1.163 23.76-9.519 30.3-12.934a1.207 1.207 0 0 1 1.744 1.09 14.511 14.511 0 0 0 .654 4.8c0 .073.073.145.073.218 1.526 2.543 2.616 13.878 2.834 16.058v.363a1.926 1.926 0 0 0-.363.436 7.919 7.919 0 0 0-.436.8c-4.214 10.173 8.138 66.558 8.792 69.391.072-.29.072-.217.072-.217z" class="cls-2" data-name="Path 462" transform="translate(-68.481 -27.781)"/>
        <circle id="Ellipse_287" cx="1.817" cy="1.817" r="1.817" class="cls-12" data-name="Ellipse 287" transform="translate(339.346 46.283)"/>
        <path id="Path_463" d="M459.109 55.181s3.415-3.124 7.484-1.017c0 0 2.325 1.453 1.235-.872 0 0-7.048-1.889-8.865.073.074 0-.944 2.035.146 1.816z" class="cls-12" data-name="Path 463" transform="translate(-125.431 -14.348)"/>
        <g id="Group_152" data-name="Group 152" transform="translate(-.2 149.287)">
            <path id="Path_464" d="M333.23 206.851c-.282 1.569-4.645 9.283-8.206 12.334a55.858 55.858 0 0 1-8.815 5.8s-5.332 2.865-7.73 3.737-4.346 1.813-10.98 2.327-10.687-.126-15.556-.272c-4.8-.145-9.519-.581-14.024-1.017s-9.01-.8-13.515-1.09l-27.03-1.6-13.588-.727c-4.578-.218-9.083-.436-13.37-.291a34.921 34.921 0 0 0-12.352 2.4 29.835 29.835 0 0 0-5.522 3.124 77.11 77.11 0 0 0-2.543 1.962c-.8.727-1.6 1.453-2.4 2.253a61.814 61.814 0 0 0-8.065 10.609 93.716 93.716 0 0 0-3.342 5.886c-1.09 1.962-2.107 4.069-3.2 6.1-4.214 8.138-8.065 16.494-11.989 24.85l-5.813 12.57-2.906 6.249c-1.017 2.107-2.107 4.287-3.27 6.394a65.584 65.584 0 0 1-4 6.322 40.4 40.4 0 0 1-5.232 6.031 34.286 34.286 0 0 1-6.757 5.086 30.132 30.132 0 0 1-8.138 3.2 34.732 34.732 0 0 1-8.574.872 47.154 47.154 0 0 1-8.065-.945 92.849 92.849 0 0 1-14.161-4.215c-4.36-1.526-8.5-3.124-12.425-4.214l-.727-.218-.8-.218-1.6-.436c-1.017-.291-2.107-.509-3.124-.727-2.107-.509-4.214-.872-6.322-1.235a123.909 123.909 0 0 0-12.716-1.526c-1.09-.073-2.107-.145-3.2-.145-1.017 0-2.035-.073-3.052 0a81.336 81.336 0 0 0-6.031.436 40.659 40.659 0 0 0-11.335 2.979 21.32 21.32 0 0 0-8.211 6.539 28.651 28.651 0 0 0-4.941 10.391 32.06 32.06 0 0 0-.945 5.886 36.208 36.208 0 0 0 .218 6.249 48.949 48.949 0 0 0 3.2 12.57 85.683 85.683 0 0 0 6.031 12.134.735.735 0 0 1-.291 1.017.762.762 0 0 1-.872-.073 59.7 59.7 0 0 1-9.155-10.827 49.168 49.168 0 0 1-6.249-13.224 41.911 41.911 0 0 1-1.526-7.411 34.77 34.77 0 0 1 0-7.775 38.088 38.088 0 0 1 4.868-15.114A32.681 32.681 0 0 1 16.8 308.014a51.831 51.831 0 0 1 14.823-5.3 68.863 68.863 0 0 1 7.629-1.09c1.308-.073 2.616-.145 3.851-.218 1.235 0 2.47-.073 3.706-.073a99.116 99.116 0 0 1 14.678 1.163c2.4.363 4.868.8 7.193 1.308 1.163.291 2.4.509 3.56.8l1.744.436.872.218.945.291c4.941 1.453 9.3 3.27 13.515 4.941a99.48 99.48 0 0 0 11.989 4.214 24.5 24.5 0 0 0 10.609.8 18.88 18.88 0 0 0 9.155-4.432 43.545 43.545 0 0 0 4.144-4.072c1.308-1.526 2.616-3.2 3.851-4.941s2.47-3.56 3.706-5.45l3.706-5.74 7.557-11.553c5.014-7.7 9.955-15.477 14.678-23.4 4.723-7.847 9.155-16.131 15.477-23.4a42.729 42.729 0 0 1 11.19-9.446 48.187 48.187 0 0 1 6.83-3.124 64.941 64.941 0 0 1 7.121-1.962c2.4-.509 4.8-.872 7.121-1.163l6.975-.872q6.975-.763 13.951-1.09a189.173 189.173 0 0 1 27.975.872c4.65.436 9.3 1.017 13.878 1.744l6.757 1.09c2.253.363 4.432.654 6.612.945a75.565 75.565 0 0 0 12.716.581 45.022 45.022 0 0 0 12.207-2.47c8.138-2.761 15.985-7.629 24.124-12.062.363-.218 1.245-.894 1.463-.531.362.148.404.254.122 1.823z" class="cls-1" data-name="Path 464" transform="translate(.2 -205.459)"/>
        </g>
        <g id="Group_153" class="cls-14" data-name="Group 153" transform="translate(157.693 21.839)">
            <path id="Path_465" d="M217.1 30.815c4-.291 7.993-.436 11.916-.509 4-.073 7.993-.145 11.916-.073 4 .073 7.993.291 11.916.363 4 .073 7.993 0 11.916-.145 4-.145 7.993-.218 11.916-.291 4-.073 7.993-.145 11.916-.073 7.993.073 15.913.218 23.906.727v.145c-7.993.436-15.913.654-23.906.727-4 0-7.993-.073-11.916-.073-4-.073-7.993-.145-11.916-.291-4-.145-7.993-.218-11.916-.145-4 .073-7.993.291-11.916.363-4 .073-7.993.073-11.916-.073-4-.073-7.993-.218-11.916-.509z" class="cls-15" data-name="Path 465" transform="translate(-217.1 -30.059)"/>
        </g>
        <g id="Group_154" class="cls-14" data-name="Group 154" transform="translate(119.909 31.72)">
            <path id="Path_466" d="M165.1 44.343c9.446-.509 18.892-.654 28.338-.509 4.723.073 9.446.291 14.169.363s9.446-.073 14.169-.145c4.723-.145 9.446-.218 14.169-.291s9.446-.145 14.169-.073c9.446.073 18.892.218 28.338.727v.145c-9.446.436-18.892.654-28.338.727-4.723 0-9.446-.073-14.169-.073-4.723-.073-9.446-.145-14.169-.291s-9.446-.218-14.169-.145-9.446.291-14.169.363c-9.446.145-18.892-.073-28.338-.509z" class="cls-15" data-name="Path 466" transform="translate(-165.1 -43.659)"/>
        </g>
        <g id="Group_155" class="cls-14" data-name="Group 155" transform="translate(180.944 36.008)">
            <path id="Path_467" d="M249.1 50.315c3.052-.291 6.1-.436 9.155-.509s6.1-.145 9.155-.073 6.1.291 9.155.363 6.1 0 9.155-.145 6.1-.218 9.155-.291 6.1-.145 9.155-.073c6.1.073 12.207.218 18.311.727v.145c-6.1.436-12.207.654-18.311.727-3.052 0-6.1-.073-9.155-.073-3.052-.073-6.1-.145-9.155-.291s-6.1-.218-9.155-.145-6.1.291-9.155.363-6.1.073-9.155-.073c-3.052-.073-6.1-.218-9.155-.509z" class="cls-15" data-name="Path 467" transform="translate(-249.1 -49.559)"/>
        </g>
        <g id="Group_156" class="cls-14" data-name="Group 156" transform="translate(61.053 159.168)">
            <path id="Path_468" d="M84.1 219.815c4-.291 7.993-.436 11.916-.509 4-.073 7.993-.145 11.916-.073 4 .073 7.993.291 11.916.363 4 .073 7.993 0 11.916-.145 4-.145 7.993-.218 11.916-.291 4-.073 7.993-.145 11.916-.073 7.993.073 15.913.218 23.906.727v.145c-7.993.436-15.913.654-23.906.727-4 0-7.993-.073-11.916-.073-4-.073-7.993-.145-11.916-.291-4-.145-7.993-.218-11.916-.145-4 .073-7.993.291-11.916.363-4 .073-7.993.073-11.916-.073-4-.073-7.993-.218-11.916-.509v-.145z" class="cls-15" data-name="Path 468" transform="translate(-84.1 -219.059)"/>
        </g>
        <g id="Group_157" class="cls-14" data-name="Group 157" transform="translate(23.27 169.05)">
            <path id="Path_469" d="M32.1 233.343c9.446-.509 18.892-.654 28.338-.509 4.723.073 9.446.291 14.169.363s9.446-.073 14.169-.145c4.723-.145 9.446-.218 14.169-.291s9.446-.145 14.169-.073c9.446.073 18.892.218 28.338.727v.145c-9.446.436-18.892.654-28.338.727-4.723 0-9.446-.073-14.169-.073-4.723-.073-9.446-.145-14.169-.291s-9.446-.218-14.169-.145-9.446.291-14.169.363c-9.446.145-18.892-.073-28.338-.509v-.291z" class="cls-15" data-name="Path 469" transform="translate(-32.1 -232.659)"/>
        </g>
        <g id="Group_158" class="cls-14" data-name="Group 158" transform="translate(84.305 173.337)">
            <path id="Path_470" d="M116.1 239.315c3.052-.291 6.1-.436 9.155-.509s6.1-.145 9.155-.073 6.1.291 9.155.363 6.1 0 9.155-.145 6.1-.218 9.155-.291 6.1-.145 9.155-.073c6.1.073 12.207.218 18.311.727v.145c-6.1.436-12.207.654-18.311.727-3.052 0-6.1-.073-9.155-.073-3.052-.073-6.1-.145-9.155-.291s-6.1-.218-9.155-.145-6.1.291-9.155.363-6.1.073-9.155-.073c-3.052-.073-6.1-.218-9.155-.509z" class="cls-15" data-name="Path 470" transform="translate(-116.1 -238.559)"/>
        </g>
        <g id="Group_159" class="cls-14" data-name="Group 159" transform="translate(138.365 321.93)">
            <path id="Path_471" d="M190.5 443.815a44.845 44.845 0 0 1 5.377-.509c1.817-.073 3.56-.145 5.377-.073s3.56.291 5.377.363a44.293 44.293 0 0 0 5.377-.145c1.817-.145 3.56-.218 5.377-.291s3.56-.145 5.377-.073a87.922 87.922 0 0 1 10.681.727v.145a105.47 105.47 0 0 1-10.681.727c-1.817 0-3.56-.073-5.377-.073s-3.56-.145-5.377-.291a44.3 44.3 0 0 0-5.377-.145c-1.817.073-3.56.291-5.377.363a44.262 44.262 0 0 1-5.377-.073 44.845 44.845 0 0 1-5.377-.509z" class="cls-15" data-name="Path 471" transform="translate(-190.5 -443.059)"/>
        </g>
        <g id="Group_160" class="cls-14" data-name="Group 160" transform="translate(121.362 331.739)">
            <path id="Path_472" d="M167.1 457.315a61.742 61.742 0 0 1 6.322-.509c2.107-.073 4.214-.145 6.322-.073s4.214.291 6.322.363a61.188 61.188 0 0 0 6.322-.145c2.107-.145 4.214-.218 6.322-.291s4.214-.145 6.322-.073a124.31 124.31 0 0 1 12.716.727v.145c-4.214.436-8.5.654-12.716.727-2.107 0-4.214-.073-6.322-.073s-4.214-.145-6.322-.291a61.205 61.205 0 0 0-6.322-.145c-2.107.073-4.214.291-6.322.363a61.16 61.16 0 0 1-6.322-.073 61.742 61.742 0 0 1-6.322-.509z" class="cls-15" data-name="Path 472" transform="translate(-167.1 -456.559)"/>
        </g>
        <g id="Group_161" class="cls-14" data-name="Group 161" transform="translate(148.756 336.098)">
            <path id="Path_473" d="M204.8 463.315a26.866 26.866 0 0 1 4.142-.509 39.383 39.383 0 0 1 4.142-.073c1.381.073 2.761.291 4.142.363a26.316 26.316 0 0 0 4.142-.145c1.381-.145 2.761-.218 4.142-.291a39.391 39.391 0 0 1 4.142-.073 51.475 51.475 0 0 1 8.211.727v.145a63.77 63.77 0 0 1-8.211.727c-1.381 0-2.761-.073-4.142-.073a39.664 39.664 0 0 1-4.142-.291 26.32 26.32 0 0 0-4.142-.145c-1.381.073-2.761.291-4.142.363a26.283 26.283 0 0 1-4.142-.073 26.866 26.866 0 0 1-4.142-.509z" class="cls-15" data-name="Path 473" transform="translate(-204.8 -462.559)"/>
        </g>
        <g id="Group_162" class="cls-14" data-name="Group 162" transform="translate(68.102 182.057)">
            <path id="Path_474" d="M93.8 251.315a26.868 26.868 0 0 1 4.142-.509 39.391 39.391 0 0 1 4.142-.073c1.381.073 2.761.291 4.142.363a26.32 26.32 0 0 0 4.142-.145c1.381-.145 2.761-.218 4.142-.291a39.4 39.4 0 0 1 4.142-.073 51.477 51.477 0 0 1 8.211.727v.145a63.77 63.77 0 0 1-8.211.727c-1.381 0-2.761-.073-4.142-.073a39.663 39.663 0 0 1-4.142-.291 26.32 26.32 0 0 0-4.142-.145c-1.381.073-2.761.291-4.142.363a26.283 26.283 0 0 1-4.142-.073 26.868 26.868 0 0 1-4.142-.509z" class="cls-15" data-name="Path 474" transform="translate(-93.8 -250.559)"/>
        </g>
    </g>
</svg>
