<svg xmlns="http://www.w3.org/2000/svg" id="skills" viewBox="0 0 485.5 307.395">
    <defs>
        <style>
            .cls-1{fill:#d2f9e9;opacity:.5}.cls-2{fill:#3a3a3a}.cls-3{fill:#ffe1c5}.cls-4{fill:#d1d6e0}.cls-12,.cls-5{fill:none;stroke-miterlimit:10;stroke-width:3px}.cls-5{stroke:#8c8c8c}.cls-6{fill:#21cf93}.cls-7{fill:#fdb636}.cls-8{fill:#fb7247}.cls-9{fill:#8c8c8c}.cls-10{fill:#707070}.cls-11{opacity:.2}.cls-12{stroke:#3a3a3a}.cls-13{fill:#686766}.cls-14{fill:#3d3d3d}.cls-15{fill:#9b9b9b}.cls-16{fill:#ffb98a}
        </style>
    </defs>
    <path id="Path_337" d="M89.66 201.91c-3.244 17.6 3.766 38.476-7.978 51.972-7.2 8.239-19.163 10.514-27.4 17.709-8.724 7.643-12.08 19.722-13.273 31.243-1.379 13.012-.373 26.881 6.636 37.879s21.363 18.119 33.629 13.571c8.873-3.281 14.8-11.558 22.817-16.591 15.733-9.88 36.761-5.481 52.829 3.84 16.032 9.358 29.155 23.041 44.776 33.07 29.08 18.641 65.058 23.339 99.582 22.593 11.595-.261 23.339-1.081 34.263-4.959 17.336-6.152 31.355-19.722 40.824-35.456 9.507-15.733 14.838-33.666 18.716-51.636 1.3-6.04 2.647-12.452 6.935-16.852 2.722-2.8 6.338-4.474 9.917-5.965 15.025-6.263 32.51-11.669 39.93-26.172 3.915-7.643 4.213-16.553 4.437-25.128.3-11.52-.037-24.607-8.65-32.287-3.877-3.43-8.911-5.22-13.906-6.674a150.386 150.386 0 0 0-95.071 4.064c-3.654 1.417-7.27 2.945-11.148 3.355-13.645 1.342-23.824-11.408-34.039-20.58-18.753-16.777-44.292-23.6-69.047-28.148-15.51-2.833-31.355-5.033-46.976-3.094a72.519 72.519 0 0 0-28.186 9.283c-3.952 2.349-7.717 7.382-11.781 9.1-3.206 1.342-7.568.41-11.036.932-17.711 2.831-33.519 17.185-36.8 34.931z" class="cls-1" data-name="Path 337" transform="translate(-25.385 -92.15)"/>
    <g id="Group_144" data-name="Group 144" transform="translate(0 306.276)">
        <path id="Path_338" d="M0 822.059l50.853-.261 50.853-.149 101.67-.149 101.67.112 50.853.186 50.853.261-50.853.261-50.853.186-101.67.112-101.67-.149-50.853-.149z" class="cls-2" data-name="Path 338" transform="translate(0 -821.5)"/>
    </g>
    <path id="Path_339" d="M357.091 113.1c-1.268-1.6-11.446 3.654-11.446 3.654-.186-5.7-5.145-17.113-5.145-17.113 13.161-4.959 14.727 4.288 14.727 4.288.037.6.075 1.156.112 1.715a30.213 30.213 0 0 0 .671 4.362 11.4 11.4 0 0 0 1.081 3.094z" class="cls-3" data-name="Path 339" transform="translate(-213.553 -61.575)"/>
    <path id="Rectangle_368" d="M0 0h33.07v61.404H0z" class="cls-2" data-name="Rectangle 368" transform="translate(189.88 174.482)"/>
    <path id="Rectangle_369" d="M0 0h58.049v28.969H0z" class="cls-4" data-name="Rectangle 369" transform="translate(140.667 208.41)"/>
    <path id="Line_29" d="M11.185 17.896L0 0" class="cls-5" data-name="Line 29" transform="translate(107.56 38.215)"/>
    <path id="Line_30" d="M13.049 16.032L0 0" class="cls-5" data-name="Line 30" transform="translate(103.198 39.445)"/>
    <path id="Line_31" d="M18.716 17.523L0 0" class="cls-5" data-name="Line 31" transform="translate(100.477 44.441)"/>
    <path id="Path_340" d="M282.7 131.648l15.659-8.948s34.785 50.443 42.987 59.167c0 0-6.45 6.711-16.4.261-.005-.037-41.761-38.065-42.246-50.48z" class="cls-6" data-name="Path 340" transform="translate(-177.302 -76.954)"/>
    <path id="Path_341" d="M360.214 283.338s-2.5 37.022 7.2 62.9l9.134-1.566s.186-36.91 3.542-39.892c0 0 28.708 5.033 40.079 1.118a36.408 36.408 0 0 0-1.119 8.948s9.768.261 8.948-.932c-.373-.559 2.61-13.608 1.3-16.591 0 0-4.847-8.2-41.384-9.321 0 0-3.169-2.237-3.728-11 .001-.002-18.902.557-23.972 6.336z" class="cls-2" data-name="Path 341" transform="translate(-225.736 -173.727)"/>
    <path id="Path_342" d="M563.607 2s-10.924 8.761-1.007 19.387c0 0 8.687 1.752 11.073-8.575 0 0 1.864-9.433-10.066-10.812z" class="cls-7" data-name="Path 342" transform="translate(-350.239 -1.254)"/>
    <path id="Path_343" d="M389.23 91.273s34.67-12.452 37.618-34.412c0 0 4.66-6.338 6.152 0s-14.018 37.581-45 43.173" class="cls-2" data-name="Path 343" transform="translate(-243.344 -33.895)"/>
    <path id="Path_344" d="M350.105 48.651s5.22 17.523-6.338 24.979a6.877 6.877 0 0 1-5.331 1.118s-10.514-3.84-11.185-11.185c0 0 .112-.186-1.23-1.417-.41-.373-.373-.969-.746-1.379-1.678-2.013-5.406-7.27 1.9-6 .002-.039 9.136-12.939 22.93-6.116z" class="cls-3" data-name="Path 344" transform="translate(-202.466 -29.264)"/>
    <path id="Path_345" d="M386.913 27.03S450.591 1.491 457.563 0c0 0-12.676 9.432-1.007 20.394 0 0-54.172 7.717-67.593 10.178 0 0-4.287.186-2.05-3.542z" class="cls-8" data-name="Path 345" transform="translate(-242.256)"/>
    <path id="Path_346" d="M334.5 128.912l30.572-2.312a8.974 8.974 0 0 0-3.169 8.426s2.908 29.006 2.722 36.611c0 0-2.535 2.237 11.446 19.462 0 0-27.589-3.616-40.265 13.944 0 0 4.1-15.286 5.033-23.525-.001-.001-4.475-50.668-6.339-52.606z" class="cls-9" data-name="Path 346" transform="translate(-209.79 -79.4)"/>
    <path id="Path_347" d="M379.218 439s-11.744 2.423-16.218 1.3c0 0 6.9 23.488 11.744 30.758 0 0 .186 6.226-.3 11.93 0 0 3.84-1.23 4.959-4.735 0 0 24.681 10.626 16.032 1.976-.373-.373-13.049-4.362-14.056-9.693.001.042-1.49-25.836-2.161-31.536z" class="cls-9" data-name="Path 347" transform="translate(-227.664 -275.329)"/>
    <path id="Path_348" d="M523.54 363.371s-10.7.82-14.54-.671c0 0 3.467 21.624 6.972 28.633a98.142 98.142 0 0 1-1.64 10.551s3.579-.671 4.959-3.616c0 0 26.061 4.623 15.211-1.156-.932-.485-12.3-.6-12.564-5.443-.038 0 1.562-23.116 1.602-28.298z" class="cls-9" data-name="Path 348" transform="translate(-319.232 -227.476)"/>
    <path id="Path_349" d="M322.154 38.346c.037 0 10.066-6.6 15.286-4.362 0 0 9.246 2.8 6.263-4.921 0 0-4.847-13.72-20.431-11.856 0 0-16.852 1.864-15.845 18.94 0 0 .559 10.215 12.527 17.56a.515.515 0 0 0 .149.112l2.833 2.274c.112-1.715 0-4.437-1.6-6.338 0 0-15.1-20.692.82-11.408z" class="cls-9" data-name="Path 349" transform="translate(-192.783 -10.683)"/>
    <path id="Path_350" d="M275.009 85.944l-.336-11.744-2.8 5.145-6.077-.037z" class="cls-7" data-name="Path 350" transform="translate(-166.703 -46.536)"/>
    <path id="Path_351" d="M263.2 89.758L261.078 78.2l-1.978 5.518-6 .895z" class="cls-7" data-name="Path 351" transform="translate(-158.738 -49.045)"/>
    <path id="Path_352" d="M254.651 102.9l-3.244-11.3-1.454 5.7-5.853 1.458z" class="cls-7" data-name="Path 352" transform="translate(-153.093 -57.449)"/>
    <g id="Group_145" data-name="Group 145" transform="translate(120.796 47.83)">
        <path id="Path_353" d="M324 129.45a6.446 6.446 0 0 1 3.654-1.156 9.252 9.252 0 0 1 3.877.783 11.581 11.581 0 0 1 3.318 2.162 17.1 17.1 0 0 1 1.379 1.454 11.316 11.316 0 0 1 1.081 1.64 14.12 14.12 0 0 1 1.342 3.542c.3 1.193.485 2.423.708 3.579a29.266 29.266 0 0 0 1.941 6.746 32.07 32.07 0 0 0 3.542 5.891 28.191 28.191 0 0 0 2.051 2.572 26.051 26.051 0 0 0 2.349 2.2 20.289 20.289 0 0 0 5.406 3.02 13.013 13.013 0 0 0 6.114.708l.559-.075.186.112a1.634 1.634 0 0 1 .336.186 1.551 1.551 0 0 1 .522.485 1.49 1.49 0 0 1 .224.6 1.032 1.032 0 0 1 .037.336 2.957 2.957 0 0 1-.261 1.193 3.746 3.746 0 0 1-.6.895 3.545 3.545 0 0 1-.746.559 7.784 7.784 0 0 1-1.491.708 17.58 17.58 0 0 1-1.491.485l-.186-.336c.41-.336.783-.671 1.156-.969a12.817 12.817 0 0 0 1.007-1.007 1.78 1.78 0 0 0 .41-.932.482.482 0 0 0-.075-.3l-.037-.037c-.037-.075 0 .112.075.224a.845.845 0 0 0 .224.261c.037.037.037.037 0 .037l.746.037a12.5 12.5 0 0 1-7.829.522 15.421 15.421 0 0 1-6.9-3.728 21.446 21.446 0 0 1-4.474-6.152 37.875 37.875 0 0 1-2.237-6.972 44.437 44.437 0 0 0-2.125-6.748 40.478 40.478 0 0 0-3.355-5.891 17.757 17.757 0 0 0-1.864-2.461 13.417 13.417 0 0 0-2.349-2.013 9.389 9.389 0 0 0-6.114-1.715z" class="cls-7" data-name="Path 353" transform="translate(-324 -128.292)"/>
    </g>
    <path id="Path_354" d="M324.7 80.41s42.95 8.687 54.172-26.023c0 0-7.941-.634-1.3-8.687 0 0 11.893 1.864 7.941 10.551 0 0-3.952 35.94-51.525 39.669" class="cls-10" data-name="Path 354" transform="translate(-203.643 -28.662)"/>
    <path id="Path_355" d="M293 147s1.864 11.558 16.777 23.861c0 0-16.404-22.37-16.777-23.861z" class="cls-11" data-name="Path 355" transform="translate(-183.762 -92.195)"/>
    <path id="Path_356" d="M569.5 8s-6.711 8.575 1.119 15.286c-.004 0-2.986-11.186-1.119-15.286z" class="cls-11" data-name="Path 356" transform="translate(-355.495 -5.017)"/>
    <path id="Path_357" d="M375.389 122.6a39.014 39.014 0 0 0-3.989-2.908 7.888 7.888 0 0 0 3.318-1.491 31.725 31.725 0 0 0 .671 4.399z" class="cls-11" data-name="Path 357" transform="translate(-232.932 -74.132)"/>
    <path id="Path_358" d="M359 20s18.641 3.728 15.286 15.659c0 0 2.237-6.338-15.286-15.659z" class="cls-11" data-name="Path 358" transform="translate(-225.156 -12.543)"/>
    <path id="Path_359" d="M149.9 334.8s57.341-16.7 66.96-27.813c0 0 .634-3.654-.224 2.125 0 0 3.654 2.572 1.939 2.125 0 0-50.481 38.289-65.245 33.182" class="cls-2" data-name="Path 359" transform="translate(-94.013 -191.818)"/>
    <path id="Path_360" d="M185.4 290.256s4.064-62.9 8.128-69.756" class="cls-12" data-name="Path 360" transform="translate(-116.278 -138.292)"/>
    <path id="Path_361" d="M187.7 397.8s48.989 35.307 65.692 23.115" class="cls-12" data-name="Path 361" transform="translate(-117.721 -249.49)"/>
    <g id="Group_146" data-name="Group 146" transform="translate(63.567 77.921)">
        <path id="Path_362" d="M170.5 209a77.561 77.561 0 0 1 9.246 2.2c1.529.447 3.02.932 4.548 1.454 1.491.522 2.983 1.081 4.474 1.64 2.945 1.193 5.891 2.461 8.724 3.877 2.871 1.417 5.63 2.983 8.389 4.7a87.839 87.839 0 0 1 7.9 5.481 83.5 83.5 0 0 1 7.307 6.3 84.813 84.813 0 0 1 6.562 7.121 73.984 73.984 0 0 1 5.63 7.9 73.125 73.125 0 0 1 7.941 17.672 75.045 75.045 0 0 1 2.162 9.432c.075.41.149.783.186 1.193l.149 1.193c.112.783.224 1.6.3 2.386.112 1.6.3 3.206.336 4.809a82.814 82.814 0 0 1-.112 9.619c-.149 1.6-.224 3.206-.447 4.772l-.3 2.386-.373 2.349a115.317 115.317 0 0 1-4.66 18.455 159.219 159.219 0 0 0 2.871-18.679 104.627 104.627 0 0 0 .112-18.716 85.509 85.509 0 0 0-1.3-9.209 73.846 73.846 0 0 0-2.312-8.985c-.261-.746-.485-1.454-.746-2.2l-.783-2.162c-.6-1.417-1.156-2.871-1.827-4.25a73.962 73.962 0 0 0-4.362-8.128 82.276 82.276 0 0 0-11.483-14.428 99.837 99.837 0 0 0-14.354-11.856 120.687 120.687 0 0 0-16.255-9.321c-2.833-1.379-5.7-2.61-8.612-3.8a86.833 86.833 0 0 0-4.437-1.678A45.13 45.13 0 0 0 170.5 209z" class="cls-8" data-name="Path 362" transform="translate(-170.5 -209)"/>
    </g>
    <path id="Line_32" d="M53.724 0L0 35.978" class="cls-5" data-name="Line 32" transform="translate(74.901 110.095)"/>
    <path id="Path_363" d="M192.222 383l-13.422 1.379 6.152 2.8.485 6.9z" class="cls-7" data-name="Path 363" transform="translate(-112.139 -240.208)"/>
    <path id="Path_364" d="M330 284.115l6.6 9.731 6.04-11.446z" class="cls-7" data-name="Path 364" transform="translate(-206.967 -177.114)"/>
    <path id="Path_365" d="M145.194 541.036c-.671 1.342 4.064 35.083 11.11 48.8a135.863 135.863 0 0 0-2.125 16.255s8.351 4.921 10.476-1.939c0 0 2.8-10.924 3.206-17.746 0 0-1.491-41.085-5.555-50.928 0 .003-8.351-11.555-17.112 5.558z" class="cls-2" data-name="Path 365" transform="translate(-91.022 -333.446)"/>
    <path id="Path_366" d="M110.627 494.428s-2.013 58.161.3 65.841c0 0-2.013 7.345-2.125 11.185 0 0 4.288 5.667 9.992 1.976 0 0 4.847-59.242 18.119-63.828-.039-.002-5.333-27.217-26.286-15.174z" class="cls-13" data-name="Path 366" transform="translate(-68.237 -308.164)"/>
    <path id="Path_367" d="M113.836 352.765a24.193 24.193 0 0 0 .41 4.623l-7.643.336c1.007-2.61-3.8-12.751-3.8-12.751 8.575-4.25 11.52 3.094 11.52 3.094a24.358 24.358 0 0 0-.373 2.684v.112a3.205 3.205 0 0 0-.075.895v.037a9.1 9.1 0 0 0-.039.97z" class="cls-3" data-name="Path 367" transform="translate(-64.474 -215.528)"/>
    <path id="Path_368" d="M110.044 281.186s5.518 19.387-6.711 27.664a7.116 7.116 0 0 1-5.667 1.23s-11.11-4.25-11.819-12.378c0 0 .149-.186-1.3-1.566-.41-.41-.41-1.081-.783-1.529-1.752-2.237-5.7-8.053 2.013-6.636-.004-.037 9.652-14.353 24.267-6.785z" class="cls-3" data-name="Path 368" transform="translate(-50.914 -174.968)"/>
    <path id="Path_369" d="M84.6 259.734s2.013 5.406 6.562 7.419c0 0 5.145-14.838-12.266-19.685 0 0-6.263-1.417-10.551 1.715 0 0 .336-13.422-17.9-5.443 0 0-13.049 7.457 5.07 33.964 0 0 4.548 14.838-.3 17.411 0 0 11.968-6.86 12.266-16.814 0 0-3.84-4.66-4.623-7.307-.895-2.871-.857-6.748.336-6.114-.028-.001 16.563 13.12 21.406-5.146z" class="cls-14" data-name="Path 369" transform="translate(-28.792 -151.279)"/>
    <path id="Path_370" d="M88.25 368.683s19.909-2.572 24.83-2.983c0 0 1.529 8.911 5.481 15.472.41.708 4.25 7.27 5.816 10.551 0 0 .6.41-2.833 4.548 0 0-9.544 15.137 9.022 34.822a40.826 40.826 0 0 1-36.388-7.867s5-7.717 0-15.547c-1.006-1.565-10.29-25.798-5.928-38.996z" class="cls-15" data-name="Path 370" transform="translate(-54.621 -229.358)"/>
    <path id="Path_371" d="M108.028 697.1s-6.562 30.236-5.7 34.524c0 0 2.2 2.945 8.538 6.375 0 0 12.415 6.189-1.939 5.779 0 0-5.555 1.081-9.843-5.145 0 0 1.715 5.145-3.206 4.7 0 0-3.318 1.081-1.827-11.558 0 0-.41-21.288-4.847-34.412 0 .037 13.683 2.908 18.828-.261" class="cls-9" data-name="Path 371" transform="translate(-55.944 -437.203)"/>
    <path id="Path_372" d="M176.928 697s-6.562 30.236-5.7 34.524c0 0 2.2 2.945 8.538 6.375 0 0 12.415 6.189-1.939 5.779 0 0-5.555 1.081-9.843-5.145 0 0 1.715 5.145-3.206 4.7 0 0-3.318 1.081-1.827-11.558 0 0-.41-21.288-4.847-34.412 0 .037 13.683 2.871 18.828-.261" class="cls-9" data-name="Path 372" transform="translate(-99.156 -437.14)"/>
    <path id="Line_33" d="M0 16.665L6.45 0" class="cls-5" data-name="Line 33" transform="translate(45.373 186.115)"/>
    <path id="Line_34" d="M0 22.556L8.836 0" class="cls-5" data-name="Line 34" transform="translate(36.127 187.904)"/>
    <g id="Group_147" data-name="Group 147" transform="translate(44.739 194.764)">
        <path id="Path_373" d="M120 522.4a9.344 9.344 0 0 0 .932.336l.932.3 1.864.6 1.827.6c.3.075.6.186.857.261a.13.13 0 0 1 .075.037h.037l.186.037c.149.037.3.037.485.075 2.5.373 4.959.6 7.494.82 2.535.186 5.07.41 7.643.671.634.075 1.3.149 1.939.261l.969.149c.336.037.559.112.783.112h.224c.037 0 0 0 0 .037s-.037.037 0 .075a.115.115 0 0 0 .075-.037 1.662 1.662 0 0 0 .261-.671 8.283 8.283 0 0 0 .075-1.939 4.693 4.693 0 0 1 .969 1.864 2.345 2.345 0 0 1 .075 1.268 1.106 1.106 0 0 1-.149.41 1.289 1.289 0 0 1-.373.41 1.157 1.157 0 0 0-.224.149.283.283 0 0 1-.149.075c-.112.037-.224.112-.336.149a9.685 9.685 0 0 1-1.156.261l-.969.149c-.634.075-1.3.186-1.976.224a43.427 43.427 0 0 1-7.941.112 30.2 30.2 0 0 1-7.9-1.678c-.149-.075-.336-.112-.485-.186l-.261-.112-.186-.075-.149-.075c-.336-.186-.634-.373-.932-.559a26.534 26.534 0 0 1-3.169-2.493c-.452-.573-.974-1.058-1.347-1.617z" class="cls-7" data-name="Path 373" transform="translate(-120 -522.4)"/>
    </g>
    <path id="Path_374" d="M136.349 489.021l7.606-5.965-4.772.671-2.983-4.027z" class="cls-7" data-name="Path 374" transform="translate(-85.421 -300.855)"/>
    <path id="Path_375" d="M118.749 492.421l7.606-6-4.772.671-2.983-3.992z" class="cls-7" data-name="Path 375" transform="translate(-74.383 -302.988)"/>
    <path id="Path_376" d="M80.433 394.025s18.343 15.4 33 .485c0 0-.559-4.959 3.616-6 0 0 20.058-3.691.671 9.582 0 0-19.387 22.892-40.116 2.647" class="cls-10" data-name="Path 376" transform="translate(-48.669 -243.366)"/>
    <path id="Path_377" d="M79.476 511.5l-12.862-4.4S48.047 549.416 43.2 557.021c0 0 5.742 4.064 12.191-2.162-.037.041 25.464-34.076 24.085-43.359z" class="cls-6" data-name="Path 377" transform="translate(-27.094 -318.04)"/>
    <path id="Path_378" d="M129.652 362.8v.112a3.206 3.206 0 0 0-.075.895v.037c0 .336-.037.634-.037.932-.447-.41-1.64-1.9-1.64-1.9a2.279 2.279 0 0 0 1.752-.076z" class="cls-11" data-name="Path 378" transform="translate(-80.216 -227.539)"/>
    <path id="Path_379" d="M145.9 268.5s8.053 5.07 7.568 13.459c0 0 .075.373-1.64-.857-.037-.002-2.013-9.47-5.928-12.602z" class="cls-11" data-name="Path 379" transform="translate(-91.505 -168.396)"/>
    <path id="Path_380" d="M1069 230.2s.149 12.452-1.9 17.746c0 0 11.446-.857 11.93 1.118 0 0-.41-3.206 1.864-9.172-.037.001 2.163-9.133-11.894-9.692z" class="cls-3" data-name="Path 380" transform="translate(-669.258 -144.376)"/>
    <path id="Path_381" d="M1095.257 195.235s-2.013 18.157-15.584 20.543a6.933 6.933 0 0 1-5.369-1.044s-8.165-7.643-5.928-14.652c0 0 .186-.112-.6-1.79-.224-.485.037-1.044-.112-1.566-.745-2.5-2.125-8.8 4.1-4.772.005-.074 13.464-8.388 23.493 3.281z" class="cls-3" data-name="Path 381" transform="translate(-669.192 -118.545)"/>
    <path id="Path_382" d="M1066.383 173.9c.037 0 9.321 1.081 15.771 1.939 0 0 6.972 2.162 7.68-2.125 0 0 .037-14.727-14.2-18.865 0 0-16.255-4.847-21.959 11.259 0 0-3.467 9.619 4.7 21.065a.283.283 0 0 1 .075.149l1.715 3.206c.783-1.529 1.752-4.064 1.007-6.487 0 0-4.474-13.534 5.22-10.141z" class="cls-9" data-name="Path 382" transform="translate(-660.376 -96.688)"/>
    <path id="Path_383" d="M898.947 485.805s38.14-54.47 42.912-61.852c0 0 .336-9.768-11.036-7.867 0 0-14.316 24.644-16.367 28.931 0 0-6.04 4.772-7.009 6.524 0 0-9.582 22.668-13.347 31.914" class="cls-13" data-name="Path 383" transform="translate(-560.756 -260.805)"/>
    <path id="Path_384" d="M1042.845 460.634c12.08-3.169 28.372-7.382 30.2-7.755 0 0 9.172-2.61 2.871-14.428 0 0-12.863-28.26-18.455-31.951 0 0-13.944 8.351-3.467 17.747 0 0 8.836 16.218 11.67 17.858 0 0-14.839 6.114-25.762 10.737" class="cls-2" data-name="Path 384" transform="translate(-652.198 -254.946)"/>
    <path id="Path_385" d="M1109.8 294.049c6.9 5.816 21.1 13.5 38.55-.932a27.736 27.736 0 0 1 11.3-4.138s2.386-7.792-3.8-10.178c0 0-2.386.969-2.8 2.312 0 0-3.169-1.044-5.033 5 0 0-18.231 12.937-27.514-1.715a14.783 14.783 0 0 0-5.518-5" class="cls-2" data-name="Path 385" transform="translate(-696.038 -174.856)"/>
    <path id="Path_386" d="M1030.1 255.4l26.694 9.209s-7.941 33.032-16.516 36.872c0 0 0 3.5.969 4.437 0 0-22.891-2.237-26.545-7.792 0 0 3.02-3.877 3.5-5.22-.035.038-.594-29.639 11.898-37.506z" class="cls-15" data-name="Path 386" transform="translate(-636.394 -160.18)"/>
    <path id="Path_387" d="M999.469 369.2s-11.446 11.744-10.812 18.119c0 0 26.359 50.518 40.377.336 0 0-2.871-10.476-5.406-13.832-.037-.037-21.81-1.939-24.159-4.623z" class="cls-8" data-name="Path 387" transform="translate(-620.045 -231.553)"/>
    <path id="Path_388" d="M1211.97 294.654a10.968 10.968 0 0 0 4.884 12.266s4.66-.969 6.3-1.9c0 0-9.283-6.674-5.369-13.235.038-.002-1.528-.337-5.815 2.869z" class="cls-16" data-name="Path 388" transform="translate(-759.881 -182.993)"/>
    <path id="Path_389" d="M1205.212 251.579c-1.118 23.786-8.985 34.785-23 34.785s-31.951-23.712-34.188-47.423c-2.386-25.278 6-38.14 19.8-40.75 14.981-2.872 38.581 28.371 37.388 53.388z" class="cls-6" data-name="Path 389" transform="translate(-719.756 -124.184)"/>
    <path id="Path_390" d="M1020 359.145l46.23 8.016 21.77-2.237-22.258-6.524-45.742-2.2z" class="cls-2" data-name="Path 390" transform="translate(-639.718 -223.399)"/>
    <path id="Path_391" d="M1000.175 347.286l-.075 1.156c-1.454-.149-11.595-1.23-13.049-3.542 0 0-1.081 6.785-.82 7.755.224.969 11.147-.932 13.683-.373l-.112 1.864 2.759.112.373-7.046z" class="cls-7" data-name="Path 391" transform="translate(-618.514 -216.312)"/>
    <path id="Path_392" d="M993.546 273.716c-3.728.075-13.235.447-17.9 2.237a3.054 3.054 0 0 0-1.9 2.386c-.373 2.684-.186 8.426 5.667 15.584a2.945 2.945 0 0 0 2.054 1.077 9.046 9.046 0 0 1 2.983.82 3.041 3.041 0 0 1 1.6 1.79c.783 2.5 1.491 7.792-8.165 4.66a2.679 2.679 0 0 1-2.013-2.647 3.024 3.024 0 0 0-1.081-2.535c-5.63-4.623-23.152-21.1-.708-31.541a1.875 1.875 0 0 1 .485-.186c1.976-.559 15.323-4.1 22.3-2.2" class="cls-13" data-name="Path 392" transform="translate(-603.943 -164.702)"/>
    <path id="Path_393" d="M889.9 519.2s10.812 8.65 14.54 8.836c0 0-20.468 22.034-22.631 26.545 0 0-1.715 2.274 2.051 10.663 0 0 4.474 8.761-3.467 2.833 0 0-6.077-6.6-5.22-8.8 0 0-.783 1.081-1.529.671 0 0-2.535-1.976-2.125-3.057a8 8 0 0 1 2.349-2.5s14.024-32.283 16.032-35.191z" class="cls-9" data-name="Path 393" transform="translate(-546.57 -325.629)"/>
    <path id="Path_394" d="M1034.4 501.5s2.5 13.645 5.182 16.218c0 0-29.9 3.206-34.486 5.182 0 0-2.8.6-5.443 9.4 0 0-2.386 9.544-4.474-.149 0 0-.261-8.948 1.827-10.066 0 0-1.3.3-1.6-.485 0 0-.6-3.132.41-3.691a8.537 8.537 0 0 1 3.43-.373s31.765-15.141 35.154-16.036z" class="cls-9" data-name="Path 394" transform="translate(-624.146 -314.528)"/>
    <path id="Path_395" d="M1116 195.847s16.4 5.965 10.812-4.847c0 0 1.488 5.965-10.812 4.847z" class="cls-11" data-name="Path 395" transform="translate(-699.926 -119.79)"/>
    <path id="Path_396" d="M1092.653 258.995a7.19 7.19 0 0 1-5.853-.895s2.2 3.728 4.847 4.623c.037 0 .853-3.579 1.006-3.728z" class="cls-11" data-name="Path 396" transform="translate(-681.613 -161.874)"/>
    <path id="Path_397" d="M708.192 424.724a19.61 19.61 0 0 0-.112 4.064 10.418 10.418 0 0 0 .261 1.64c-.708-1.379-8.985.895-8.985.895.746-4.25-1.156-13.422-1.156-13.422 10.476-1.6 10.215 5.443 10.215 5.443-.115.522-.149.97-.223 1.38z" class="cls-3" data-name="Path 397" transform="translate(-437.893 -261.948)"/>
    <path id="Path_398" d="M863.8 615.358s12.527 9.432 13.757 10.141c0 0-6 13.049-7.829 16.777 0 0 6.375 5.108 7.419 6.86 0 0 13.123-28.409 14.167-30.385 0 0-12.191-12.527-20.543-16.367-.001-.037-11.371-.484-6.971 12.974z" class="cls-10" data-name="Path 398" transform="translate(-541.117 -377.794)"/>
    <path id="Line_35" d="M0 0l92.349 90" class="cls-12" data-name="Line 35" transform="translate(224.031 59.018)"/>
    <path id="Path_399" d="M606.58 282.5s6.077 2.684 7.568 3.84c0 0-7.68 6.077-10.141 5.369a6.728 6.728 0 0 1 2.573-9.209z" class="cls-2" data-name="Path 399" transform="translate(-378.262 -177.177)"/>
    <path id="Path_400" d="M580.981 291.987s-5.443 7.717-4.548 11.781c0 0-.261 1.342 2.386-.858 0 0 .671.3.261 2.423 0 0-.224 1.864 2.312-.969 0 0 .895-.037.3 2.349 0 0-1.081 3.169 2.833-.6 0 0 1.007-.708-.075 1.939 0 0-1.081 2.833 2.237-.373 0 0 1.119-.559.261 2.162 0 0-.708 2.162 1.827-1.454 0 0 8.687-11.856 9.246-15.286 0 0 1.6-3.952-4.362.559 0 0-6.413 5-7.27 1.9-.039.081-5.333-2.604-5.408-3.573z" class="cls-6" data-name="Path 400" transform="translate(-361.461 -182.824)"/>
    <path id="Path_401" d="M611.371 229s6.86 3.952 9.47 7.158c0 0-11.222 5.63-12.751 3.952 0 0-.298-7.978 3.281-11.11z" class="cls-2" data-name="Path 401" transform="translate(-381.374 -143.623)"/>
    <path id="Path_402" d="M577.493 241.2s-8.2 8.351-9.693 14.95c0 0 10.1 7.978 14.279 8.911 0 0-2.908-2.535 6.413-10.961 0 0 12.042-13.757 6.45-10.4 0 0-11.259 5.033-11.334 1.939.074.035-6.562-3.656-6.115-4.439z" class="cls-6" data-name="Path 402" transform="translate(-356.109 -151.274)"/>
    <path id="Path_403" d="M577.493 241.2s-8.2 8.351-9.693 14.95c0 0 10.1 7.978 14.279 8.911 0 0-2.908-2.535 6.413-10.961 0 0 12.042-13.757 6.45-10.4 0 0-11.259 5.033-11.334 1.939.074.035-6.562-3.656-6.115-4.439z" class="cls-11" data-name="Path 403" transform="translate(-356.109 -151.274)"/>
    <path id="Path_404" d="M689.134 652.779s6.487 19.014-6.338 31.839c0 0-1.715 3.094-1.23 3.393 0 0 8.128 11.446 13.31 17 0 0-9.507 2.535-10.215 2.237 0 0-17.858-19.648-19.946-22.258-2.127-2.572-10.553-43.322 24.419-32.211z" class="cls-10" data-name="Path 404" transform="translate(-415.368 -408.205)"/>
    <path id="Path_405" d="M916.112 699.212l6.487 9.172-10.1 5.667-7.2-14.95c.038-.001 7.458 1.043 10.813.111z" class="cls-2" data-name="Path 405" transform="translate(-567.781 -438.457)"/>
    <path id="Path_406" d="M865.927 707.5l8.948 6.785-7.941 8.463-11.334-12.116s7.382-1.232 10.327-3.132z" class="cls-2" data-name="Path 406" transform="translate(-536.61 -443.726)"/>
    <path id="Path_407" d="M527.806 660.262s-12.639-6.413-16.964 20.244c0 0-.671 23.078-9.843 27.552 0 0 7.233.336 12.6-2.647s12.49-7.419 12.527-17.56c0 0-1.64-20.356 2.423-21.848" class="cls-8" data-name="Path 407" transform="translate(-314.214 -413.675)"/>
    <path id="Path_408" d="M683.1 382.284s39.594 3.132 45.932-29.3c0 0-7.2.3-2.125-7.68 0 0 10.887.373 8.277 8.612 0 0 .336 32.771-42.055 41.272z" class="cls-2" data-name="Path 408" transform="translate(-428.423 -216.563)"/>
    <path id="Path_409" d="M704.61 372.115s2.759 14.5-6.935 21.214a5.35 5.35 0 0 1-4.847.373s-11.968-6-11.222-12.639c0 0 .149-.149-.82-1.491-.3-.41-.149-.932-.373-1.379-1.119-2.088-3.43-7.419 2.8-4.959-.003 0 10.473-9.734 21.397-1.119z" class="cls-3" data-name="Path 409" transform="translate(-425.885 -231.15)"/>
    <path id="Path_410" d="M677.434 362.291c.037 0 8.612-5.667 13.049-3.728 0 0 7.867 2.386 5.331-4.213 0 0-4.138-11.707-17.448-10.1 0 0-14.428 1.6-13.534 16.181 0 0 .485 8.724 10.7 15.025.037.037.075.075.112.075l2.423 1.939a7.734 7.734 0 0 0-1.379-5.443c.037 0-12.863-17.672.746-9.731z" class="cls-9" data-name="Path 410" transform="translate(-416.941 -215.808)"/>
    <circle id="Ellipse_285" cx="2.312" cy="2.312" r="2.312" class="cls-8" data-name="Ellipse 285" transform="translate(222.092 57.042)"/>
    <path id="Path_411" d="M592.144 159.486s-18.492 8.873-22.444 23.563c0 0 11.558 9.843 15.994 11.185 0 0-1.342-10.812 19.014-21.437 0 0 6.711-2.871-2.162-3.355 0 0-1.864-.485-.037-3.691 0 0 1.64-2.647-2.983.634 0 0-2.349 1.268.037-4.362 0 0 .708-1.342-2.945 1.379 0 0-1.9 1.752-.746-3.43 0-.039 2.275-5.035-3.728-.486z" class="cls-6" data-name="Path 411" transform="translate(-357.301 -98.827)"/>
    <path id="Path_412" d="M621.224 505.879s-6.9 8.575-16.106 11.819c0 0-1.64 1.342.224 3.355 0 0 10.215 11.259 12.639 13.683l-11.483 2.2s-11.707-13.683-13.906-16.7c0 0 8.948-15.882 9.619-17.15 0 0-44.478-7.121-18.716-43.583a19.964 19.964 0 0 1 11.408-7.829 50.636 50.636 0 0 1 7.307-1.193s16.069 1.23 29.528-7.27c0 0 16.852-3.393 28.148-20.878 0 0 9.582-45.447 23.973-46.38 0 0 11.446-6.972 27.664 16.255 0 0 11.446 11.148 17.486 12.974 0 0 16.181 11.52-5.7 17-.634.149-8.5-2.8-25.352-6.487 0 0-4.325.783-6.338 8.8-2.013 8.053-1.529 17.486 11.148 27.365 0 0 32.921 18.865 39.445 23.19 0 0 2.647 3.094-4.474 7.121 0 0-16.554 16.4-23.674 20.729a17.321 17.321 0 0 1-4.176-6.04s14.242-16.4 15.323-18.865c0 0-19.312-9.134-31.69-12.676a25.635 25.635 0 0 1-21.549 13.832s-22.966 5.22-39.072 7.307a11.511 11.511 0 0 0-7.643 5.443c-.081.072-1.647 9.654-4.033 13.978z" class="cls-2" data-name="Path 412" transform="translate(-360.917 -235.171)"/>
    <path id="Path_413" d="M654.5 800.908l13.534-.708 5.592 7.9-17.262.783z" class="cls-2" data-name="Path 413" transform="translate(-410.486 -501.865)"/>
    <path id="Path_414" d="M716.7 796.608l14.242-.708 5.928 8.314-18.194.82z" class="cls-2" data-name="Path 414" transform="translate(-449.496 -499.168)"/>
    <path id="Path_415" d="M738.778 575.13c-.82-4.884 3.766-17.784 3.5-24.756 0 0-3.393-2.461-17.635-10.215 0 0-17.97-5.257-10.215 14.876 0 0 10.849 5.592 14.876 4.325a183.2 183.2 0 0 1 5.033 17.672" class="cls-13" data-name="Path 415" transform="translate(-446.856 -338.386)"/>
    <path id="Path_416" d="M751 558.683s13.571.858 16.218-.783c0 0-3.766 25.054-3.169 29.23 0 0-.112 2.423 6.487 6.45 0 0 7.27 3.989-1.081 3.616 0 0-7.345-1.715-7.829-3.654 0 0-.037 1.119-.746 1.193 0 0-2.684-.186-2.945-1.156a7.245 7.245 0 0 1 .447-2.871S751 561.666 751 558.683z" class="cls-9" data-name="Path 416" transform="translate(-471.008 -349.9)"/>
    <path id="Path_417" d="M755 567s3.355 17.9 5.592 23.861z" class="cls-11" data-name="Path 417" transform="translate(-473.517 -355.608)"/>
    <path id="Path_418" d="M656.606 435l21.027 5.555s1.081 28.745 1.081 37.693c0 0 6.935 10.775 11.558 16.032 0 0-33.666 6.9-49.772 4.1A225.243 225.243 0 0 1 656.606 435z" class="cls-9" data-name="Path 418" transform="translate(-401.705 -272.821)"/>
    <g id="Group_148" data-name="Group 148" transform="translate(263.923 161.21)">
        <path id="Path_419" d="M800.1 432.4a5.61 5.61 0 0 1 .522 1.752 8.125 8.125 0 0 1-.075 1.9 9.107 9.107 0 0 1-.559 1.79 10.277 10.277 0 0 1-.932 1.64 11.258 11.258 0 0 1-1.193 1.454 14.61 14.61 0 0 1-1.379 1.268c-.932.783-1.9 1.454-2.833 2.125a24.653 24.653 0 0 0-2.573 2.013 9.859 9.859 0 0 0-1.078 1.083c-.149.186-.336.373-.485.559l-.447.634a44.034 44.034 0 0 0-3.057 5.779 27.609 27.609 0 0 1-3.766 6.114 14.452 14.452 0 0 1-2.722 2.5 18.57 18.57 0 0 1-3.132 1.752 35.972 35.972 0 0 1-6.711 2.125c-2.274.522-4.548 1.007-6.86 1.379l-1.752.261-1.752.224c-.6.037-1.156.112-1.752.149s-1.193.075-1.752.075a49.991 49.991 0 0 1-7.084-.224 63.543 63.543 0 0 1-7.009-1.044c-2.312-.447-4.548-1.044-6.748-1.566a83.424 83.424 0 0 0-13.273-2.125l-.858-.075-.857-.037c-.559-.037-1.119-.075-1.678-.075-.559-.037-1.118-.037-1.715-.037-.559-.037-1.119-.037-1.715-.037-2.274 0-4.586.075-6.9.186l-.075-.373a46.348 46.348 0 0 1 6.785-1.715 36.106 36.106 0 0 1 3.5-.485 27.47 27.47 0 0 1 1.752-.149c.6-.075 1.193-.075 1.752-.112a54.341 54.341 0 0 1 14.093 1.193c2.312.485 4.511 1.081 6.711 1.64a66.76 66.76 0 0 0 6.6 1.342c2.2.336 4.437.559 6.711.708 2.237.149 4.511.3 6.785.224a46.769 46.769 0 0 0 6.823-.559 22.714 22.714 0 0 0 6.45-1.976 15.283 15.283 0 0 0 2.722-1.864 11.837 11.837 0 0 0 2.013-2.5 34.584 34.584 0 0 0 2.573-6.114c.41-1.081.82-2.2 1.342-3.281a20.144 20.144 0 0 1 1.9-3.206 5.813 5.813 0 0 1 .6-.746c.224-.261.447-.485.671-.708a15.447 15.447 0 0 1 1.417-1.3 28.335 28.335 0 0 1 3.02-2.013c1.007-.6 1.976-1.118 2.908-1.715a11.651 11.651 0 0 0 1.3-.932 14.948 14.948 0 0 0 1.193-1.044 8.531 8.531 0 0 0 1.79-2.573 6.611 6.611 0 0 0 .447-1.529 6.04 6.04 0 0 0 0-1.64z" class="cls-7" data-name="Path 419" transform="translate(-707.9 -432.4)"/>
    </g>
    <path id="Path_420" d="M683.526 471.4s9.507 24.159 31.168 17.523c0 0 2.013-5 6.524-3.84 0 0 21.027 6.86-4.325 9.47 0 0-30.311 11.781-39.594-18.231" class="cls-10" data-name="Path 420" transform="translate(-424.785 -295.65)"/>
    <path id="Path_421" d="M877.172 333.763S866.51 339.355 866.7 351.7a4.207 4.207 0 0 0 2.535 3.8c.037 0 .075.037.112.037a4.227 4.227 0 0 0 5.853-4.137c-.261-4.921-.336-12.751 1.6-14.354a2.129 2.129 0 0 0 .3-.261c.706-.897 4.248-5.222.072-3.022z" class="cls-2" data-name="Path 421" transform="translate(-543.568 -208.941)"/>
    <path id="Path_422" d="M1224.5 208.5s30.2 17.15 25.725 60.4c0 0 0-37.285-25.725-60.4z" class="cls-11" data-name="Path 422" transform="translate(-767.975 -130.766)"/>
    <path id="Path_423" d="M71 513s-21.624 45.112-22 45.485c0 0 23.861-42.13 22-45.485z" class="cls-11" data-name="Path 423" transform="translate(-30.732 -321.74)"/>
    <path id="Path_424" d="M736.794 543s-.373 3.728.746 4.474l1.491 1.491a28.323 28.323 0 0 1-4.1-1.491c-.374-.374 1.863-3.728 1.863-4.474z" class="cls-11" data-name="Path 424" transform="translate(-460.903 -340.556)"/>
    <circle id="Ellipse_286" cx="6.897" cy="6.897" r="6.897" class="cls-9" data-name="Ellipse 286" transform="translate(243.082 127.506)"/>
    <g id="Group_149" data-name="Group 149" transform="translate(247.295 130.042)">
        <path id="Path_425" d="M671.614 348.912a8.034 8.034 0 0 1-.186 1.9 9.965 9.965 0 0 1-.559 1.79c-.3.559-.671 1.081-.969 1.64a14.541 14.541 0 0 0-.746 1.752 7.511 7.511 0 0 1-.895 1.715 9.589 9.589 0 0 1-1.268 1.491 6.189 6.189 0 0 1-.783.6 4.289 4.289 0 0 1-.932.447 2.506 2.506 0 0 1-1.044.112 1.426 1.426 0 0 1-.932-.485l.075-.112a1.926 1.926 0 0 0 1.566-.373 8.2 8.2 0 0 0 .671-.522l.634-.6c.41-.41.82-.82 1.23-1.268l1.193-1.379a5.616 5.616 0 0 0 .932-1.566 14.453 14.453 0 0 0 .41-1.827 16.2 16.2 0 0 1 .6-1.752 12.239 12.239 0 0 1 .895-1.678z" class="cls-2" data-name="Path 425" transform="translate(-663.3 -348.8)"/>
    </g>
    <path id="Path_426" d="M716.881 438.361a8.659 8.659 0 0 1-1.081-2.461c1.007.783 2.61.485 3.43.261-.075.634-.112 1.23-.149 1.752" class="cls-11" data-name="Path 426" transform="translate(-448.931 -273.385)"/>
    <path id="Path_427" d="M720 349s11.558 7.829 8.2 12.3c0 0-.743-5.589-8.2-12.3z" class="cls-11" data-name="Path 427" transform="translate(-451.565 -218.884)"/>
    <path id="Path_428" d="M641 591.829s15.286 2.61 49.586-4.1l-3.02-3.729s-38.364 7.941-46.38 4.176z" class="cls-11" data-name="Path 428" transform="translate(-402.019 -366.27)"/>
</svg>
