<svg xmlns="http://www.w3.org/2000/svg" viewBox="0 0 86.183 85.787">
    <defs>
        <style>
            .cls-1{fill:#21cf93}.cls-2{fill:#c3f4dd}.cls-3{fill:#d5f7e8}.cls-4{fill:none;stroke:#5a6977;stroke-linecap:round;stroke-miterlimit:10;stroke-width:3px}
        </style>
    </defs>
    <g id="ux-design" transform="translate(.111 .011)">
        <path id="Path_205" d="M38.684 12.69l24.5 7.477c.135.045.225.09.36.135L85.8 31.382a2.277 2.277 0 0 1 1.171 1.486L93.049 58.9a2.182 2.182 0 0 1-1.081 2.432L36.927 91.6a2.252 2.252 0 0 1-3.2-1.261L14.362 30.121a2.2 2.2 0 0 1 .856-2.522L36.792 12.96a2.3 2.3 0 0 1 1.892-.27z" class="cls-1" data-name="Path 205" transform="translate(-7.035 -6.1)"/>
        <path id="Path_206" d="M41.918 2.391L33 23.605 38.765 80a1.417 1.417 0 0 0 2.342.946l43.285-36.261 6.126-21.125c.315-1.486.766-1.712-1.351-2.793L67.952 9.462 42.324 2.256a.309.309 0 0 0-.406.135z" class="cls-2" data-name="Path 206" transform="translate(-17.34 -.395)"/>
        <path id="Path_207" d="M33 32.773L68.358 18.9l16.215 34.322z" class="cls-3" data-name="Path 207" transform="translate(-17.34 -9.563)"/>
        <path id="Path_208" d="M25.884 1.59l24.5 7.477c.135.045.225.09.36.135L73 20.282a2.277 2.277 0 0 1 1.171 1.486L80.249 47.8a2.182 2.182 0 0 1-1.081 2.432l-55 30.268a2.252 2.252 0 0 1-3.2-1.261L1.562 19.021a2.2 2.2 0 0 1 .855-2.521L23.992 1.86a2.349 2.349 0 0 1 1.892-.27z" class="cls-4" data-name="Path 208"/>
    </g>
</svg>
